<?xml version="1.0" standalone="no"?>
<!DOCTYPE svg PUBLIC "-//W3C//DTD SVG 1.1//EN" "http://www.w3.org/Graphics/SVG/1.1/DTD/svg11.dtd" >
<svg xmlns="http://www.w3.org/2000/svg">
<metadata>
<json>
<![CDATA[
{
	"fontFamily": "doFont218",
	"fontURL": "https://www.deotis.co.kr",
	"designer": "ejChoi",
	"designerURL": "https://www.deotis.co.kr",
	"license": "MIT license",
	"description": "Deotis icon set\nFont generated by IcoMoon.",
	"copyright": "2023 Deotis",
	"majorVersion": 2,
	"licenseURL": "",
	"minorVersion": 0,
	"version": "Version 2.0",
	"fontId": "doFont218",
	"psName": "doFont218",
	"subFamily": "Regular",
	"fullName": "doFont218"
}
]]>
</json>
</metadata>
<defs>
<font id="doFont218" horiz-adv-x="1024">
<font-face units-per-em="1024" ascent="960" descent="-64" />
<missing-glyph horiz-adv-x="1024" />
<glyph unicode="&#x20;" horiz-adv-x="512" d="" />
<glyph unicode="&#xc90d;" glyph-name="counselor1" data-tags="counselor01" d="M865.619 577.997v28.494c0 94.935-33.598 183.345-94.58 248.943-62.624 67.461-148.905 104.566-242.996 104.566h-31.778c-94.047 0-180.328-37.104-242.951-104.521-61.027-65.687-94.668-154.097-94.668-248.987v-28.538c-73.010-10.031-128.754-73.010-128.754-147.662v-60.183c0-82.153 66.796-148.948 148.905-148.948h77.625c20.017 0 36.305 16.289 36.305 36.305v285.648c0 20.061-16.289 36.349-36.305 36.349h-25.077v27.029c0 160.089 113.797 280.855 264.744 280.855h31.778c150.945 0 264.787-120.721 264.787-280.855v-27.029h-25.12c-20.061 0-36.394-16.289-36.394-36.349v-285.382c0-20.061 16.333-36.349 36.394-36.349h23.035c-13.182-106.652-84.771-136.921-123.74-145.443-15.756 36.038-51.307 59.65-91.384 59.65h-63.157c-54.99 0-99.728-44.738-99.728-99.728 0-55.035 44.738-99.861 99.728-99.861h63.379c42.253 0 79.889 26.941 93.87 66.441 22.147 3.773 52.638 11.983 82.685 29.559 45.803 26.808 101.637 81.575 111.667 190.535 73.764 9.276 130.219 72.433 130.219 147.839v60.138c0.178 74.741-55.434 137.631-128.488 147.484zM921.63 430.512v-60.183c0-42.030-34.219-76.294-76.294-76.294h-41.321v212.726h41.321c42.030 0 76.294-34.219 76.294-76.249zM220.426 506.762v-212.726h-41.188c-42.030 0-76.249 34.219-76.249 76.294v60.183c0 42.030 34.219 76.249 76.249 76.249h41.188zM575.666 8.61h-63.379c-14.868 0-26.984 12.072-26.984 26.941 0 14.957 12.116 27.118 26.984 27.118h63.379c14.868 0 26.941-12.161 26.941-27.118 0-14.868-12.072-26.941-26.941-26.941z" />
<glyph unicode="&#xc90e;" glyph-name="counselor2" data-tags="counselor02" d="M867.333 581.335v23.444c0 95.27-33.762 184.086-95.050 250.030-63.002 67.831-149.754 105.192-244.366 105.192h-31.434c-94.568 0-181.364-37.361-244.322-105.192-61.333-65.987-95.139-154.759-95.139-250.030v-23.532c-72.572-12.336-127.408-75.821-127.408-150.808v-59.533c0-84.294 68.533-152.828 152.783-152.828h76.787c22.83 0 41.401 18.571 41.401 41.401v282.605c0 22.873-18.571 41.444-41.401 41.444h-19.317v21.25c0 155.242 110.241 272.332 256.395 272.332h31.434c146.198 0 256.439-117.090 256.439-272.332v-21.25h-19.317c-22.873 0-41.489-18.571-41.489-41.444v-282.298c0-22.873 18.615-41.444 41.489-41.444h16.508c-13.522-91.494-71.387-122.051-113.007-132.105-17.341 35.342-53.255 58.172-93.514 58.172h-62.475c-57.425 0-104.138-46.713-104.138-104.138 0-57.513 46.713-104.27 104.138-104.27h62.694c43.025 0 81.484 26.781 96.894 66.338 22.127 4.083 51.499 12.381 80.562 29.416 45.791 26.825 101.548 81.178 112.699 188.345 73.538 11.415 129.207 75.206 129.207 151.071v59.489c0.219 75.075-54.44 138.515-127.056 150.676zM911.764 430.702v-59.533c0-38.591-31.391-69.982-69.982-69.982h-35.386v199.453h35.386c38.591 0 69.982-31.391 69.982-69.938zM218.136 500.64v-199.453h-35.254c-38.547 0-69.938 31.391-69.938 69.982v59.533c0 38.547 31.391 69.938 69.938 69.938h35.254zM512.331 61.344h62.694c11.678 0 21.161-9.571 21.161-21.337 0-11.678-9.527-21.161-21.161-21.161h-62.694c-11.722 0-21.205 9.527-21.205 21.161 0 11.81 9.527 21.337 21.205 21.337z" />
<glyph unicode="&#xc90f;" glyph-name="counselor3" data-tags="counselor03" d="M869.451 585.082v17.642c0 95.747-33.955 185.023-95.613 251.291-63.564 68.352-150.934 105.986-246.060 105.986h-31.072c-95.216 0-182.582-37.634-246.014-105.986-61.791-66.358-95.747-155.588-95.747-251.291v-17.731c-72.343-14.983-125.756-79.656-125.756-154.259v-58.822c0-86.881 70.613-157.538 157.36-157.538h75.8c26.152 0 47.474 21.323 47.474 47.519v278.95c0 26.196-21.276 47.519-47.474 47.519h-12.368v14.363c0 149.516 105.986 262.284 246.547 262.284h31.029c140.56 0 246.591-112.767 246.591-262.284v-14.363h-12.5c-26.196 0-47.519-21.323-47.519-47.519v-278.818c0-26.109 21.323-47.34 47.519-47.34h8.6c-13.831-75.49-60.153-105.011-100.577-116.137-19.105 34.487-55.764 56.34-95.747 56.34h-61.616c-60.24 0-109.265-49.024-109.265-109.356 0-60.372 49.024-109.532 109.265-109.532h61.882c43.838 0 83.424 26.375 100.489 66.269 20.833 4.166 49.557 12.456 78.106 28.99 45.392 26.641 101.376 80.364 113.964 185.996 73.583 13.963 128.061 78.992 128.061 154.789v58.644c0.221 74.823-53.015 139.543-125.357 154.391zM900.082 430.958v-58.822c0-34.442-28.015-62.501-62.412-62.501h-28.413v183.826h28.413c34.397-0.045 62.412-28.104 62.412-62.501zM215.45 493.325v-183.692h-28.325c-34.442 0-62.457 28.059-62.457 62.501v58.733c0 34.442 28.015 62.457 62.457 62.457h28.325zM512.309 59.718h61.882c7.933 0 14.363-6.47 14.363-14.45 0-7.933-6.47-14.316-14.363-14.316h-61.882c-7.933 0-14.363 6.428-14.363 14.316 0 7.933 6.428 14.45 14.363 14.45z" />
<glyph unicode="&#xe000;" glyph-name="error" data-tags="error" d="M554 406v256h-84v-256h84zM554 234v86h-84v-86h84zM512 874c236 0 426-190 426-426s-190-426-426-426-426 190-426 426 190 426 426 426z" />
<glyph unicode="&#xe002;" glyph-name="error_outline" data-tags="error_outline" d="M512 106c188 0 342 154 342 342s-154 342-342 342-342-154-342-342 154-342 342-342zM512 874c236 0 426-190 426-426s-190-426-426-426-426 190-426 426 190 426 426 426zM470 662h84v-256h-84v256zM470 320h84v-86h-84v86z" />
<glyph unicode="&#xe040;" glyph-name="circle-plus" data-tags="circle-plus" d="M512 917.334q95.667 0 182.5-37.167t149.667-100 100-149.667 37.167-182.5-37.167-182.5-100-149.667-149.667-100-182.5-37.167-182.5 37.167-149.667 100-100 149.667-37.167 182.5 37.167 182.5 100 149.667 149.667 100 182.5 37.167zM512 832.001q-78 0-149.167-30.5t-122.5-81.833-81.833-122.5-30.5-149.167 30.5-149.167 81.833-122.5 122.5-81.833 149.167-30.5 149.167 30.5 122.5 81.833 81.833 122.5 30.5 149.167-30.5 149.167-81.833 122.5-122.5 81.833-149.167 30.5zM512 661.334q17.667 0 30.167-12.5t12.5-30.167v-128h128q17.667 0 30.167-12.5t12.5-30.167-12.5-30.167-30.167-12.5h-128v-128q0-17.667-12.5-30.167t-30.167-12.5-30.167 12.5-12.5 30.167v128h-128q-17.667 0-30.167 12.5t-12.5 30.167 12.5 30.167 30.167 12.5h128v128q0 17.667 12.5 30.167t30.167 12.5z" />
<glyph unicode="&#xe041;" glyph-name="circle-minus" data-tags="circle-minus" d="M512 917.334q95.667 0 182.5-37.167t149.667-100 100-149.667 37.167-182.5-37.167-182.5-100-149.667-149.667-100-182.5-37.167-182.5 37.167-149.667 100-100 149.667-37.167 182.5 37.167 182.5 100 149.667 149.667 100 182.5 37.167zM512 832.001q-78 0-149.167-30.5t-122.5-81.833-81.833-122.5-30.5-149.167 30.5-149.167 81.833-122.5 122.5-81.833 149.167-30.5 149.167 30.5 122.5 81.833 81.833 122.5 30.5 149.167-30.5 149.167-81.833 122.5-122.5 81.833-149.167 30.5zM341.333 490.668h341.333q17.667 0 30.167-12.5t12.5-30.167-12.5-30.167-30.167-12.5h-341.333q-17.667 0-30.167 12.5t-12.5 30.167 12.5 30.167 30.167 12.5z" />
<glyph unicode="&#xe042;" glyph-name="circle-check" data-tags="circle-check" d="M512 917.334q95.667 0 182.5-37.167t149.667-100 100-149.667 37.167-182.5-37.167-182.5-100-149.667-149.667-100-182.5-37.167-182.5 37.167-149.667 100-100 149.667-37.167 182.5 37.167 182.5 100 149.667 149.667 100 182.5 37.167zM512 832.001q-78 0-149.167-30.5t-122.5-81.833-81.833-122.5-30.5-149.167 30.5-149.167 81.833-122.5 122.5-81.833 149.167-30.5 149.167 30.5 122.5 81.833 81.833 122.5 30.5 149.167-30.5 149.167-81.833 122.5-122.5 81.833-149.167 30.5zM655.667 576.334q17.667 0 30.167-12.5t12.5-30.167-12.667-30.333l-181-181q-12.333-12.333-30-12.333-18 0-30.333 12.333l-90.667 90.333q-12.333 12.333-12.333 30.333 0 17.667 12.5 30.167t30.167 12.5 30.333-12.667l60.333-60.333 150.667 151q12.667 12.667 30.333 12.667z" />
<glyph unicode="&#xe043;" glyph-name="circle-cross" data-tags="circle-cross" d="M512 917.334q95.667 0 182.5-37.167t149.667-100 100-149.667 37.167-182.5-37.167-182.5-100-149.667-149.667-100-182.5-37.167-182.5 37.167-149.667 100-100 149.667-37.167 182.5 37.167 182.5 100 149.667 149.667 100 182.5 37.167zM512 832.001q-78 0-149.167-30.5t-122.5-81.833-81.833-122.5-30.5-149.167 30.5-149.167 81.833-122.5 122.5-81.833 149.167-30.5 149.167 30.5 122.5 81.833 81.833 122.5 30.5 149.167-30.5 149.167-81.833 122.5-122.5 81.833-149.167 30.5zM632.667 611.668q17.667 0 30.333-12.5t12.667-30.167-12.667-30.333l-90.667-90.667 90.667-90.333q12.667-12.667 12.667-30 0-17.667-12.667-30.167t-30.333-12.5-30 12.333l-90.667 90.333-90.333-90.333q-12.333-12.333-30.333-12.333-17.667 0-30.167 12.333t-12.5 30q0 18 12.333 30.333l90.667 90.333-90.667 90.667q-12.333 12.333-12.333 30t12.5 30.333 30.167 12.667 30.333-12.667l90.333-90.667 90.667 90.667q12.667 12.667 30 12.667z" />
<glyph unicode="&#xe080;" glyph-name="rotate-cw" data-tags="reload" d="M469.332 874.665q83 0 160.667-31.333 79.667-32.333 141-93.667 0.333-0.333 125-122.333v162q0 17.667 12.5 30.167t30.167 12.5 30.167-12.5 12.5-30.167v-256q0-17.667-12.5-30.167t-30.167-12.5h-256q-17.667 0-30.167 12.5t-12.5 30.167 12.5 30.167 30.167 12.5h144q-92.667 90-116 113.333-49.667 49.667-113 75-61 25-128.333 25t-128.333-25q-63.667-25.333-113-75-49.333-49.333-75-113-25-61-25-128.333t25-128.333q25.667-63.667 75-113 49.333-49.667 113-75 61-25 128.333-25t128.333 25q63.333 25.333 113 75 55.333 55.333 80.667 127.667 5.667 16.667 21.667 24.167t32.667 1.833q16.667-6 24.333-22t1.667-32.667q-15.333-43.667-41.5-85.333t-59.167-74q-61.333-61.333-141-93.667-77.667-31.333-160.667-31.333t-160.667 31.333q-79.667 32.333-141 93.667t-93.667 141q-31.333 77.667-31.333 160.667t31.333 160.667q32.333 79.667 93.667 141t141 93.667q77.667 31.333 160.667 31.333z" />
<glyph unicode="&#xe086;" glyph-name="power" data-tags="power" d="M813.667 707q59-59 91.333-135.667 33.667-79.333 33.667-166t-33.667-166q-32.333-76.667-91.333-135.667t-135.667-91.333q-79.333-33.667-166-33.667t-166 33.667q-76.667 32.333-135.667 91.333t-91.333 135.667q-33.667 79.333-33.667 166t33.667 166q32.333 76.667 91.333 135.667 12.333 12.333 30 12.333t30.333-12.333 12.667-30-12.667-30.333q-47-47-73.333-108.333-26.667-64-26.667-133t26.667-133q26.333-61.333 73.333-108.333t108.333-73.333q64-26.667 133-26.667t133 26.667q61.333 26.333 108.333 73.333t73.333 108.333q26.667 64 26.667 133t-26.667 133q-26.333 61.333-73.333 108.333-12.667 12.667-12.667 30.333t12.667 30 30.333 12.333 30-12.333zM512 917.333q17.667 0 30.167-12.5t12.5-30.167v-426.667q0-17.667-12.5-30.167t-30.167-12.5-30.167 12.5-12.5 30.167v426.667q0 17.667 12.5 30.167t30.167 12.5z" />
<glyph unicode="&#xe094;" glyph-name="arrow-left" data-tags="arrow-left" d="M426.667 789.334q17.667 0 30.167-12.5t12.5-30.167q0-18-12.667-30.333l-225.667-225.667h665q17.667 0 30.167-12.5t12.5-30.167-12.5-30.167-30.167-12.5h-665l225.667-225.667q12.667-12.333 12.667-30.333 0-17.667-12.5-30.167t-30.167-12.5q-18 0-30.333 12.333l-298.667 298.667q-12.333 13-12.333 30.333t12.333 30.333l298.667 298.667q12.667 12.333 30.333 12.333z" />
<glyph unicode="&#xe095;" glyph-name="arrow-right" data-tags="arrow-right" d="M597.334 789.332q18 0 30.333-12.333l298.667-298.667q12.333-12.333 12.333-30.333t-12.333-30.333l-298.667-298.667q-12.333-12.333-30.333-12.333-18.333 0-30.5 12.167t-12.167 30.5q0 18 12.333 30.333l226 225.667h-665q-17.667 0-30.167 12.5t-12.5 30.167 12.5 30.167 30.167 12.5h665l-226 225.667q-12.333 12.333-12.333 30.333 0 18.333 12.167 30.5t30.5 12.167z" />
<glyph unicode="&#xe096;" glyph-name="arrow-up" data-tags="arrow-up" d="M512.001 874.667q18 0 30.333-12.333l298.667-298.667q12.333-12.333 12.333-30.333 0-18.333-12.167-30.5t-30.5-12.167q-18 0-30.333 12.333l-225.667 226v-665q0-17.667-12.5-30.167t-30.167-12.5-30.167 12.5-12.5 30.167v665l-225.667-226q-12.333-12.333-30.333-12.333-18.333 0-30.5 12.167t-12.167 30.5q0 18 12.333 30.333l298.667 298.667q12.333 12.333 30.333 12.333z" />
<glyph unicode="&#xe097;" glyph-name="arrow-down" data-tags="arrow-down" d="M511.999 874.667q17.667 0 30.167-12.5t12.5-30.167v-665l225.667 226q12.333 12.333 30.333 12.333 18.333 0 30.5-12.167t12.167-30.5q0-18-12.333-30.333l-298.667-298.667q-12.333-12.333-30.333-12.333t-30.333 12.333l-298.667 298.667q-12.333 12.333-12.333 30.333 0 18.333 12.167 30.5t30.5 12.167q18 0 30.333-12.333l225.667-226v665q0 17.667 12.5 30.167t30.167 12.5z" />
<glyph unicode="&#xe114;" glyph-name="plus" data-tags="plus" d="M512 874.667q17.667 0 30.167-12.5t12.5-30.167v-341.333h341.333q17.667 0 30.167-12.5t12.5-30.167-12.5-30.167-30.167-12.5h-341.333v-341.333q0-17.667-12.5-30.167t-30.167-12.5-30.167 12.5-12.5 30.167v341.333h-341.333q-17.667 0-30.167 12.5t-12.5 30.167 12.5 30.167 30.167 12.5h341.333v341.333q0 17.667 12.5 30.167t30.167 12.5z" />
<glyph unicode="&#xe115;" glyph-name="minus" data-tags="minus" d="M128 490.667h768q17.667 0 30.167-12.5t12.5-30.167-12.5-30.167-30.167-12.5h-768q-17.667 0-30.167 12.5t-12.5 30.167 12.5 30.167 30.167 12.5z" />
<glyph unicode="&#xe116;" glyph-name="check" data-tags="check" d="M895.999 746.666q18.333 0 30.5-12.167t12.167-30.5q0-18-12.333-30.333l-512-512q-12.333-12.333-30.333-12.333t-30.333 12.333l-256 256q-12.333 12.333-12.333 30.333 0 18.333 12.167 30.5t30.5 12.167q18 0 30.333-12.333l225.667-226 481.667 482q12.333 12.333 30.333 12.333z" />
<glyph unicode="&#xe117;" glyph-name="cross" data-tags="cross" d="M810.666 789.333q18.333 0 30.5-12.167t12.167-30.5q0-18-12.333-30.333l-268.667-268.333 268.667-268.333q12.333-12.333 12.333-30.333 0-18.333-12.167-30.5t-30.5-12.167q-18 0-30.333 12.333l-268.333 268.667-268.333-268.667q-12.333-12.333-30.333-12.333-18.333 0-30.5 12.167t-12.167 30.5q0 18 12.333 30.333l268.667 268.333-268.667 268.333q-12.333 12.333-12.333 30.333 0 18.333 12.167 30.5t30.5 12.167q18 0 30.333-12.333l268.333-268.667 268.333 268.667q12.333 12.333 30.333 12.333z" />
<glyph unicode="&#xe7f6;" glyph-name="repair" data-tags="construction, road-sign" d="M1001.143 692.579v73.364c0 13.507-10.949 24.457-24.457 24.457h-171.192c-0.005 0-0.011 0-0.015 0h-244.556c-0.005 0-0.011 0-0.015 0h-244.556c-0.005 0-0.011 0-0.015 0h-269.021c-13.507 0-24.457-10.95-24.457-24.457v-293.486c0-13.508 10.95-24.457 24.457-24.457h73.371v-293.486h-24.457c-13.507 0-24.457-10.949-24.457-24.457s10.95-24.457 24.457-24.457h195.657c13.507 0 24.457 10.949 24.457 24.457s-10.95 24.457-24.457 24.457h-24.457v146.743h489.143v-146.743h-24.457c-13.508 0-24.457-10.949-24.457-24.457s10.949-24.457 24.457-24.457h195.657c13.508 0 24.457 10.949 24.457 24.457s-10.949 24.457-24.457 24.457h-24.457v293.486h73.371c13.508 0 24.457 10.949 24.457 24.457v220.107c0 0.005 0 0.011 0 0.015zM952.229 702.701l-205.787-205.787h-175.398l244.571 244.571h136.613v-38.785zM326.473 496.914l244.571 244.571h175.398l-244.571-244.571h-175.398zM81.901 496.914l244.571 244.571h175.398l-244.571-244.571h-175.398zM257.299 741.486l-185.527-185.527v185.527h185.527zM169.6 154.514v293.486h48.914v-293.486h-48.914zM267.429 350.171v97.829h489.143v-97.829h-489.143zM854.4 154.514h-48.914v293.486h48.914v-293.486zM815.615 496.914l136.613 136.613v-136.613h-136.613z" />
<glyph unicode="&#xe841;" glyph-name="siren" data-tags="siren" d="M512 629.165c-14.293 0-25.88 11.587-25.88 25.88v155.284c0 14.293 11.587 25.88 25.88 25.88s25.88-11.587 25.88-25.88v-155.284c0-14.293-11.587-25.88-25.88-25.88zM977.853 318.596h-103.522c-14.294 0-25.88 11.586-25.88 25.88s11.586 25.88 25.88 25.88h103.522c14.294 0 25.88-11.586 25.88-25.88s-11.586-25.88-25.88-25.88zM149.67 318.596h-103.522c-14.293 0-25.88 11.586-25.88 25.88s11.587 25.88 25.88 25.88h103.522c14.293 0 25.88-11.586 25.88-25.88s-11.587-25.88-25.88-25.88zM796.688 210.622v82.094c0 156.977-127.71 284.688-284.688 284.688s-284.688-127.71-284.688-284.688v-82.094c-30.123-10.684-51.762-39.454-51.762-73.19 0-42.812 34.83-77.642 77.642-77.642h517.614c42.812 0 77.642 34.83 77.642 77.642 0 33.737-21.64 62.507-51.762 73.19zM512 525.642c128.435 0 232.926-104.491 232.926-232.926v-77.642h-465.853v77.642c0 128.435 104.49 232.926 232.926 232.926zM770.807 111.551h-517.614c-14.27 0-25.88 11.61-25.88 25.88s11.61 25.88 25.88 25.88h517.614c14.27 0 25.88-11.61 25.88-25.88s-11.61-25.88-25.88-25.88zM770.807 551.522c-6.624 0-13.246 2.527-18.3 7.582-10.107 10.106-10.107 26.493 0 36.6l103.522 103.522c10.106 10.107 26.493 10.107 36.6 0s10.107-26.493 0-36.6l-103.522-103.522c-5.055-5.055-11.677-7.582-18.301-7.582zM253.193 551.522c-6.624 0-13.246 2.527-18.3 7.582l-103.522 103.522c-10.107 10.106-10.107 26.493 0 36.6s26.493 10.107 36.6 0l103.522-103.522c10.107-10.106 10.107-26.493 0-36.6-5.055-5.055-11.677-7.582-18.301-7.582z" />
<glyph unicode="&#xe86c;" glyph-name="circle-with-check" data-tags="check_circle" d="M426 234l384 384-60 62-324-324-152 152-60-60zM512 874c236 0 426-190 426-426s-190-426-426-426-426 190-426 426 190 426 426 426z" />
<glyph unicode="&#xe888;" glyph-name="help" data-tags="help" d="M642 480c24 24 40 58 40 96 0 94-76 170-170 170s-170-76-170-170h84c0 46 40 86 86 86s86-40 86-86c0-24-10-44-26-60l-52-54c-30-32-50-74-50-120v-22h84c0 64 20 88 50 120zM554 150v84h-84v-84h84zM512 874c236 0 426-190 426-426s-190-426-426-426-426 190-426 426 190 426 426 426z" />
<glyph unicode="&#xe88e;" glyph-name="info" data-tags="info" d="M554 576v86h-84v-86h84zM554 234v256h-84v-256h84zM512 874c236 0 426-190 426-426s-190-426-426-426-426 190-426 426 190 426 426 426z" />
<glyph unicode="&#xe88f;" glyph-name="info_outline" data-tags="info_outline" d="M470 576v86h84v-86h-84zM512 106c188 0 342 154 342 342s-154 342-342 342-342-154-342-342 154-342 342-342zM512 874c236 0 426-190 426-426s-190-426-426-426-426 190-426 426 190 426 426 426zM470 234v256h84v-256h-84z" />
<glyph unicode="&#xe8fe;" glyph-name="help_outline" data-tags="help_outline" d="M512 704c94 0 170-76 170-170 0-106-128-118-128-214h-84c0 138 128 128 128 214 0 46-40 84-86 84s-86-38-86-84h-84c0 94 76 170 170 170zM512 106c188 0 342 154 342 342s-154 342-342 342-342-154-342-342 154-342 342-342zM512 874c236 0 426-190 426-426s-190-426-426-426-426 190-426 426 190 426 426 426zM470 192v86h84v-86h-84z" />
<glyph unicode="&#xe900;" glyph-name="ic_home_n" data-tags="ic_home_n" d="M512.002 843.315l441.363-397.228c13.708-12.335 14.82-33.448 2.481-47.155-12.335-13.708-33.448-14.82-47.155-2.481l-396.688 357.018-396.693-357.022c-13.707-12.335-34.82-11.222-47.157 2.486s-11.225 34.821 2.482 47.155l441.368 397.228zM218.79 547.406c18.441 0 33.391-14.95 33.391-33.391v-394.547h128.764v177.534h262.329v-177.534h128.763v394.547c0 18.441 14.95 33.391 33.392 33.391s33.392-14.95 33.392-33.391v-461.33h-262.33v177.538h-128.763v-177.538h-262.329v461.33c0 18.441 14.95 33.391 33.392 33.391z" />
<glyph unicode="&#xe901;" glyph-name="ic_back_n" data-tags="ic_back_n" d="M65.454 447.999c0 19.279 15.629 34.909 34.909 34.909h837.818c19.279 0 34.909-15.63 34.909-34.909s-15.63-34.909-34.909-34.909h-837.818c-19.28 0-34.909 15.63-34.909 34.909zM474.053 821.774c13.633-13.633 13.633-35.736 0-49.369l-324.407-324.406 324.407-324.408c13.633-13.633 13.633-35.733 0-49.366s-35.737-13.633-49.369 0l-373.775 373.774 373.775 373.775c13.633 13.633 35.736 13.633 49.369 0z" />
<glyph unicode="&#xe902;" glyph-name="ic_refresh_n" data-tags="ic_refresh_n" d="M442.074 785.455c-157.043 0-314.074-120.189-314.074-314.159 0-160.498 129.878-314.205 314.074-314.205h23.381c19.279 0 34.909-15.63 34.909-34.909s-15.63-34.909-34.909-34.909h-23.381c-226.284 0-383.892 188.588-383.892 384.023 0 237.939 193.93 383.977 383.892 383.977 239.193 0 384.103-203.902 384.103-383.977v-46.569c0-19.279-15.63-34.909-34.909-34.909s-34.909 15.63-34.909 34.909v46.569c0 148.435-120.222 314.159-314.285 314.159zM626.953 519.23c13.633 13.633 35.733 13.633 49.366 0l114.953-114.95 114.953 114.95c13.633 13.633 35.733 13.633 49.366 0s13.633-35.734 0-49.368l-164.319-164.324-164.319 164.324c-13.633 13.633-13.633 35.735 0 49.368z" />
<glyph unicode="&#xe903;" glyph-name="ic_counsel_n" data-tags="ic_counsel_n" d="M773.562 253.635c19.279 0 34.909-15.63 34.909-34.909 0-62.003-18.879-105.602-50.255-133.050-30.422-26.619-67.198-33.28-94.175-33.28h-197.134c-19.277 0-34.907 15.63-34.907 34.909s15.629 34.909 34.907 34.909h197.134c16.835 0 34.816 4.291 48.202 16.002 12.432 10.882 26.41 32.996 26.41 80.51 0 19.279 15.63 34.909 34.909 34.909zM327.94 816.342c61.605 38.338 134.203 50.999 183.040 50.556 107.711-0.977 182.979-40.523 231.033-94.178 47.104-52.593 66.402-116.915 66.402-166.134v-379.677h-69.818v379.677c0 32.947-13.554 80.433-48.589 119.554-34.090 38.059-90.238 70.131-179.661 70.942-38.782 0.352-97.604-10.2-145.518-40.018-46.129-28.707-82.102-74.83-82.102-150.479v-379.677h-69.818v379.677c0 103.33 51.641 170.307 115.031 209.756zM837.818 599.273c51.414 0 93.091-44.13 93.091-98.567v-175.232c0-54.435-41.677-98.565-93.091-98.565h-93.091v65.713h93.091c17.138 0 31.032 14.708 31.032 32.852v175.232c0 18.146-13.894 32.856-31.032 32.856h-93.091v65.711h93.091zM186.182 599.273c-51.413 0-93.091-44.13-93.091-98.567v-175.232c0-54.435 41.678-98.565 93.091-98.565h93.091v65.713h-93.091c-17.138 0-31.030 14.708-31.030 32.852v175.232c0 18.146 13.893 32.856 31.030 32.856h93.091v65.711h-93.091z" />
<glyph unicode="&#xe904;" glyph-name="user" data-tags="user" d="M896 64v85.333c0 58.88-23.936 112.299-62.464 150.869s-91.989 62.464-150.869 62.464h-341.333c-58.88 0-112.299-23.936-150.869-62.464s-62.464-91.989-62.464-150.869v-85.333c0-23.552 19.115-42.667 42.667-42.667s42.667 19.115 42.667 42.667v85.333c0 35.371 14.293 67.285 37.504 90.496s55.125 37.504 90.496 37.504h341.333c35.371 0 67.285-14.293 90.496-37.504s37.504-55.125 37.504-90.496v-85.333c0-23.552 19.115-42.667 42.667-42.667s42.667 19.115 42.667 42.667zM725.333 661.333c0 58.88-23.936 112.299-62.464 150.869s-91.989 62.464-150.869 62.464-112.299-23.936-150.869-62.464-62.464-91.989-62.464-150.869 23.936-112.299 62.464-150.869 91.989-62.464 150.869-62.464 112.299 23.936 150.869 62.464 62.464 91.989 62.464 150.869zM640 661.333c0-35.371-14.293-67.285-37.504-90.496s-55.125-37.504-90.496-37.504-67.285 14.293-90.496 37.504-37.504 55.125-37.504 90.496 14.293 67.285 37.504 90.496 55.125 37.504 90.496 37.504 67.285-14.293 90.496-37.504 37.504-55.125 37.504-90.496z" />
<glyph unicode="&#xe905;" glyph-name="ic_end_n" data-tags="ic_end_n" d="M501.197 435.402c-13.629 13.638-35.733 13.647-49.37 0.019-13.637-13.633-13.643-35.733-0.014-49.371l49.385 49.352zM595.186 320.263l-17.254-30.348c13.661-7.764 30.822-5.446 41.933 5.66l-24.678 24.688zM712.82 380.111l-12.279-32.68 0.079-0.028 12.2 32.707zM810.622 355.754l4.883 34.565-0.321 0.047-4.561-34.611zM870.484 286.168l-34.909 0.34v-0.34h34.909zM870.484 181.786h-34.909v-0.14l34.909 0.14zM794.61 112.2l-3.77-34.709 0.628-0.061 3.142 34.769zM403.052 336.586c-13.627 13.642-35.731 13.647-49.369 0.023-13.638-13.629-13.648-35.733-0.020-49.371l49.389 49.347zM256.201 409.244c10.492-16.175 32.11-20.778 48.285-10.287s20.781 32.107 10.289 48.282l-58.574-37.995zM178.64 728.51l-34.773-3.143 0.068-0.629 34.705 3.772zM247.899 804.36v34.909h-0.033l0.033-34.909zM352.31 804.36v-34.911l0.344 0.003-0.344 34.908zM421.918 744.515l34.611 4.566-0.046 0.321-34.565-4.887zM446.281 646.746l-32.705-12.207 0.030-0.079 32.675 12.286zM361.737 553.832c-13.635-13.631-13.638-35.734-0.007-49.369s35.734-13.638 49.369-0.007l-49.362 49.376zM451.812 386.050c37.534-37.558 79.956-69.893 126.12-96.135l34.504 60.695c-40.718 23.147-78.136 51.67-111.239 84.792l-49.385-49.352zM700.621 347.404c34.043-12.702 69.413-21.509 105.435-26.261l9.128 69.222c-30.804 4.059-61.049 11.59-90.159 22.454l-24.404-65.415zM805.734 321.189c17.254-2.439 30.013-17.282 29.84-34.681l69.814-0.684c0.517 52.457-37.944 97.154-89.884 104.495l-9.77-69.129zM835.575 286.168v-104.383h69.818v104.383h-69.818zM835.575 181.646c0.079-19.838-18.041-36.468-37.823-34.681l-6.284-69.534c60.733-5.488 114.171 43.473 113.925 104.499l-69.818-0.284zM619.864 295.575c19.214 19.209 31.19 34.192 46.932 45.289 12.861 9.067 22.16 10.92 33.745 6.568l24.557 65.354c-39.843 14.974-73.411 2.853-98.537-14.862-22.244-15.681-43.371-40.285-56.059-52.973l49.361-49.375zM798.38 146.904c-148.112 16.091-289.992 84.261-395.329 189.682l-49.389-49.347c116.554-116.648 273.184-191.93 437.177-209.743l7.54 69.409zM314.774 447.239c-55.643 85.78-90.383 183.408-101.43 285.043l-69.41-7.544c12.227-112.495 50.679-220.553 112.266-315.494l58.574 37.995zM247.899 769.451h104.411v69.818h-104.411v-69.818zM352.654 769.453c17.425 0.172 32.263-12.596 34.699-29.824l69.131 9.774c-7.344 51.943-52.064 90.381-104.516 89.865l0.687-69.815zM387.309 739.949c4.751-36.015 13.563-71.377 26.267-105.411l65.409 24.415c-10.864 29.1-18.396 59.335-22.458 90.128l-69.218-9.132zM413.605 634.46c4.352-11.573 2.5-20.862-6.569-33.717-11.101-15.735-26.086-27.703-45.299-46.91l49.362-49.376c12.681 12.678 37.295 33.798 52.986 56.037 17.721 25.119 29.855 58.689 14.872 98.539l-65.352-24.573zM213.407 731.653c-1.78 19.689 14.728 37.78 34.525 37.798l-0.066 69.818c-60.776-0.057-109.469-53.329-103.994-113.902l69.535 6.285zM862.445 829.048c13.633-13.633 13.633-35.736 0-49.369l-698.125-698.125c-13.633-13.633-35.736-13.633-49.369 0s-13.633 35.738 0 49.371l698.123 698.123c13.633 13.633 35.738 13.633 49.371 0z" />
<glyph unicode="&#xe906;" glyph-name="users" data-tags="users" d="M768 64v85.333c0 58.88-23.936 112.299-62.464 150.869s-91.989 62.464-150.869 62.464h-341.333c-58.88 0-112.299-23.936-150.869-62.464s-62.464-91.989-62.464-150.869v-85.333c0-23.552 19.115-42.667 42.667-42.667s42.667 19.115 42.667 42.667v85.333c0 35.371 14.293 67.285 37.504 90.496s55.125 37.504 90.496 37.504h341.333c35.371 0 67.285-14.293 90.496-37.504s37.504-55.125 37.504-90.496v-85.333c0-23.552 19.115-42.667 42.667-42.667s42.667 19.115 42.667 42.667zM597.333 661.333c0 58.88-23.936 112.299-62.464 150.869s-91.989 62.464-150.869 62.464-112.299-23.936-150.869-62.464-62.464-91.989-62.464-150.869 23.936-112.299 62.464-150.869 91.989-62.464 150.869-62.464 112.299 23.936 150.869 62.464 62.464 91.989 62.464 150.869zM512 661.333c0-35.371-14.293-67.285-37.504-90.496s-55.125-37.504-90.496-37.504-67.285 14.293-90.496 37.504-37.504 55.125-37.504 90.496 14.293 67.285 37.504 90.496 55.125 37.504 90.496 37.504 67.285-14.293 90.496-37.504 37.504-55.125 37.504-90.496zM1024 64v85.333c-0.043 53.12-19.499 101.76-51.84 139.136-27.819 32.128-65.195 55.936-107.904 67.243-22.784 6.016-46.123-7.552-52.139-30.336s7.552-46.123 30.336-52.139c25.899-6.869 48.469-21.248 65.195-40.619 19.371-22.443 30.976-51.456 31.019-83.285v-85.333c0-23.552 19.115-42.667 42.667-42.667s42.667 19.115 42.667 42.667zM672.085 785.109c34.261-8.789 61.653-30.507 78.379-58.752s22.656-62.72 13.867-96.981c-7.509-29.355-24.533-53.589-47.147-70.485-13.397-10.027-28.8-17.451-45.355-21.803-22.784-5.973-36.437-29.312-30.421-52.096s29.312-36.437 52.096-30.421c27.179 7.125 52.565 19.413 74.752 36.011 37.717 28.16 66.219 68.821 78.72 117.675 14.592 57.045 4.693 114.731-23.125 161.621s-73.6 83.328-130.645 97.963c-22.827 5.845-46.080-7.936-51.925-30.763s7.936-46.080 30.763-51.925z" />
<glyph unicode="&#xe907;" glyph-name="ic_callEnd_n" data-tags="ic_callEnd_n" d="M453.83 129.69l370.238 641.263c9.095 15.754 3.696 35.898-12.055 44.993-15.756 9.095-35.901 3.698-44.995-12.056l-370.236-641.264c-9.095-15.751-3.698-35.896 12.056-44.991s35.897-3.7 44.993 12.055zM575.497 601.083c-20.15 0.54-41.295 0.826-63.483 0.826-159.763 0-265.609-14.756-333.509-34.211-33.913-9.719-59.498-20.926-77.859-32.884-17.122-11.146-32.921-26.209-37.79-45.686l-0.19-0.759-29.991-149.955h0.064l-7.954-39.852c-9.489-47.546 26.881-91.895 75.366-91.895h162.398c47.491 0 83.615 42.64 75.807 89.488l-7.043 42.259h92.527l38.036 65.876h-208.324l19.827-118.966c1.115-6.693-4.045-12.781-10.83-12.781h-162.398c-6.926 0-12.122 6.335-10.766 13.126l37.065 185.726c0.954 1.117 3.677 4.012 10.143 8.22 11.143 7.256 30.112 16.176 60.057 24.758 59.815 17.14 158.925 31.663 315.336 31.663 8.792 0 17.436-0.044 25.875-0.136l37.637 65.185zM549.809 404.289h220.639l-19.824-118.966c-1.117-6.693 4.045-12.781 10.826-12.781h162.397c6.926 0 12.125 6.335 10.766 13.126l-15.816 79.234-7.857 39.387-13.391 67.105c-0.954 1.117-3.677 4.012-10.142 8.22-11.143 7.256-30.11 16.176-60.058 24.758-44.023 12.613-109.331 23.811-203.106 28.844l36.762 63.674c80.389-5.92 140.423-16.565 184.488-29.191 33.913-9.719 59.499-20.926 77.861-32.884 17.124-11.146 32.917-26.209 37.79-45.686l0.186-0.759 29.994-149.955h-0.065l7.955-39.852c9.491-47.546-26.88-91.895-75.366-91.895h-162.397c-47.49 0-83.614 42.64-75.804 89.488l7.038 42.259h-180.913l38.037 65.876z" />
<glyph unicode="&#xe908;" glyph-name="filter" data-tags="filter" d="M846.72 789.333l-281.984-333.397c-6.272-7.381-10.069-17.024-10.069-27.563v-295.339l-85.333 42.667v252.672c0.043 9.685-3.285 19.499-10.069 27.563l-281.984 333.397zM938.667 874.667h-853.333c-23.552 0-42.667-19.115-42.667-42.667 0-10.539 3.797-20.181 10.069-27.563l331.264-391.68v-263.424c0-16.597 9.472-31.019 23.595-38.144l170.667-85.333c21.077-10.539 46.72-2.005 57.259 19.072 3.072 6.229 4.523 12.843 4.48 19.072v348.757l331.264 391.68c15.232 18.005 12.971 44.928-5.035 60.117-8.064 6.827-17.877 10.155-27.563 10.112z" />
<glyph unicode="&#xe909;" d="M780.968 222.669c27.010 0 48.91-21.9 48.91-48.91s-21.9-48.91-48.91-48.91c-27.010 0-48.91 21.9-48.91 48.91s21.9 48.91 48.91 48.91zM780.968 275.153c-55.999 0-101.395-45.396-101.395-101.395s45.396-101.395 101.395-101.395c55.999 0 101.395 45.396 101.395 101.395s-45.396 101.395-101.395 101.395z" />
<glyph unicode="&#xe90a;" d="M512.605 222.669c27.010 0 48.91-21.9 48.91-48.91s-21.9-48.91-48.91-48.91c-27.010 0-48.909 21.9-48.909 48.91s21.899 48.91 48.909 48.91zM512.605 275.153c-56 0-101.396-45.396-101.396-101.395s45.396-101.395 101.396-101.395c55.999 0 101.395 45.396 101.395 101.395s-45.396 101.395-101.395 101.395z" />
<glyph unicode="&#xe90b;" glyph-name="play_outline" data-tags="play" d="M236.416 867.89c-6.528 4.267-14.507 6.784-23.083 6.784-23.552 0-42.667-19.115-42.667-42.667v-768c-0.043-7.765 2.133-15.872 6.784-23.083 12.757-19.84 39.125-25.557 58.965-12.8l597.333 384c4.864 3.072 9.344 7.424 12.8 12.8 12.757 19.84 6.997 46.208-12.8 58.965zM256 753.842l475.776-305.835-475.776-305.835z" />
<glyph unicode="&#xe90c;" glyph-name="pause_outline" data-tags="pause" d="M256 832c-23.552 0-42.667-19.115-42.667-42.667v-682.667c0-23.552 19.115-42.667 42.667-42.667h170.667c23.552 0 42.667 19.115 42.667 42.667v682.667c0 23.552-19.115 42.667-42.667 42.667zM298.667 746.667h85.333v-597.333h-85.333zM597.333 832c-23.552 0-42.667-19.115-42.667-42.667v-682.667c0-23.552 19.115-42.667 42.667-42.667h170.667c23.552 0 42.667 19.115 42.667 42.667v682.667c0 23.552-19.115 42.667-42.667 42.667zM640 746.667h85.333v-597.333h-85.333z" />
<glyph unicode="&#xe90d;" d="M32 880c0 26.509 21.491 48 48 48h864c26.507 0 48-21.491 48-48v-864c0-26.507-21.493-48-48-48h-864c-26.509 0-48 21.493-48 48v864z" />
<glyph unicode="&#xe90e;" d="M516.055 208.553c202.134 0 366.001 126.293 366.001 282.081s-163.866 282.080-366.001 282.080c-202.137 0-366.001-126.29-366.001-282.080 0-103.474 72.287-193.935 180.065-243.023l-34.143-117.283c-0.796-7.903 1.436-21.81 16.746-14.22l142.56 96.313c19.766-2.544 40.068-3.87 60.771-3.87z" />
<glyph unicode="&#xe90f;" d="M482.672 378.284c-6.475-4.085-15.441-7.689-26.903-10.814-11.457-3.123-24.285-4.686-38.484-4.686-16.691 0-30.888 2.043-42.596 6.127-11.457 4.085-20.924 9.974-28.395 17.661-7.224 7.931-12.455 17.543-15.693 28.837-3.237 11.535-4.857 24.751-4.857 39.649 0 33.404 8.22 58.034 24.66 73.893 16.691 16.101 41.351 24.151 73.981 24.151 13.203 0 25.284-2.044 36.243-6.129s19.679-9.732 26.156-16.94l-24.287-22.708c-9.963 11.055-23.040 16.58-39.231 16.58-17.934 0-31.635-5.406-41.099-16.219-9.219-10.815-13.826-28.477-13.826-52.987 0-19.705 3.861-35.085 11.584-46.139 7.969-11.055 21.795-16.58 41.475-16.58 10.961 0 20.424 1.081 28.395 3.243 8.22 2.404 16.44 5.649 24.66 9.734l8.22-26.675z" />
<glyph unicode="&#xe910;" d="M624.872 362.779v112.067c0 6.081-0.336 11.802-1.007 17.156s-2.014 9.977-4.030 13.872-4.926 6.936-8.732 9.126c-3.804 2.191-8.84 3.285-15.109 3.285-7.163 0-13.766-0.975-19.811-2.922-5.821-1.946-10.967-4.624-15.446-8.030l-6.715-4.745v-139.811h-37.944v273.049l37.944 5.111v-105.86c5.148 3.894 10.744 6.693 16.788 8.396 12.984 4.866 25.071 7.3 36.263 7.3s20.371-1.58 27.536-4.746c7.164-2.921 12.756-7.302 16.787-13.141 4.254-5.597 7.164-12.533 8.73-20.806s2.353-17.766 2.353-28.474v-120.827h-37.608z" />
<glyph unicode="&#xe911;" glyph-name="bookmark" data-tags="bookmark" d="M785.877 29.269c6.869-4.949 15.488-7.936 24.789-7.936 23.552 0 42.667 19.115 42.667 42.667v682.667c0 35.328-14.379 67.413-37.504 90.496s-55.168 37.504-90.496 37.504h-426.667c-35.328 0-67.413-14.379-90.496-37.504s-37.504-55.168-37.504-90.496v-682.667c-0.043-8.491 2.56-17.237 7.936-24.789 13.696-19.157 40.363-23.637 59.52-9.899l273.877 195.584zM768 146.901l-231.211 165.163c-15.147 10.837-34.944 10.325-49.579 0l-231.211-165.163v599.765c0 11.776 4.736 22.4 12.501 30.165s18.389 12.501 30.165 12.501h426.667c11.776 0 22.4-4.736 30.165-12.501s12.501-18.389 12.501-30.165z" />
<glyph unicode="&#xe912;" glyph-name="file-text" data-tags="file-text" d="M750.335 661.333h-110.336v110.336zM883.498 648.832l-256 256c-3.925 3.925-8.619 7.083-13.824 9.259s-10.795 3.243-16.341 3.243h-341.333c-35.328 0-67.413-14.379-90.496-37.504s-37.504-55.168-37.504-90.496v-682.667c0-35.328 14.379-67.413 37.504-90.496s55.168-37.504 90.496-37.504h512c35.328 0 67.413 14.379 90.496 37.504s37.504 55.168 37.504 90.496v512c0 11.776-4.779 22.443-12.501 30.165zM554.666 832v-213.333c0-23.552 19.115-42.667 42.667-42.667h213.333v-469.333c0-11.776-4.736-22.4-12.501-30.165s-18.389-12.501-30.165-12.501h-512c-11.776 0-22.4 4.736-30.165 12.501s-12.501 18.389-12.501 30.165v682.667c0 11.776 4.736 22.4 12.501 30.165s18.389 12.501 30.165 12.501zM682.666 448h-341.333c-23.552 0-42.667-19.115-42.667-42.667s19.115-42.667 42.667-42.667h341.333c23.552 0 42.667 19.115 42.667 42.667s-19.115 42.667-42.667 42.667zM682.666 277.333h-341.333c-23.552 0-42.667-19.115-42.667-42.667s19.115-42.667 42.667-42.667h341.333c23.552 0 42.667 19.115 42.667 42.667s-19.115 42.667-42.667 42.667zM426.666 618.667h-85.333c-23.552 0-42.667-19.115-42.667-42.667s19.115-42.667 42.667-42.667h85.333c23.552 0 42.667 19.115 42.667 42.667s-19.115 42.667-42.667 42.667z" />
<glyph unicode="&#xe913;" d="M244.241 222.669c27.011 0 48.909-21.9 48.909-48.91s-21.897-48.91-48.909-48.91c-27.012 0-48.909 21.9-48.909 48.91s21.897 48.91 48.909 48.91zM244.241 275.153c-55.999 0-101.396-45.396-101.396-101.395s45.396-101.395 101.396-101.395c55.999 0 101.396 45.396 101.396 101.395s-45.396 101.395-101.396 101.395z" />
<glyph unicode="&#xe914;" d="M780.968 493.484c27.010 0 48.91-21.895 48.91-48.905 0-27.015-21.9-48.91-48.91-48.91s-48.91 21.895-48.91 48.91c0 27.010 21.9 48.905 48.91 48.905zM780.968 545.974c-55.999 0-101.395-45.397-101.395-101.395s45.396-101.399 101.395-101.399c55.999 0 101.395 45.4 101.395 101.399s-45.396 101.395-101.395 101.395z" />
<glyph unicode="&#xe915;" d="M512.605 493.484c27.010 0 48.91-21.895 48.91-48.905 0-27.015-21.9-48.91-48.91-48.91s-48.909 21.895-48.909 48.91c0 27.010 21.899 48.905 48.909 48.905zM512.605 545.974c-56 0-101.396-45.397-101.396-101.395s45.396-101.399 101.396-101.399c55.999 0 101.395 45.4 101.395 101.399s-45.396 101.395-101.395 101.395z" />
<glyph unicode="&#xe916;" d="M244.241 493.484c27.011 0 48.909-21.895 48.909-48.905 0-27.015-21.897-48.91-48.909-48.91s-48.909 21.895-48.909 48.91c0 27.010 21.897 48.905 48.909 48.905zM244.241 545.974c-55.999 0-101.396-45.397-101.396-101.395s45.396-101.399 101.396-101.399c55.999 0 101.396 45.4 101.396 101.399s-45.396 101.395-101.396 101.395z" />
<glyph unicode="&#xe917;" d="M780.423 763.759c27.010 0 48.91-21.897 48.91-48.909s-21.9-48.909-48.91-48.909c-27.010 0-48.91 21.897-48.91 48.909s21.9 48.909 48.91 48.909zM780.423 816.246c-55.999 0-101.395-45.397-101.395-101.396s45.396-101.396 101.395-101.396c55.999 0 101.395 45.396 101.395 101.396s-45.396 101.396-101.395 101.396z" />
<glyph unicode="&#xe918;" d="M512.605 763.759c27.010 0 48.91-21.897 48.91-48.909s-21.9-48.909-48.91-48.909c-27.010 0-48.909 21.897-48.909 48.909s21.899 48.909 48.909 48.909zM512.605 816.246c-56 0-101.396-45.397-101.396-101.396s45.396-101.396 101.396-101.396c55.999 0 101.395 45.396 101.395 101.396s-45.396 101.396-101.395 101.396z" />
<glyph unicode="&#xe919;" d="M226.193 801.858c33.969 0 61.506-27.537 61.506-61.506s-27.537-61.506-61.506-61.506c-33.968 0-61.506 27.537-61.506 61.506s27.537 61.506 61.506 61.506zM226.193 873.432c-73.498 0-133.079-59.582-133.079-133.080s59.581-133.079 133.079-133.079c73.498 0 133.080 59.581 133.080 133.079s-59.581 133.080-133.080 133.080z" />
<glyph unicode="&#xe91a;" glyph-name="ic_voice_n" data-tags="ic_voice_n" d="M512 855.455c-64.266 0-116.364-52.098-116.364-116.364v-279.273c0-64.265 52.098-116.364 116.364-116.364s116.364 52.098 116.364 116.364v279.273c0 64.266-52.098 116.364-116.364 116.364zM325.818 739.091c0 102.825 83.356 186.182 186.182 186.182 102.824 0 186.182-83.356 186.182-186.182v-279.273c0-102.824-83.358-186.182-186.182-186.182s-186.182 83.358-186.182 186.182v279.273zM232.727 541.273c19.28 0 34.909-15.629 34.909-34.909v-46.546c0-134.959 109.405-244.364 244.364-244.364s244.364 109.405 244.364 244.364v46.546c0 19.28 15.63 34.909 34.909 34.909s34.909-15.629 34.909-34.909v-46.546c0-173.517-140.665-314.182-314.182-314.182s-314.182 140.665-314.182 314.182v46.546c0 19.28 15.629 34.909 34.909 34.909zM512 203.818c19.279 0 34.909-15.63 34.909-34.909v-162.909c0-19.279-15.63-34.909-34.909-34.909s-34.909 15.63-34.909 34.909v162.909c0 19.279 15.63 34.909 34.909 34.909zM337.455 6c0 19.279 15.629 34.909 34.909 34.909h279.273c19.279 0 34.909-15.63 34.909-34.909s-15.63-34.909-34.909-34.909h-279.273c-19.28 0-34.909 15.63-34.909 34.909z" />
<glyph unicode="&#xe91b;" glyph-name="ic_kakao_n" data-tags="ic_kakao_n" d="M236.084 56.567l49.869 163.887 166.236-65.555c-44.329-27.313-142.963-88.497-182.857-114.721-39.898-26.224-38.79 0-33.248 16.389zM512 132.031c-244.209 0-442.182 154.089-442.182 344.166 0 190.076 197.973 344.166 442.182 344.166s442.182-154.090 442.182-344.166c0-190.078-197.972-344.166-442.182-344.166zM662.565 455.554v-146.697h54.025v158.166c0 14.019-1.126 26.442-3.379 37.274-2.248 10.832-6.428 19.911-12.539 27.238-5.79 7.646-13.829 13.38-24.12 17.203-10.291 4.141-23.478 6.212-39.554 6.212-16.081 0-33.448-3.186-52.098-9.557-8.681-2.23-16.724-5.894-24.12-10.99v138.577l-54.509-6.69v-357.432h54.509v183.017l9.649 6.211c6.433 4.46 13.829 7.964 22.188 10.513 8.685 2.549 18.171 3.823 28.463 3.823 9.002 0 16.24-1.434 21.704-4.3 5.469-2.867 9.649-6.85 12.544-11.946s4.822-11.152 5.79-18.157c0.963-7.010 1.448-14.494 1.448-22.463zM426.096 309.332c14.793 4.143 26.372 8.923 34.732 14.336l-10.612 35.361c-10.613-5.413-21.225-9.714-31.838-12.898-10.291-2.867-22.511-4.301-36.661-4.301-25.405 0-43.253 7.326-53.544 21.979-9.969 14.653-14.954 35.044-14.954 61.165 0 32.493 5.949 55.91 17.848 70.244 12.221 14.336 29.908 21.504 53.062 21.504 20.903 0 37.787-7.327 50.65-21.981l31.355 30.105c-8.36 9.557-19.619 17.043-33.767 22.459-14.15 5.416-29.747 8.124-46.791 8.124-42.128 0-73.965-10.672-95.511-32.016-21.225-21.026-31.837-53.679-31.837-97.958 0-19.754 2.090-37.274 6.271-52.564 4.181-14.974 10.934-27.718 20.26-38.228 9.648-10.198 21.868-17.999 36.661-23.417 15.115-5.413 33.445-8.122 54.991-8.122 18.331 0 34.892 2.071 49.685 6.209z" />
<glyph unicode="&#xe91c;" glyph-name="ic_chat0_n" data-tags="ic_chat_kakao_n" d="M224.264 808.727c-40.312 0-72.992-32.68-72.992-72.992v-575.47c0-40.313 32.68-72.993 72.992-72.993h575.47c40.313 0 72.993 32.68 72.993 72.993v575.47c0 40.312-32.68 72.992-72.993 72.992h-575.47zM81.455 735.736c0 78.872 63.938 142.81 142.81 142.81h575.47c78.871 0 142.811-63.938 142.811-142.81v-575.47c0-78.871-63.939-142.811-142.811-142.811h-575.47c-78.872 0-142.81 63.939-142.81 142.811v575.47zM374.732 331.906l-15.567-80.496 89.024 56.204 21.063-2.918c13.852-1.922 28.174-2.932 42.85-2.932 141.238 0 229.562 86.91 229.562 165.618 0 78.71-88.325 165.619-229.562 165.619-141.234 0-229.557-86.909-229.557-165.619 0-40.802 21.41-81.548 63.469-113.594l28.718-21.881zM325.773 161.527c-21.968-13.396-38.038-4.999-40.539 14.019l25.52 131.961c-53.311 40.62-86.39 97.247-86.39 159.874 0 123.603 128.827 223.8 287.739 223.8 158.92 0 287.744-100.197 287.744-223.8 0-123.601-128.824-223.8-287.744-223.8-17.343 0-34.337 1.196-50.836 3.482l-135.493-85.537z" />
<glyph unicode="&#xe91d;" d="M23.273 719.532c0 81.394 65.983 147.377 147.376 147.377h511.926c81.389 0 147.377-65.982 147.377-147.377v-38.805h-46.545v38.805c0 55.687-45.144 100.831-100.831 100.831h-511.926c-55.687 0-100.831-45.144-100.831-100.831v-310.258c0-55.687 45.144-100.831 100.831-100.831h62.078v-46.545h-62.078c-81.394 0-147.376 65.987-147.376 147.377v310.258z" />
<glyph unicode="&#xe91e;" d="M341.559 665.364c-55.716 0-100.831-45.116-100.831-100.827v-310.263c0-55.715 45.116-100.831 100.831-100.831h209.428v-87.184l124.514 87.184h177.985c55.715 0 100.831 45.117 100.831 100.831v310.263c0 55.711-45.117 100.827-100.831 100.827h-511.926zM194.182 564.536c0 81.419 65.955 147.373 147.377 147.373h511.926c81.417 0 147.377-65.954 147.377-147.373v-310.263c0-81.417-65.96-147.377-147.377-147.377h-163.309l-124.695-87.315c-25.903-18.115-61.040 1.233-61.040 31.786v55.529h-162.882c-81.422 0-147.377 65.96-147.377 147.377v310.263z" />
<glyph unicode="&#xe91f;" d="M442.055 362.705c21.42 0 38.783 17.366 38.783 38.786s-17.363 38.782-38.783 38.782c-21.416 0-38.783-17.361-38.783-38.782s17.367-38.786 38.783-38.786z" />
<glyph unicode="&#xe920;" d="M597.327 362.705c21.416 0 38.782 17.366 38.782 38.786s-17.366 38.782-38.782 38.782c-21.42 0-38.782-17.361-38.782-38.782s17.361-38.786 38.782-38.786z" />
<glyph unicode="&#xe921;" glyph-name="hand-index" data-tags="hand-index" d="M432 896c26.51 0 48-21.49 48-48v0-400c0-17.673 14.327-32 32-32s32 14.327 32 32v0 162.112l5.504 0.256c20.288 0.768 40.768 0.512 52.224-1.728 8.576-1.728 18.816-6.144 28.672-11.648 4.928-2.688 9.6-9.408 9.6-20.096v-128.896c0-17.673 14.327-32 32-32s32 14.327 32 32v0 100.16c0.937 0.13 3.273 0.358 5.617 0.559l1.167 0.081c20.224 1.536 37.376 0.64 45.312-2.56 7.552-2.944 19.2-13.248 31.104-27.52 5.184-6.144 9.6-12.16 12.8-16.576v-86.144c0-17.673 14.327-32 32-32s32 14.327 32 32v0 64h21.888c0 0 0.001 0 0.001 0 35.346 0 64-28.654 64-64 0-2.254-0.117-4.481-0.344-6.675l0.023 0.275-17.344-173.76c-2.432-23.643-9.66-45.159-20.699-64.191l0.411 0.767-89.28-156.288c-5.617-9.701-15.946-16.124-27.775-16.128h-408.641c-11.061 0.006-20.808 5.622-26.551 14.158l-0.073 0.114-91.712 137.6c-8.161 12.076-13.711 26.557-15.51 42.18l-0.042 0.444-22.080 198.72c-0.127 1.069-0.199 2.308-0.199 3.563 0 15.456 10.958 28.353 25.528 31.345l0.207 0.035 64.192 12.8v-56.96c0-17.673 14.327-32 32-32s32 14.327 32 32v0 464c0 26.51 21.49 48 48 48v0zM544 674.176v173.824c0 61.856-50.144 112-112 112s-112-50.144-112-112v0-341.76l-76.8-15.36c-44.294-9.114-77.128-47.786-77.128-94.127 0-3.726 0.212-7.403 0.626-11.019l-0.041 0.442 22.080-198.784c3.069-26.779 12.319-50.914 26.281-71.608l-0.361 0.568 91.712-137.6c17.46-25.924 46.701-42.75 79.872-42.752h408.64c35.49 0.012 66.477 19.28 83.082 47.923l0.246 0.461 89.28 156.224c14.897 25.6 25.023 55.76 28.336 87.939l0.080 0.957 17.344 173.76c0.404 3.819 0.635 8.251 0.635 12.736 0 70.691-57.305 127.997-127.995 128h-37.184c-4.556 6.163-8.647 11.331-12.887 16.369l0.407-0.497c-12.224 14.656-32.64 36.352-56.32 45.824-23.296 9.344-54.144 8.448-74.112 6.912l-8.448-0.768c-7.026 17.661-19.556 31.886-35.439 40.879l-0.401 0.209c-13.608 7.999-29.376 14.35-46.097 18.211l-1.135 0.221c-19.84 3.968-47.296 3.712-67.2 2.944l-3.072-0.128z" />
<glyph unicode="&#xe922;" glyph-name="hand-index-thumb" data-tags="hand-index-thumb" d="M432 896c26.51 0 48-21.49 48-48v0-400c0-17.673 14.327-32 32-32s32 14.327 32 32v0 162.112l5.504 0.256c20.288 0.768 40.768 0.512 52.224-1.728 8.576-1.728 18.816-6.144 28.672-11.648 4.928-2.688 9.6-9.408 9.6-20.096v-128.896c0-17.673 14.327-32 32-32s32 14.327 32 32v0 100.16l6.784 0.64c20.224 1.536 37.376 0.64 45.312-2.56 7.552-2.944 19.2-13.248 31.104-27.52 5.184-6.144 9.6-12.16 12.8-16.576v-86.144c0-17.673 14.327-32 32-32s32 14.327 32 32v0 64h21.888c0 0 0.001 0 0.001 0 35.346 0 64-28.654 64-64 0-2.254-0.117-4.481-0.344-6.675l0.023 0.275-17.344-173.76c-2.432-23.643-9.66-45.159-20.699-64.191l0.411 0.767-89.28-156.288c-5.617-9.701-15.946-16.124-27.775-16.128h-403.329c-12.446 0-23.233 7.106-28.524 17.483l-0.084 0.181-78.848 157.76-160.768 267.84c-2.934 4.842-4.671 10.693-4.671 16.949 0 18.274 14.814 33.088 33.088 33.088 9.118 0 17.375-3.688 23.36-9.654l154.239-154.239c5.794-5.808 13.805-9.401 22.656-9.401 17.671 0 31.996 14.323 32 31.993v0 496c0 26.51 21.49 48 48 48v0zM544 674.176v173.824c0 61.856-50.144 112-112 112s-112-50.144-112-112v0-418.752l-99.648 99.648c-17.55 17.456-41.746 28.247-68.462 28.247-53.62 0-97.088-43.468-97.088-97.088 0-18.339 5.085-35.491 13.922-50.122l-0.244 0.435 159.424-265.792 77.76-155.52c16.115-31.709 48.494-53.056 85.859-53.056 0.010 0 0.020 0 0.030 0h403.327c35.49 0.012 66.477 19.28 83.082 47.923l0.246 0.461 89.28 156.224c14.897 25.6 25.023 55.76 28.336 87.939l0.080 0.957 17.344 173.76c0.404 3.819 0.635 8.251 0.635 12.736 0 70.691-57.305 127.997-127.995 128h-37.184c-4.556 6.163-8.647 11.331-12.887 16.369l0.407-0.497c-12.224 14.656-32.64 36.352-56.32 45.824-23.296 9.344-54.144 8.448-74.112 6.912l-8.448-0.768c-7.026 17.661-19.556 31.886-35.439 40.879l-0.401 0.209c-13.608 7.999-29.376 14.35-46.097 18.211l-1.135 0.221c-19.84 3.968-47.296 3.712-67.2 2.944l-3.072-0.128z" />
<glyph unicode="&#xe923;" glyph-name="phone" data-tags="phone" d="M704 896c35.346 0 64-28.654 64-64v0-768c0-35.346-28.654-64-64-64v0h-384c-35.346 0-64 28.654-64 64v0 768c0 35.346 28.654 64 64 64v0h384zM320 960c-70.692 0-128-57.308-128-128v0-768c0-70.692 57.308-128 128-128v0h384c70.692 0 128 57.308 128 128v0 768c0 70.692-57.308 128-128 128v0h-384zM512 64c35.346 0 64 28.654 64 64s-28.654 64-64 64v0c-35.346 0-64-28.654-64-64s28.654-64 64-64v0z" />
<glyph unicode="&#xe924;" glyph-name="phone-landscape" data-tags="phone-landscape" d="M64 672c0 35.346 28.654 64 64 64v0h768c35.346 0 64-28.654 64-64v0-384c0-35.346-28.654-64-64-64v0h-768c-35.346 0-64 28.654-64 64v0 384zM0 288c0-70.692 57.308-128 128-128v0h768c70.692 0 128 57.308 128 128v0 384c0 70.692-57.308 128-128 128v0h-768c-70.692 0-128-57.308-128-128v0-384zM896 480c0 35.346-28.654 64-64 64s-64-28.654-64-64v0c0-35.346 28.654-64 64-64s64 28.654 64 64v0z" />
<glyph unicode="&#xe925;" glyph-name="phone-flip" data-tags="phone-flip" d="M704 896h-384c-35.346 0-64-28.654-64-64v0-384c0-17.673-14.327-32-32-32s-32 14.327-32 32v0 384c0 70.692 57.308 128 128 128v0h384c70.692 0 128-57.308 128-128v0-384c0-17.673-14.327-32-32-32s-32 14.327-32 32v0 384c0 35.346-28.654 64-64 64v0zM768 64c0-35.346-28.654-64-64-64v0h-384c-35.346 0-64 28.654-64 64v0 128c0 17.673-14.327 32-32 32s-32-14.327-32-32v0-128c0-70.692 57.308-128 128-128v0h384c70.692 0 128 57.308 128 128v0 128c0 17.673-14.327 32-32 32s-32-14.327-32-32v0-128zM109.632 450.944c11.067 5.196 18.592 16.247 18.592 29.056 0 17.673-14.327 32-32 32-4.864 0-9.475-1.085-13.603-3.027l0.195 0.083c-22.208-10.24-41.856-22.272-56.448-36.48-14.592-14.464-26.368-33.472-26.368-56.576 0-34.944 26.112-60.16 52.672-76.864 28.16-17.792 66.752-32.64 111.68-44.544 90.24-24.064 213.12-38.592 347.648-38.592 6.336 0 12.608 0 18.816 0.128l-73.472-73.472c-5.798-5.798-9.384-13.808-9.384-22.656 0-17.695 14.345-32.040 32.040-32.040 8.848 0 16.858 3.586 22.656 9.384v0l128 128c5.808 5.794 9.401 13.805 9.401 22.656s-3.593 16.862-9.401 22.655l-128.001 128.001c-5.798 5.798-13.808 9.384-22.656 9.384-17.695 0-32.040-14.345-32.040-32.040 0-8.848 3.586-16.858 9.384-22.656v0l73.28-73.216-18.624-0.128c-130.56 0-247.68 14.144-331.136 36.416-41.984 11.2-73.664 23.936-94.080 36.8-22.016 13.888-22.784 22.4-22.784 22.784 0 0.192 0 3.776 7.168 10.88 7.36 7.168 19.84 15.488 38.4 24.064zM941.184 509.056c-3.933 1.859-8.544 2.944-13.408 2.944-17.673 0-32-14.327-32-32 0-12.809 7.526-23.86 18.397-28.973l0.195-0.083c18.688-8.576 31.104-16.896 38.4-24.128 7.232-7.040 7.232-10.624 7.232-10.816s0-4.16-8.32-11.968c-8.448-7.808-22.528-16.64-43.328-25.6-41.28-17.92-102.144-33.472-176.832-43.968-15.378-2.515-26.971-15.705-26.971-31.602 0-17.673 14.327-32 32-32 1.386 0 2.751 0.088 4.090 0.259l-0.159-0.017c77.568 10.88 144.64 27.52 193.28 48.512 24.32 10.496 45.632 22.848 61.44 37.568 15.744 14.656 28.8 34.368 28.8 58.816 0 23.168-11.776 42.24-26.368 56.512s-34.24 26.304-56.448 36.544zM480 832c-17.673 0-32-14.327-32-32s14.327-32 32-32v0h64c17.673 0 32 14.327 32 32s-14.327 32-32 32v0h-64z" />
<glyph unicode="&#xe926;" glyph-name="phone-vibrate" data-tags="phone-vibrate" d="M640 768c35.346 0 64-28.654 64-64v0-512c0-35.346-28.654-64-64-64v0h-256c-35.346 0-64 28.654-64 64v0 512c0 35.346 28.654 64 64 64v0h256zM384 832c-70.692 0-128-57.308-128-128v0-512c0-70.692 57.308-128 128-128v0h256c70.692 0 128 57.308 128 128v0 512c0 70.692-57.308 128-128 128v0h-256zM512 192c35.346 0 64 28.654 64 64s-28.654 64-64 64v0c-35.346 0-64-28.654-64-64s28.654-64 64-64v0zM102.336 700.288c10.21-5.483 17.034-16.087 17.034-28.285 0-5.481-1.378-10.64-3.806-15.149l0.084 0.17c-32.532-60.361-51.649-132.101-51.649-208.306 0-0.253 0-0.505 0.001-0.758v0.039c0-75.52 18.688-146.688 51.648-209.024 2.343-4.339 3.72-9.497 3.72-14.976 0-17.677-14.33-32.008-32.008-32.008-12.198 0-22.802 6.823-28.204 16.861l-0.084 0.17c-37.208 69.035-59.073 151.084-59.073 238.241 0 0.258 0 0.517 0.001 0.775v-0.040c0 86.208 21.376 167.616 59.072 238.976 5.483 10.21 16.087 17.034 28.285 17.034 5.481 0 10.64-1.378 15.149-3.806l-0.17 0.084zM921.664 700.288c4.339 2.344 9.498 3.722 14.979 3.722 12.198 0 22.801-6.825 28.201-16.864l0.084-0.171c37.208-69.029 59.073-151.074 59.073-238.225 0-0.264 0-0.528-0.001-0.792v0.041c0-0.223 0.001-0.487 0.001-0.751 0-87.151-21.865-169.196-60.408-240.947l1.336 2.722c-5.486-10.208-16.090-17.032-28.288-17.032-17.677 0-32.008 14.33-32.008 32.008 0 5.479 1.377 10.637 3.804 15.146l-0.084-0.17c32.532 60.361 51.649 132.101 51.649 208.306 0 0.253 0 0.505-0.001 0.758v-0.039c0 75.52-18.688 146.688-51.648 209.024-2.344 4.339-3.722 9.498-3.722 14.979 0 12.198 6.825 22.801 16.864 28.201l0.171 0.084zM195.648 605.824c12.028-4.783 20.375-16.324 20.375-29.814 0-4.196-0.807-8.202-2.275-11.874l0.076 0.216c-13.812-34.385-21.824-74.248-21.824-115.983 0-0.13 0-0.26 0-0.389v0.021c0-41.088 7.68-80.32 21.76-116.352 1.791-3.869 2.835-8.397 2.835-13.169 0-17.673-14.327-32-32-32-14.050 0-25.985 9.055-30.288 21.647l-0.067 0.225c-16.607 41.308-26.24 89.201-26.24 139.344 0 0.107 0 0.213 0 0.32v-0.017c0 49.216 9.28 96.32 26.24 139.648 4.789 12.016 16.323 20.354 29.805 20.354 4.175 0 8.162-0.799 11.819-2.253l-0.216 0.076zM828.352 605.824c3.456 1.392 7.463 2.199 11.658 2.199 13.49 0 25.031-8.348 29.738-20.159l0.076-0.216c16.896-43.328 26.176-90.432 26.176-139.648s-9.28-96.32-26.24-139.648c-5.145-11.197-16.264-18.831-29.165-18.831-17.673 0-32 14.327-32 32 0 3.623 0.602 7.105 1.712 10.353l-0.067-0.225c14.080 36.032 21.76 75.264 21.76 116.352s-7.68 80.32-21.76 116.352c-1.397 3.462-2.208 7.476-2.208 11.68 0 13.469 8.322 24.995 20.104 29.716l0.216 0.076z" />
<glyph unicode="&#xe927;" glyph-name="stoplights" data-tags="stoplights" d="M512 608c53.019 0 96 42.981 96 96s-42.981 96-96 96v0c-53.019 0-96-42.981-96-96s42.981-96 96-96v0zM512 352c53.019 0 96 42.981 96 96s-42.981 96-96 96v0c-53.019 0-96-42.981-96-96s42.981-96 96-96v0zM608 192c0-53.019-42.981-96-96-96s-96 42.981-96 96v0c0 53.019 42.981 96 96 96s96-42.981 96-96v0zM256 800c0 70.692 57.308 128 128 128v0h256c70.692 0 128-57.308 128-128v0h128c-10.688-32-51.2-102.4-128-128v-128h128c-10.688-32-51.2-102.4-128-128v-128h128c-10.688-32-51.2-102.4-128-128v-64c0-70.692-57.308-128-128-128v0h-256c-70.692 0-128 57.308-128 128v0 64c-76.8 25.6-117.312 96-128 128h128v128c-76.8 25.6-117.312 96-128 128h128v128c-76.8 25.6-117.312 96-128 128h128zM384 864c-35.346 0-64-28.654-64-64v0-704c0-35.346 28.654-64 64-64v0h256c35.346 0 64 28.654 64 64v0 704c0 35.346-28.654 64-64 64v0h-256z" />
<glyph unicode="&#xe928;" glyph-name="stoplights-fill" data-tags="stoplights-fill" d="M384 928c-70.692 0-128-57.308-128-128v0h-128c10.688-32 51.2-102.4 128-128v-128h-128c10.688-32 51.2-102.4 128-128v-128h-128c10.688-32 51.2-102.4 128-128v-64c0-70.692 57.308-128 128-128v0h256c70.692 0 128 57.308 128 128v0 64c76.8 25.6 117.312 96 128 128h-128v128c76.8 25.6 117.312 96 128 128h-128v128c76.8 25.6 117.312 96 128 128h-128c0 70.692-57.308 128-128 128v0h-256zM608 704c0-53.019-42.981-96-96-96s-96 42.981-96 96v0c0 53.019 42.981 96 96 96s96-42.981 96-96v0zM608 448c0-53.019-42.981-96-96-96s-96 42.981-96 96v0c0 53.019 42.981 96 96 96s96-42.981 96-96v0zM512 96c-53.019 0-96 42.981-96 96s42.981 96 96 96v0c53.019 0 96-42.981 96-96s-42.981-96-96-96v0z" />
<glyph unicode="&#xe929;" d="M752.235 362.705c21.416 0 38.786 17.366 38.786 38.786s-17.371 38.782-38.786 38.782c-21.416 0-38.782-17.361-38.782-38.782s17.366-38.786 38.782-38.786z" />
<glyph unicode="&#xe92a;" d="M464.051 634.182c-131.166 0-241.142-109.977-241.142-241.143s109.977-241.147 241.142-241.147h129.041v-54.91l86.291 54.91h6.777c136.546 0 251.722 103.722 251.722 241.147 0 131.166-109.973 241.143-241.143 241.143h-232.688zM176.364 393.039c0 156.871 130.814 287.688 287.687 287.688h232.688c156.872 0 287.688-130.816 287.688-287.688 0-163.486-134.87-284.165-291.37-287.618l-146.511-93.226v93.151h-82.495c-156.873 0-287.687 130.821-287.687 287.693z" />
<glyph unicode="&#xe92b;" glyph-name="upc" data-tags="upc" d="M192 672c0 17.673 14.327 32 32 32s32-14.327 32-32v0-448c0-17.673-14.327-32-32-32s-32 14.327-32 32v0 448zM320 672c0 17.673 14.327 32 32 32s32-14.327 32-32v0-448c0-17.673-14.327-32-32-32s-32 14.327-32 32v0 448zM448 672c0 17.673 14.327 32 32 32s32-14.327 32-32v0-448c0-17.673-14.327-32-32-32s-32 14.327-32 32v0 448zM576 672c0 17.673 14.327 32 32 32v0h64c17.673 0 32-14.327 32-32v0-448c0-17.673-14.327-32-32-32v0h-64c-17.673 0-32 14.327-32 32v0 448zM768 672c0 17.673 14.327 32 32 32s32-14.327 32-32v0-448c0-17.673-14.327-32-32-32s-32 14.327-32 32v0 448z" />
<glyph unicode="&#xe92c;" glyph-name="upc-scan" data-tags="upc-scan" d="M96 896c-17.673 0-32-14.327-32-32v0-192c0-17.673-14.327-32-32-32s-32 14.327-32 32v0 192c0 53.019 42.981 96 96 96v0h192c17.673 0 32-14.327 32-32s-14.327-32-32-32v0h-192zM704 928c0 17.673 14.327 32 32 32v0h192c53.019 0 96-42.981 96-96v0-192c0-17.673-14.327-32-32-32s-32 14.327-32 32v0 192c0 17.673-14.327 32-32 32v0h-192c-17.673 0-32 14.327-32 32v0zM32 256c17.673 0 32-14.327 32-32v0-192c0-17.673 14.327-32 32-32v0h192c17.673 0 32-14.327 32-32s-14.327-32-32-32v0h-192c-53.019 0-96 42.981-96 96v0 192c0 17.673 14.327 32 32 32v0zM992 256c17.673 0 32-14.327 32-32v0-192c0-53.019-42.981-96-96-96v0h-192c-17.673 0-32 14.327-32 32s14.327 32 32 32v0h192c17.673 0 32 14.327 32 32v0 192c0 17.673 14.327 32 32 32v0zM192 672c0 17.673 14.327 32 32 32s32-14.327 32-32v0-448c0-17.673-14.327-32-32-32s-32 14.327-32 32v0 448zM320 672c0 17.673 14.327 32 32 32s32-14.327 32-32v0-448c0-17.673-14.327-32-32-32s-32 14.327-32 32v0 448zM448 672c0 17.673 14.327 32 32 32s32-14.327 32-32v0-448c0-17.673-14.327-32-32-32s-32 14.327-32 32v0 448zM576 672c0 17.673 14.327 32 32 32v0h64c17.673 0 32-14.327 32-32v0-448c0-17.673-14.327-32-32-32v0h-64c-17.673 0-32 14.327-32 32v0 448zM768 672c0 17.673 14.327 32 32 32s32-14.327 32-32v0-448c0-17.673-14.327-32-32-32s-32 14.327-32 32v0 448z" />
<glyph unicode="&#xe92d;" glyph-name="qr-code" data-tags="qr-code" d="M128 832h128v-128h-128v128zM384 960v-384h-384v384h384zM320 896h-256v-256h256v256zM256 192h-128v-128h128v128zM384 320v-384h-384v384h384zM64 256v-256h256v256h-256zM768 832h128v-128h-128v128zM640 960v-384h384v384h-384zM960 896v-256h-256v256h256zM512 896v64h64v-128h-64v-128h-64v192h64zM512 576v128h64v-128h-64zM384 448v64h64v64h64v-128h64v64h320v-64h-256v-64h-192v64h-64zM384 448v-64h-256v64h-64v-64h-64v128h192v-64h192zM1024 384h-64v128h64v-128zM960 384h-64v-128h128v64h-64v64zM704 384h128v-64h-64v-64h-64v128zM832 192v64h-64v-64h-64v-64h-128v-64h192v128h64zM832 192h192v-64h-128v-64h-64v128zM576 256v-64h64v128h-192v-64h128zM448 192h64v-192h256v-64h-320v256zM1024 64v-128h-192v64h128v64h64z" />
<glyph unicode="&#xe92e;" glyph-name="qr-code-scan" data-tags="qr-code-scan" d="M0 928c0 17.673 14.327 32 32 32v0h192c17.673 0 32-14.327 32-32s-14.327-32-32-32v0h-160v-160c0-17.673-14.327-32-32-32s-32 14.327-32 32v0 192zM768 928c0 17.673 14.327 32 32 32v0h192c17.673 0 32-14.327 32-32v0-192c0-17.673-14.327-32-32-32s-32 14.327-32 32v0 160h-160c-17.673 0-32 14.327-32 32v0zM32 192c17.673 0 32-14.327 32-32v0-160h160c17.673 0 32-14.327 32-32s-14.327-32-32-32v0h-192c-17.673 0-32 14.327-32 32v0 192c0 17.673 14.327 32 32 32v0zM992 192c17.673 0 32-14.327 32-32v0-192c0-17.673-14.327-32-32-32v0h-192c-17.673 0-32 14.327-32 32s14.327 32 32 32v0h160v160c0 17.673 14.327 32 32 32v0zM256 704h64v-64h-64v64zM448 832h-320v-320h320v320zM192 768h192v-192h-192v192zM320 256h-64v-64h64v64zM448 384h-320v-320h320v320zM192 320h192v-192h-192v192zM704 704h64v-64h-64v64zM576 832h320v-320h-320v320zM640 768v-192h192v192h-192zM512 448v-128h64v-64h-64v-64h128v128h64v-128h64v64h128v64h-192v128h-192zM640 320h-64v64h64v-64zM896 192h-64v-64h-128v-64h192v128zM640 64v64h-128v-64h128zM768 384h128v64h-128v-64z" />
<glyph unicode="&#xe92f;" glyph-name="chat-dots" data-tags="chat-dots" d="M326.429 476.803c0-34.162-27.694-61.857-61.857-61.857s-61.857 27.694-61.857 61.857v0c0 34.162 27.694 61.857 61.857 61.857s61.857-27.694 61.857-61.857v0zM573.857 476.803c0-34.162-27.694-61.857-61.857-61.857s-61.857 27.694-61.857 61.857v0c0 34.162 27.694 61.857 61.857 61.857s61.857-27.694 61.857-61.857v0zM759.427 414.946c34.162 0 61.857 27.694 61.857 61.857s-27.694 61.857-61.857 61.857v0c-34.162 0-61.857-27.694-61.857-61.857s27.694-61.857 61.857-61.857v0zM151.065-5.866l1.237 0.247c113.198 22.454 182.354 52.083 214.52 68.352 43.32-12.021 93.065-18.929 144.422-18.929 0.266 0 0.531 0 0.796 0.001h-0.041c273.284 0 494.855 193.859 494.855 432.998s-221.571 432.998-494.855 432.998-494.855-193.859-494.855-432.998c0-108.868 45.96-208.458 121.858-284.542-5.9-53.224-17.311-101.771-33.821-147.891l1.408 4.507-0.186-0.68c-6.134-17.863-11.241-30.897-16.74-43.722l1.647 4.319c-4.887-11.505 4.577-24.372 16.887-22.392 22.489 3.56 37.024 6.258 51.475 9.191l-8.608-1.458zM200.551 186.385c0.179 1.766 0.281 3.817 0.281 5.892 0 17.040-6.89 32.47-18.036 43.657l0.002-0.002c-65.568 65.816-103.796 150.065-103.796 240.871 0 197.447 185.818 371.141 432.998 371.141s432.998-173.694 432.998-371.141c0-197.509-185.818-371.141-432.998-371.141-0.216 0-0.472-0.001-0.727-0.001-45.671 0-89.906 6.14-131.927 17.642l3.498-0.816c-4.802 1.339-10.316 2.108-16.009 2.108-10.204 0-19.832-2.471-28.317-6.848l0.346 0.162c-23.939-12.124-76.702-35.258-162.931-55.238 11.071 35.57 19.742 77.546 24.361 120.734l0.258 2.98z" />
<glyph unicode="&#xe930;" glyph-name="chat-dots-fill" data-tags="chat-dots-fill" d="M1006.855 476.804c0-239.139-221.571-432.998-494.855-432.998-0.224 0-0.49-0.001-0.756-0.001-51.358 0-101.102 6.909-148.354 19.846l3.932-0.918c-36.124-18.31-119.074-53.444-258.623-76.331-12.371-1.979-21.774 10.887-16.887 22.392 21.897 51.712 41.692 120.621 47.63 183.467-75.775 76.084-121.796 175.673-121.796 284.542 0 239.139 221.571 432.998 494.855 432.998s494.855-193.859 494.855-432.998zM326.429 476.804c0 34.162-27.694 61.857-61.857 61.857s-61.857-27.694-61.857-61.857v0c0-34.162 27.694-61.857 61.857-61.857s61.857 27.694 61.857 61.857v0zM573.857 476.804c0 34.162-27.694 61.857-61.857 61.857s-61.857-27.694-61.857-61.857v0c0-34.162 27.694-61.857 61.857-61.857s61.857 27.694 61.857 61.857v0zM759.427 414.947c34.162 0 61.857 27.694 61.857 61.857s-27.694 61.857-61.857 61.857v0c-34.162 0-61.857-27.694-61.857-61.857s27.694-61.857 61.857-61.857v0z" />
<glyph unicode="&#xe931;" glyph-name="arrow-r" data-tags="arrow-right" d="M64 448c0 17.673 14.327 32 32 32v0h754.752l-201.408 201.344c-5.798 5.798-9.384 13.808-9.384 22.656 0 17.695 14.345 32.040 32.040 32.040 8.848 0 16.858-3.586 22.656-9.384v0l256-256c5.808-5.794 9.401-13.805 9.401-22.656s-3.593-16.862-9.401-22.655l-256.001-256.001c-5.798-5.798-13.808-9.384-22.656-9.384-17.695 0-32.040 14.345-32.040 32.040 0 8.848 3.586 16.858 9.384 22.656v0l201.408 201.344h-754.752c-17.673 0-32 14.327-32 32v0z" />
<glyph unicode="&#xe932;" glyph-name="arrow-r-short" data-tags="arrow-right-short" d="M256 448c0 17.673 14.327 32 32 32v0h370.752l-137.408 137.344c-5.798 5.798-9.384 13.808-9.384 22.656 0 17.695 14.345 32.040 32.040 32.040 8.848 0 16.858-3.586 22.656-9.384v0l192-192c5.808-5.794 9.401-13.805 9.401-22.656s-3.593-16.862-9.401-22.655l-192.001-192.001c-5.798-5.798-13.808-9.384-22.656-9.384-17.695 0-32.040 14.345-32.040 32.040 0 8.848 3.586 16.858 9.384 22.656v0l137.408 137.344h-370.752c-17.673 0-32 14.327-32 32v0z" />
<glyph unicode="&#xe933;" glyph-name="arrow-right-circle" data-tags="arrow-right-circle" d="M64 448c0-247.424 200.576-448 448-448s448 200.576 448 448v0c0 247.424-200.576 448-448 448s-448-200.576-448-448v0zM1024 448c0-282.77-229.23-512-512-512s-512 229.23-512 512v0c0 282.77 229.23 512 512 512s512-229.23 512-512v0zM288 480c-17.673 0-32-14.327-32-32s14.327-32 32-32v0h370.752l-137.408-137.344c-5.798-5.798-9.384-13.808-9.384-22.656 0-17.695 14.345-32.040 32.040-32.040 8.848 0 16.858 3.586 22.656 9.384v0l192 192c5.808 5.794 9.401 13.805 9.401 22.656s-3.593 16.862-9.401 22.655l-192.001 192.001c-5.798 5.798-13.808 9.384-22.656 9.384-17.695 0-32.040-14.345-32.040-32.040 0-8.848 3.586-16.858 9.384-22.656v0l137.408-137.344h-370.752z" />
<glyph unicode="&#xe934;" glyph-name="arrow-right-circle-fill" data-tags="arrow-right-circle-fill" d="M512 960c282.77 0 512-229.23 512-512s-229.23-512-512-512v0c-282.77 0-512 229.23-512 512s229.23 512 512 512v0zM288 480c-17.673 0-32-14.327-32-32s14.327-32 32-32v0h370.752l-137.408-137.344c-5.798-5.798-9.384-13.808-9.384-22.656 0-17.695 14.345-32.040 32.040-32.040 8.848 0 16.858 3.586 22.656 9.384v0l192 192c5.808 5.794 9.401 13.805 9.401 22.656s-3.593 16.862-9.401 22.655l-192.001 192.001c-5.798 5.798-13.808 9.384-22.656 9.384-17.695 0-32.040-14.345-32.040-32.040 0-8.848 3.586-16.858 9.384-22.656v0l137.408-137.344h-370.752z" />
<glyph unicode="&#xe935;" d="M324.414 820.364c-131.166 0-241.142-109.977-241.142-241.143 0-88.012 49.515-166.483 121.721-208.593v-52.499c-98.609 46.019-168.266 146.623-168.266 261.092 0 156.872 130.814 287.689 287.687 287.689h232.688c148.871 0 274.269-117.806 286.683-263.89l-48.929 15.885c-19.447 112.931-120.069 201.459-237.754 201.459h-232.688z" />
<glyph unicode="&#xe936;" d="M502.365 410.363c0-7.875-2.332-15.574-6.707-22.123-4.38-6.544-10.594-11.65-17.873-14.666-7.27-3.011-15.283-3.798-23.006-2.262s-14.819 5.325-20.388 10.896c-5.569 5.567-9.361 12.665-10.898 20.387-1.536 7.727-0.748 15.732 2.267 23.007s8.118 13.494 14.665 17.869c6.55 4.375 14.246 6.712 22.119 6.712 10.563 0 20.691-4.194 28.157-11.66 7.471-7.471 11.664-17.599 11.664-28.16z" />
<glyph unicode="&#xe937;" d="M646.726 410.363c0-7.875-2.337-15.574-6.712-22.123-4.375-6.544-10.594-11.65-17.869-14.666-7.28-3.011-15.281-3.798-23.007-2.262-7.722 1.536-14.82 5.325-20.387 10.896-5.567 5.567-9.36 12.665-10.896 20.387-1.536 7.727-0.749 15.732 2.267 23.007 3.011 7.275 8.113 13.494 14.662 17.869s14.248 6.712 22.123 6.712c10.561 0 20.689-4.194 28.155-11.66 7.466-7.471 11.664-17.599 11.664-28.16z" />
<glyph unicode="&#xe938;" glyph-name="exclamation-diamond" data-tags="exclamation-diamond" d="M444.8 932.16c37.12 37.12 97.28 37.12 134.4 0l416.96-417.024c37.12-37.12 37.12-97.216 0-134.272l-416.96-417.024c-37.12-37.12-97.216-37.12-134.272 0l-417.088 416.96c-17.205 17.171-27.849 40.91-27.849 67.136s10.644 49.965 27.847 67.134l416.962 417.090zM534.4 887.36c-5.733 5.732-13.652 9.278-22.4 9.278s-16.667-3.545-22.4-9.278l-417.024-416.96c-5.732-5.733-9.278-13.652-9.278-22.4s3.545-16.667 9.278-22.4l417.024-417.024c5.733-5.732 13.652-9.278 22.4-9.278s16.667 3.545 22.4 9.278l417.024 417.024c5.732 5.733 9.278 13.652 9.278 22.4s-3.545 16.667-9.278 22.4l-417.024 417.024zM448.128 256c0 35.346 28.654 64 64 64s64-28.654 64-64v0c0-35.346-28.654-64-64-64s-64 28.654-64 64v0zM454.4 640.32c-0.204 1.824-0.32 3.938-0.32 6.080 0 31.988 25.932 57.92 57.92 57.92s57.92-25.932 57.92-57.92c0-2.142-0.116-4.256-0.343-6.338l0.023 0.258-22.4-224.448c-1.598-18.175-16.747-32.323-35.2-32.323s-33.602 14.149-35.19 32.189l-0.010 0.134-22.4 224.448z" />
<glyph unicode="&#xe939;" glyph-name="exclamation-triangle" data-tags="exclamation-triangle" d="M508.032 830.976c1.154 0.645 2.533 1.025 4 1.025 0.034 0 0.068 0 0.101-0.001h-0.005c0.010 0 0.021 0 0.033 0 1.467 0 2.845-0.38 4.041-1.046l-0.042 0.022c1.466-0.889 2.64-2.125 3.432-3.598l0.024-0.050 438.848-746.688c2.304-3.84 2.24-7.936 0.128-11.712-0.834-1.571-2.003-2.863-3.419-3.816l-0.037-0.024c-1.105-0.688-2.446-1.096-3.882-1.096-0.12 0-0.24 0.003-0.359 0.009l0.017-0.001h-877.568c-0.107-0.006-0.232-0.009-0.359-0.009-1.431 0-2.766 0.408-3.896 1.115l0.031-0.018c-1.453 0.977-2.622 2.269-3.429 3.784l-0.027 0.056c-0.992 1.644-1.579 3.629-1.579 5.751 0 2.209 0.636 4.269 1.734 6.008l-0.027-0.046 438.784 746.688c0.818 1.521 1.992 2.756 3.415 3.625l0.041 0.023zM574.848 859.776c-12.716 21.856-36.030 36.315-62.72 36.315s-50.004-14.458-62.535-35.97l-0.185-0.344-438.848-746.688c-29.248-49.792 5.824-113.088 62.72-113.088h877.632c56.896 0 92.032 63.36 62.72 113.088l-438.784 746.688zM448.128 192c0 35.346 28.654 64 64 64s64-28.654 64-64v0c0-35.346-28.654-64-64-64s-64 28.654-64 64v0zM454.4 576.32c-0.204 1.824-0.32 3.938-0.32 6.080 0 31.988 25.932 57.92 57.92 57.92s57.92-25.932 57.92-57.92c0-2.142-0.116-4.256-0.343-6.338l0.023 0.258-22.4-224.448c-1.598-18.175-16.747-32.323-35.2-32.323s-33.602 14.149-35.19 32.189l-0.010 0.134-22.4 224.448z" />
<glyph unicode="&#xe93a;" glyph-name="circle-with-plus" data-tags="circle-with-plus" d="M512 878.080c-237.517 0-430.080-192.563-430.080-430.080s192.563-430.080 430.080-430.080 430.080 192.563 430.080 430.080c0 237.517-192.563 430.080-430.080 430.080zM768 396.8h-204.8v-204.8h-102.4v204.8h-204.8v102.4h204.8v204.8h102.4v-204.8h204.8v-102.4z" />
<glyph unicode="&#xe93b;" glyph-name="circle-with-minus" data-tags="circle-with-minus" d="M512 878.080c-237.517 0-430.080-192.563-430.080-430.080s192.563-430.080 430.080-430.080 430.080 192.563 430.080 430.080c0 237.517-192.563 430.080-430.080 430.080zM768 396.8h-512v102.4h512v-102.4z" />
<glyph unicode="&#xe93c;" glyph-name="circle-with-cross" data-tags="circle-with-cross" d="M512 878.080c-237.517 0-430.080-192.563-430.080-430.080s192.563-430.080 430.080-430.080 430.080 192.563 430.080 430.080c0 237.517-192.563 430.080-430.080 430.080zM757.197 291.277l-88.525-88.525-156.672 156.723-156.723-156.672-88.525 88.525 156.774 156.672-156.723 156.723 88.525 88.474 156.672-156.672 156.723 156.723 88.525-88.525-156.774-156.723 156.723-156.723z" />
<glyph unicode="&#xe93d;" d="M784.379 388.24c4.375 6.549 6.712 14.248 6.712 22.123 0 10.561-4.194 20.689-11.66 28.16-7.471 7.466-17.599 11.66-28.155 11.66-7.88 0-15.574-2.337-22.128-6.712-6.544-4.375-11.65-10.594-14.662-17.869s-3.803-15.281-2.267-23.007c1.536-7.722 5.329-14.82 10.896-20.387 5.567-5.571 12.665-9.36 20.387-10.896 7.727-1.536 15.732-0.749 23.007 2.262 7.275 3.016 13.498 8.122 17.869 14.666z" />
<glyph unicode="&#xe93e;" d="M93.091 436.364c0 6.428 5.21 11.636 11.636 11.636h267.636c6.427 0 11.636-5.208 11.636-11.636v-95.171c0-6.428-5.21-11.636-11.636-11.636-15.015 0-29.252-1.224-42.133 4.436-10.992 4.827-18.824 15.123-22.203 30.147h-25.915v-213.578c16.529-4.17 29.821-14.443 29.821-32.54v-30.748c0-6.428-5.21-11.636-11.636-11.636h-123.503c-6.427 0-11.636 5.208-11.636 11.636v30.748c0 18.060 13.368 28.477 29.821 32.745v213.83h-26.261c-3.179-14.69-9.782-24.99-21.7-30.408-10.466-4.762-53.926-13.847-53.926 7.005v95.171zM116.364 424.727v-71.917c9.895 0.051 17.147 0.801 21.019 2.56 3.537 1.61 8.042 5.227 9.82 22.081 0.624 5.921 5.618 10.417 11.572 10.417h47.84c6.427 0 11.636-5.208 11.636-11.636v-234.747c0-6.158-4.533-10.356-10.213-11.599-6.995-1.536-11.999-2.634-15.665-4.72-3.153-1.797-3.942-1.806-3.942-7.145v-19.112h100.231v19.112c0 5.371-0.642 5.204-3.664 6.921-3.564 2.025-8.529 3.095-15.89 4.682-5.703 1.229-10.267 5.423-10.267 11.608v234.543c0 6.428 5.21 11.636 11.636 11.636h47.427c5.929 0 10.91-4.459 11.565-10.352 1.769-15.905 5.152-19.582 10.121-21.765 4.013-1.759 11.345-2.462 21.138-2.495v71.927h-244.363z" />
<glyph unicode="&#xe93f;" d="M290.182 866.909c-12.854 0-23.273-10.42-23.273-23.273v-209.455c0-12.853 10.419-23.273 23.273-23.273h49.228c51.73 0 53.709 64.672 53.11 101.932h126.685v-567.126c-19.186-2.281-40.155-5.292-55.959-17.329-10.062-7.661-17.887-19.498-17.887-35.328v-43.683c0-12.851 10.42-23.273 23.275-23.273h248.19c12.851 0 23.273 10.422 23.273 23.273v43.683c0 15.476-7.117 27.508-17.38 35.528-15.816 12.353-37.111 14.885-56.46 16.654v566.561h125.747c-0.233-36.54 2.295-100.892 53.020-100.892h50.25c12.851 0 23.273 10.42 23.273 23.273v209.455c0 12.345-10.929 23.273-23.273 23.273h-605.092z" />
<glyph unicode="&#xe940;" glyph-name="check1" data-tags="check" d="M823.16 712.84l-439.168-439.168-183.168 183.168c-16.683 16.683-43.691 16.683-60.331 0s-16.683-43.691 0-60.331l213.333-213.333c16.683-16.683 43.691-16.683 60.331 0l469.333 469.333c16.683 16.683 16.683 43.691 0 60.331s-43.691 16.683-60.331 0z" />
<glyph unicode="&#xe941;" d="M116.364 430.545c0 6.428 5.21 11.636 11.636 11.636h256c6.427 0 11.636-5.208 11.636-11.636v-87.71c0-6.428-5.21-11.636-11.636-11.636h-26.113c-8.918 0-21.298 4.915-24.715 17.431l-0.015 0.056c-1.109 4.143-2.080 9.956-2.972 17.096h-36.435v-223.795c15.54-3.305 29.82-9.328 29.82-28.141v-24.934c0-6.428-5.21-11.636-11.636-11.636h-111.867c-6.427 0-11.636 5.208-11.636 11.636v24.934c0 18.344 14.695 24.813 29.821 28.137v224.251h-36.801c-0.906-8.071-1.737-14.052-2.527-17.24l-0.033-0.13-0.069-0.261c-3.563-13.042-16.471-17.403-25.122-17.403h-25.699c-6.427 0-11.636 5.208-11.636 11.636v87.71z" />
<glyph unicode="&#xe942;" glyph-name="chevron-down" data-tags="chevron-down" d="M225.827 545.834l256-256c16.683-16.683 43.691-16.683 60.331 0l256 256c16.683 16.683 16.683 43.691 0 60.331s-43.691 16.683-60.331 0l-225.835-225.835-225.835 225.835c-16.683 16.683-43.691 16.683-60.331 0s-16.683-43.691 0-60.331z" />
<glyph unicode="&#xe943;" glyph-name="chevron-left" data-tags="chevron-left" d="M670.166 222.173l-225.835 225.835 225.835 225.835c16.683 16.683 16.683 43.691 0 60.331s-43.691 16.683-60.331 0l-256-256c-16.683-16.683-16.683-43.691 0-60.331l256-256c16.683-16.683 43.691-16.683 60.331 0s16.683 43.691 0 60.331z" />
<glyph unicode="&#xe944;" glyph-name="chevron-right" data-tags="chevron-right" d="M414.165 161.827l256 256c16.683 16.683 16.683 43.691 0 60.331l-256 256c-16.683 16.683-43.691 16.683-60.331 0s-16.683-43.691 0-60.331l225.835-225.835-225.835-225.835c-16.683-16.683-16.683-43.691 0-60.331s43.691-16.683 60.331 0z" />
<glyph unicode="&#xe945;" glyph-name="chevron-up" data-tags="chevron-up" d="M798.173 350.165l-256 256c-16.683 16.683-43.691 16.683-60.331 0l-256-256c-16.683-16.683-16.683-43.691 0-60.331s43.691-16.683 60.331 0l225.835 225.835 225.835-225.835c16.683-16.683 43.691-16.683 60.331 0s16.683 43.691 0 60.331z" />
<glyph unicode="&#xe946;" glyph-name="chevrons-down" data-tags="chevrons-down" d="M268.494 375.167l213.333-213.333c16.683-16.683 43.691-16.683 60.331 0l213.333 213.333c16.683 16.683 16.683 43.691 0 60.331s-43.691 16.683-60.331 0l-183.168-183.168-183.168 183.168c-16.683 16.683-43.691 16.683-60.331 0s-16.683-43.691 0-60.331zM268.494 673.834l213.333-213.333c16.683-16.683 43.691-16.683 60.331 0l213.333 213.333c16.683 16.683 16.683 43.691 0 60.331s-43.691 16.683-60.331 0l-183.168-183.168-183.168 183.168c-16.683 16.683-43.691 16.683-60.331 0s-16.683-43.691 0-60.331z" />
<glyph unicode="&#xe947;" glyph-name="chevrons-left" data-tags="chevrons-left" d="M499.499 264.84l-183.168 183.168 183.168 183.168c16.683 16.683 16.683 43.691 0 60.331s-43.691 16.683-60.331 0l-213.333-213.333c-16.683-16.683-16.683-43.691 0-60.331l213.333-213.333c16.683-16.683 43.691-16.683 60.331 0s16.683 43.691 0 60.331zM798.165 264.84l-183.168 183.168 183.168 183.168c16.683 16.683 16.683 43.691 0 60.331s-43.691 16.683-60.331 0l-213.333-213.333c-16.683-16.683-16.683-43.691 0-60.331l213.333-213.333c16.683-16.683 43.691-16.683 60.331 0s16.683 43.691 0 60.331z" />
<glyph unicode="&#xe948;" glyph-name="chevrons-right" data-tags="chevrons-right" d="M584.833 204.494l213.333 213.333c16.683 16.683 16.683 43.691 0 60.331l-213.333 213.333c-16.683 16.683-43.691 16.683-60.331 0s-16.683-43.691 0-60.331l183.168-183.168-183.168-183.168c-16.683-16.683-16.683-43.691 0-60.331s43.691-16.683 60.331 0zM286.166 204.494l213.333 213.333c16.683 16.683 16.683 43.691 0 60.331l-213.333 213.333c-16.683 16.683-43.691 16.683-60.331 0s-16.683-43.691 0-60.331l183.168-183.168-183.168-183.168c-16.683-16.683-16.683-43.691 0-60.331s43.691-16.683 60.331 0z" />
<glyph unicode="&#xe949;" glyph-name="chevrons-up" data-tags="chevrons-up" d="M755.506 520.832l-213.333 213.333c-16.683 16.683-43.691 16.683-60.331 0l-213.333-213.333c-16.683-16.683-16.683-43.691 0-60.331s43.691-16.683 60.331 0l183.168 183.168 183.168-183.168c16.683-16.683 43.691-16.683 60.331 0s16.683 43.691 0 60.331zM755.506 222.165l-213.333 213.333c-16.683 16.683-43.691 16.683-60.331 0l-213.333-213.333c-16.683-16.683-16.683-43.691 0-60.331s43.691-16.683 60.331 0l183.168 183.168 183.168-183.168c16.683-16.683 43.691-16.683 60.331 0s16.683 43.691 0 60.331z" />
<glyph unicode="&#xe94a;" glyph-name="chevron-down1" data-tags="chevron-down" d="M231.219 586.342c22.323 22.835 53.402 24.627 80.691 0l200.090-191.846 200.090 191.846c27.29 24.627 58.419 22.835 80.589 0 22.323-22.784 20.89-61.286 0-82.688-20.787-21.402-240.384-230.502-240.384-230.502-11.11-11.418-25.702-17.152-40.294-17.152s-29.184 5.734-40.397 17.152c0 0-219.494 209.101-240.384 230.502-20.941 21.402-22.323 59.904 0 82.688z" />
<glyph unicode="&#xe94b;" glyph-name="chevron-left1" data-tags="chevron-left" d="M637.542 741.581c22.835-22.323 24.627-53.402 0-80.691l-191.846-200.090 191.846-200.090c24.627-27.29 22.835-58.419 0-80.589-22.784-22.323-61.286-20.89-82.688 0-21.402 20.787-230.502 240.384-230.502 240.384-11.418 11.11-17.152 25.702-17.152 40.294s5.734 29.184 17.152 40.397c0 0 209.101 219.494 230.502 240.384 21.402 20.941 59.904 22.323 82.688 0z" />
<glyph unicode="&#xe94c;" glyph-name="chevron-right1" data-tags="chevron-right" d="M469.146 741.581c21.402-20.89 230.502-240.384 230.502-240.384 11.418-11.213 17.152-25.805 17.152-40.397s-5.734-29.184-17.152-40.294c0 0-209.101-219.597-230.502-240.384-21.402-20.89-59.904-22.323-82.688 0-22.835 22.221-24.627 53.299 0 80.589l191.846 200.090-191.846 200.090c-24.627 27.29-22.835 58.419 0 80.691 22.784 22.323 61.286 20.941 82.688 0z" />
<glyph unicode="&#xe94d;" glyph-name="chevron-up1" data-tags="chevron-up" d="M792.781 335.258c-22.323-22.835-53.402-24.627-80.691 0l-200.090 191.846-200.090-191.846c-27.29-24.627-58.419-22.835-80.589 0-22.323 22.784-20.89 61.286 0 82.688 20.787 21.402 240.384 230.502 240.384 230.502 11.11 11.418 25.702 17.152 40.294 17.152s29.184-5.734 40.397-17.152c0 0 219.494-209.101 240.384-230.502 20.941-21.402 22.323-59.904 0-82.688z" />
<glyph unicode="&#xe94e;" glyph-name="chevron-small-down" data-tags="chevron-small-down" d="M687.002 570.419c13.875 13.722 36.301 13.722 50.074 0 13.824-13.722 13.926-35.891 0-49.613l-200.090-196.096c-13.824-13.722-36.198-13.722-50.125 0l-200.090 196.096c-13.824 13.67-13.824 35.891 0 49.613 13.875 13.722 36.301 13.722 50.074 0l175.155-160.819 175.002 160.819z" />
<glyph unicode="&#xe94f;" glyph-name="chevron-small-left" data-tags="chevron-small-left" d="M621.619 285.798c13.722-13.875 13.722-36.301 0-50.074-13.722-13.824-35.891-13.926-49.613 0l-196.096 200.090c-13.722 13.824-13.722 36.198 0 50.125l196.096 200.090c13.67 13.824 35.891 13.824 49.613 0 13.722-13.875 13.722-36.301 0-50.074l-160.819-175.155 160.819-175.002z" />
<glyph unicode="&#xe950;" glyph-name="chevron-small-right" data-tags="chevron-small-right" d="M563.2 460.8l-160.819 175.104c-13.722 13.824-13.722 36.198 0 50.074 13.722 13.824 35.891 13.824 49.613 0l196.096-200.090c13.722-13.875 13.722-36.301 0-50.125l-196.096-200.090c-13.67-13.926-35.891-13.824-49.613 0-13.722 13.773-13.722 36.198 0 50.074l160.819 175.053z" />
<glyph unicode="&#xe951;" glyph-name="chevron-small-up" data-tags="chevron-small-up" d="M336.998 351.181c-13.875-13.722-36.301-13.722-50.074 0s-13.926 35.891 0 49.613l200.090 196.096c13.824 13.722 36.198 13.722 50.125 0l200.090-196.096c13.824-13.67 13.824-35.891 0-49.613-13.875-13.722-36.301-13.722-50.125 0l-175.104 160.819-175.002-160.819z" />
<glyph unicode="&#xe952;" glyph-name="chevron-thin-down" data-tags="chevron-thin-down" d="M891.802 660.019c13.926 13.722 36.301 13.722 50.125 0s13.875-35.891 0-49.613l-404.89-400.896c-13.824-13.722-36.198-13.722-50.125 0l-404.89 400.896c-13.824 13.722-13.824 35.891 0 49.613 13.875 13.722 36.301 13.722 50.125 0l379.853-365.619 379.802 365.619z" />
<glyph unicode="&#xe953;" glyph-name="chevron-thin-left" data-tags="chevron-thin-left" d="M711.219 80.998c13.722-13.926 13.722-36.301 0-50.125s-35.891-13.875-49.613 0l-400.896 404.89c-13.722 13.824-13.722 36.198 0 50.125l400.896 404.89c13.722 13.824 35.891 13.824 49.613 0 13.722-13.875 13.722-36.301 0-50.125l-365.619-379.853 365.619-379.802z" />
<glyph unicode="&#xe954;" glyph-name="chevron-thin-right" data-tags="chevron-thin-right" d="M678.4 460.8l-365.619 379.904c-13.722 13.824-13.722 36.198 0 50.125 13.722 13.824 35.891 13.824 49.613 0l400.896-404.89c13.722-13.875 13.722-36.301 0-50.125l-400.896-404.89c-13.722-13.875-35.891-13.824-49.613 0-13.722 13.773-13.722 36.198 0 50.125l365.619 379.75z" />
<glyph unicode="&#xe955;" glyph-name="chevron-thin-up" data-tags="chevron-thin-up" d="M132.198 261.581c-13.926-13.722-36.301-13.722-50.125 0s-13.875 35.891 0 49.613l404.89 400.896c13.824 13.722 36.198 13.722 50.125 0l404.89-400.896c13.824-13.722 13.824-35.891 0-49.613-13.875-13.722-36.301-13.722-50.074 0l-379.904 365.619-379.802-365.619z" />
<glyph unicode="&#xe956;" glyph-name="chevron-with-circle-down" data-tags="chevron-with-circle-down" d="M640.256 527.462l-128.256-117.862-128.307 117.862c-10.138 10.035-26.522 10.035-36.762 0-10.086-10.035-10.086-26.368 0-36.352l146.637-143.718c10.189-10.035 26.624-10.035 36.71 0l146.637 143.718c10.189 9.984 10.138 26.317 0 36.352-10.086 10.035-26.47 10.035-36.659 0zM512 952.32c-271.462 0-491.52-220.058-491.52-491.52 0-271.514 220.058-491.52 491.52-491.52s491.52 220.006 491.52 491.52c0 271.462-220.058 491.52-491.52 491.52zM512 33.075c-236.288 0-427.725 191.488-427.725 427.725s191.437 427.725 427.725 427.725c236.186 0 427.725-191.488 427.725-427.725s-191.539-427.725-427.725-427.725z" />
<glyph unicode="&#xe957;" glyph-name="chevron-with-circle-left" data-tags="chevron-with-circle-left" d="M578.662 613.069c-10.035 10.086-26.368 10.086-36.352 0l-143.718-146.688c-10.035-10.189-10.035-26.624 0-36.71l143.718-146.637c9.984-10.189 26.317-10.138 36.352 0 10.035 10.086 10.035 26.522 0 36.71l-117.862 128.256 117.862 128.307c10.035 10.138 10.035 26.522 0 36.762zM512 939.52c-271.462 0-491.52-220.058-491.52-491.52 0-271.514 220.058-491.52 491.52-491.52s491.52 220.006 491.52 491.52c0 271.462-220.058 491.52-491.52 491.52zM512 20.275c-236.288 0-427.725 191.488-427.725 427.725s191.437 427.725 427.725 427.725c236.186 0 427.725-191.488 427.725-427.725s-191.539-427.725-427.725-427.725z" />
<glyph unicode="&#xe958;" glyph-name="chevron-with-circle-right" data-tags="chevron-with-circle-right" d="M563.2 448l-117.862 128.307c-10.035 10.138-10.035 26.573 0 36.762 10.035 10.086 26.368 10.086 36.352 0l143.718-146.637c10.035-10.189 10.035-26.624 0-36.71l-143.718-146.637c-9.984-10.189-26.317-10.138-36.352 0-10.035 10.086-10.035 26.522 0 36.71l117.862 128.205zM512 939.52c271.462 0 491.52-220.058 491.52-491.52 0-271.514-220.058-491.52-491.52-491.52s-491.52 220.006-491.52 491.52c0 271.462 220.058 491.52 491.52 491.52zM512 20.275c236.186 0 427.725 191.488 427.725 427.725s-191.539 427.725-427.725 427.725c-236.288 0-427.725-191.488-427.725-427.725-0.051-236.237 191.437-427.725 427.725-427.725z" />
<glyph unicode="&#xe959;" glyph-name="chevron-with-circle-up" data-tags="chevron-with-circle-up" d="M530.381 561.408c-10.189 10.035-26.624 10.035-36.71 0l-146.637-143.718c-10.189-9.984-10.138-26.317 0-36.352 10.086-10.035 26.522-10.035 36.71 0l128.256 117.862 128.307-117.862c10.138-10.035 26.522-10.035 36.762 0 10.086 10.035 10.086 26.368 0 36.352l-146.688 143.718zM512 939.52c-271.462 0-491.52-220.058-491.52-491.52 0-271.514 220.058-491.52 491.52-491.52s491.52 220.006 491.52 491.52c0 271.462-220.058 491.52-491.52 491.52zM512 20.275c-236.288 0-427.725 191.488-427.725 427.725s191.437 427.725 427.725 427.725c236.186 0 427.725-191.488 427.725-427.725s-191.539-427.725-427.725-427.725z" />
<glyph unicode="&#xe95a;" d="M253.636 840.182c0 12.853 10.42 23.273 23.273 23.273h621.381c12.856 0 23.273-10.42 23.273-23.273v-203.903c0-12.853-10.417-23.273-23.273-23.273h-68.101c-28.221 0-50.316 16.782-59.904 42.924-4.208 11.47-6.321 24.712-7.647 36.365l-87.231 0.536v-505.55c22.914-4.017 47.551-10.133 62.436-29.556 8.136-10.617 12.134-23.608 12.134-38.367v-63.465c0-12.856-10.417-23.273-23.273-23.273h-278.209c-12.853 0-23.273 10.417-23.273 23.273v63.465c0 14.755 4.111 27.699 12.258 38.251 14.897 19.298 39.437 25.726 62.309 29.78v505.708h-88.060c-1.078-11.342-2.661-24.317-7.036-36.829-9.383-26.831-32.096-43.26-60.67-43.26h-67.116c-12.853 0-23.273 10.42-23.273 23.273v203.903zM300.182 816.909v-157.358h43.843c9.112 0 13.769 3.604 16.733 12.079 3.773 10.788 4.588 28.888 6.553 47.218 1.267 11.825 11.247 20.792 23.14 20.792h132.613c12.856 0 23.273-10.42 23.273-23.273v-548.516c0-11.11-7.852-20.671-18.753-22.831-14.969-2.965-30.348-3.956-44.097-9.742-7.564-3.179-11.715-7.461-11.715-15.923v-40.192h231.661v40.192c0 8.457-3.752 12.758-11.385 15.914-14.085 5.818-29.798 6.656-44.614 9.714-10.813 2.23-18.572 11.753-18.572 22.793v548.468c0 6.197 2.472 12.138 6.87 16.507 4.394 4.368 10.352 6.804 16.547 6.765l131.593-0.808c11.813-0.073 21.699-8.987 22.989-20.732 2.029-18.46 2.607-33.698 7.121-46.020 2.979-8.111 7.303-12.406 16.207-12.406h44.828v157.358h-574.835z" />
<glyph unicode="&#xe95b;" glyph-name="triangle-down" data-tags="triangle-down" d="M256 665.6h512l-256-460.8-256 460.8z" />
<glyph unicode="&#xe95c;" glyph-name="triangle-left" data-tags="triangle-left" d="M716.8 716.8v-512l-460.8 256 460.8 256z" />
<glyph unicode="&#xe95d;" glyph-name="triangle-right" data-tags="triangle-right" d="M768 460.8l-460.8-256v512l460.8-256z" />
<glyph unicode="&#xe95e;" glyph-name="triangle-up" data-tags="triangle-up" d="M768 256h-512l256 460.8 256-460.8z" />
<glyph unicode="&#xe967;" glyph-name="fast-rewind_outline" data-tags="rewind" d="M426.664 236.592l-271.829 211.413 271.829 211.413zM912.466 115.674c7.168-5.632 16.299-9.003 26.197-9.003 23.552 0 42.667 19.115 42.667 42.667v597.333c0.043 9.088-2.901 18.347-9.003 26.197-14.464 18.603-41.259 21.931-59.861 7.467l-384-298.667c-2.603-1.963-5.205-4.523-7.467-7.467-5.973-7.68-8.917-16.725-9.003-25.771v298.24c0.043 9.088-2.901 18.347-9.003 26.197-14.464 18.603-41.259 21.931-59.861 7.467l-384-298.667c-2.603-1.963-5.205-4.523-7.467-7.467-14.464-18.603-11.136-45.397 7.467-59.861l384-298.667c7.168-5.632 16.299-9.003 26.197-9.003 23.552 0 42.667 19.115 42.667 42.667v298.283c0.128-12.587 5.76-24.96 16.469-33.28zM895.997 236.592l-271.829 211.413 271.829 211.413z" />
<glyph unicode="&#xe968;" glyph-name="fast-forward_outline" data-tags="fast-forward" d="M597.337 236.59v422.827l271.829-211.413zM128.004 236.59v422.827l271.829-211.413zM111.535 115.672l384 298.667c10.709 8.32 16.341 20.736 16.469 33.28v-298.283c0-23.552 19.115-42.667 42.667-42.667 9.899 0 19.029 3.371 26.197 9.003l384 298.667c18.603 14.464 21.931 41.259 7.467 59.861-2.304 2.944-4.907 5.504-7.467 7.467l-384 298.667c-18.603 14.464-45.397 11.136-59.861-7.467-6.101-7.851-9.045-17.109-9.003-26.197v-298.24c-0.085 9.003-3.029 18.091-9.003 25.771-2.304 2.944-4.907 5.504-7.467 7.467l-384 298.667c-18.603 14.464-45.397 11.136-59.861-7.467-6.101-7.851-9.045-17.109-9.003-26.197v-597.333c0-23.552 19.115-42.667 42.667-42.667 9.899 0 19.029 3.371 26.197 9.003z" />
<glyph unicode="&#xe969;" glyph-name="dot-single" data-tags="dot-single" d="M314.007 448.044c0-109.346 88.737-197.992 198.083-197.992s197.903 88.737 197.903 197.992c0 109.346-88.557 197.903-197.903 197.903s-198.083-88.557-198.083-197.903z" />
<glyph unicode="&#xe96a;" glyph-name="skip-back_outline" data-tags="skip-back" d="M784 73.34c7.253-5.803 16.555-9.344 26.667-9.344 23.552 0 42.667 19.115 42.667 42.667v682.667c0.043 9.301-3.029 18.731-9.344 26.667-14.72 18.389-41.557 21.376-59.989 6.656l-426.667-341.333c-2.261-1.792-4.608-4.053-6.656-6.656-14.72-18.389-11.733-45.269 6.656-59.989zM768 195.452l-315.691 252.544 315.691 252.544zM256 149.329v597.333c0 23.552-19.115 42.667-42.667 42.667s-42.667-19.115-42.667-42.667v-597.333c0-23.552 19.115-42.667 42.667-42.667s42.667 19.115 42.667 42.667z" />
<glyph unicode="&#xe96b;" glyph-name="dot-single1" data-tags="dot-single" d="M228.655 448.062c0-156.484 126.991-283.344 283.475-283.344s283.217 126.991 283.217 283.344c0 156.484-126.733 283.217-283.217 283.217s-283.475-126.733-283.475-283.217z" />
<glyph unicode="&#xe96c;" glyph-name="skip-forward_outline" data-tags="skip-forward" d="M240 822.66c-7.253 5.803-16.555 9.344-26.667 9.344-23.552 0-42.667-19.115-42.667-42.667v-682.667c-0.043-9.301 3.029-18.731 9.344-26.667 14.72-18.389 41.557-21.376 59.989-6.656l426.667 341.333c2.261 1.792 4.608 4.053 6.656 6.656 14.72 18.389 11.733 45.269-6.656 59.989zM256 700.548l315.691-252.544-315.691-252.544zM768 746.671v-597.333c0-23.552 19.115-42.667 42.667-42.667s42.667 19.115 42.667 42.667v597.333c0 23.552-19.115 42.667-42.667 42.667s-42.667-19.115-42.667-42.667z" />
<glyph unicode="&#xe96d;" glyph-name="dot-single2" data-tags="dot-single" d="M143.303 448.080c0-203.622 165.245-368.696 368.867-368.696s368.531 165.245 368.531 368.696c0 203.622-164.909 368.531-368.531 368.531s-368.867-164.909-368.867-368.531z" />
<glyph unicode="&#xe970;" glyph-name="cross1" data-tags="x" d="M225.835 686.635l225.835-225.835-225.835-225.835c-16.683-16.683-16.683-43.691 0-60.331s43.691-16.683 60.331 0l225.835 225.835 225.835-225.835c16.683-16.683 43.691-16.683 60.331 0s16.683 43.691 0 60.331l-225.835 225.835 225.835 225.835c16.683 16.683 16.683 43.691 0 60.331s-43.691 16.683-60.331 0l-225.835-225.835-225.835 225.835c-16.683 16.683-43.691 16.683-60.331 0s-16.683-43.691 0-60.331z" />
<glyph unicode="&#xe976;" glyph-name="search" data-tags="search" d="M684.42 283.482c-1.451-1.109-2.859-2.347-4.224-3.712s-2.56-2.731-3.712-4.224c-26.752-25.771-58.24-46.549-93.013-60.971-35.072-14.507-73.6-22.571-114.133-22.571s-79.061 8.064-114.219 22.613c-36.523 15.104-69.419 37.291-96.981 64.896s-49.749 60.459-64.896 96.981c-14.507 35.115-22.571 73.643-22.571 114.176s8.064 79.061 22.613 114.219c15.104 36.48 37.291 69.419 64.853 96.981s60.501 49.749 96.981 64.853c35.157 14.549 73.685 22.613 114.219 22.613s79.061-8.064 114.219-22.613c36.523-15.104 69.419-37.291 96.981-64.896s49.749-60.459 64.896-96.981c14.507-35.115 22.571-73.643 22.571-114.176s-8.064-79.061-22.613-114.219c-14.421-34.773-35.2-66.261-60.971-93.013zM926.169 94.17l-156.8 156.8c22.4 27.989 40.96 59.179 54.869 92.843 18.773 45.312 29.099 94.933 29.099 146.859s-10.325 101.547-29.099 146.859c-19.456 47.019-48 89.301-83.371 124.672s-77.653 63.915-124.672 83.371c-45.312 18.773-94.933 29.099-146.859 29.099s-101.547-10.325-146.859-29.099c-47.019-19.456-89.301-48-124.672-83.371s-63.915-77.653-83.371-124.672c-18.773-45.312-29.099-94.933-29.099-146.859s10.325-101.547 29.099-146.859c19.456-47.019 48-89.301 83.371-124.672s77.653-63.915 124.672-83.371c45.312-18.773 94.933-29.099 146.859-29.099s101.547 10.325 146.859 29.099c33.621 13.952 64.853 32.512 92.843 54.869l156.8-156.8c16.683-16.683 43.691-16.683 60.331 0s16.683 43.691 0 60.331z" />
<glyph unicode="&#xe977;" glyph-name="zoom-out" data-tags="zoom-out" d="M684.419 283.483c-1.451-1.109-2.859-2.347-4.224-3.712s-2.56-2.731-3.712-4.224c-53.675-51.755-126.677-83.541-207.147-83.541-82.475 0-157.099 33.365-211.2 87.467s-87.467 128.725-87.467 211.2 33.365 157.099 87.467 211.2 128.725 87.467 211.2 87.467 157.099-33.365 211.2-87.467 87.467-128.725 87.467-211.2c0-80.469-31.787-153.472-83.584-207.189zM926.168 94.171l-156.8 156.8c52.523 65.707 83.968 149.035 83.968 239.701 0 106.027-43.008 202.069-112.469 271.531s-165.504 112.469-271.531 112.469-202.069-43.008-271.531-112.469-112.469-165.504-112.469-271.531 43.008-202.069 112.469-271.531 165.504-112.469 271.531-112.469c90.667 0 173.995 31.445 239.701 83.968l156.8-156.8c16.683-16.683 43.691-16.683 60.331 0s16.683 43.691 0 60.331zM341.336 448.006h256c23.552 0 42.667 19.115 42.667 42.667s-19.115 42.667-42.667 42.667h-256c-23.552 0-42.667-19.115-42.667-42.667s19.115-42.667 42.667-42.667z" />
<glyph unicode="&#xe978;" glyph-name="zoom-in" data-tags="zoom-in" d="M684.419 283.483c-1.451-1.109-2.859-2.347-4.224-3.712s-2.56-2.731-3.712-4.224c-53.675-51.755-126.677-83.541-207.147-83.541-82.475 0-157.099 33.365-211.2 87.467s-87.467 128.725-87.467 211.2 33.365 157.099 87.467 211.2 128.725 87.467 211.2 87.467 157.099-33.365 211.2-87.467 87.467-128.725 87.467-211.2c0-80.469-31.787-153.472-83.584-207.189zM926.168 94.171l-156.8 156.8c52.523 65.707 83.968 149.035 83.968 239.701 0 106.027-43.008 202.069-112.469 271.531s-165.504 112.469-271.531 112.469-202.069-43.008-271.531-112.469-112.469-165.504-112.469-271.531 43.008-202.069 112.469-271.531 165.504-112.469 271.531-112.469c90.667 0 173.995 31.445 239.701 83.968l156.8-156.8c16.683-16.683 43.691-16.683 60.331 0s16.683 43.691 0 60.331zM341.336 448.006h85.333v-85.333c0-23.552 19.115-42.667 42.667-42.667s42.667 19.115 42.667 42.667v85.333h85.333c23.552 0 42.667 19.115 42.667 42.667s-19.115 42.667-42.667 42.667h-85.333v85.333c0 23.552-19.115 42.667-42.667 42.667s-42.667-19.115-42.667-42.667v-85.333h-85.333c-23.552 0-42.667-19.115-42.667-42.667s19.115-42.667 42.667-42.667z" />
<glyph unicode="&#xe97c;" glyph-name="wifi" data-tags="wifi" d="M240.64 391.765c41.173 34.304 86.827 59.477 134.613 75.819 49.408 16.896 101.205 24.32 152.704 22.485 46.72-1.664 93.141-10.965 137.344-27.733 43.307-16.427 84.48-40.064 121.685-70.741 18.176-14.976 45.056-12.416 60.075 5.76s12.416 45.056-5.76 60.075c-44.459 36.693-93.781 64.981-145.707 84.693-52.949 20.096-108.587 31.232-164.565 33.237-61.739 2.219-123.904-6.699-183.339-27.051-57.472-19.669-112.299-49.92-161.621-91.008-18.091-15.061-20.565-41.984-5.461-60.075s41.984-20.565 60.075-5.461zM88.789 544c61.611 54.315 130.645 94.592 203.307 121.088 75.264 27.435 154.496 40.192 233.429 38.357 74.368-1.707 148.48-16.299 218.709-43.605 68.437-26.624 133.205-65.323 191.061-115.925 17.749-15.531 44.672-13.739 60.203 4.011s13.739 44.672-4.011 60.203c-65.408 57.259-138.795 101.077-216.32 131.243-79.531 30.933-163.456 47.488-247.68 49.408-89.387 2.048-179.243-12.373-264.661-43.52-82.475-30.123-160.768-75.819-230.443-137.259-17.707-15.573-19.371-42.539-3.797-60.203s42.539-19.371 60.203-3.797zM388.651 237.867c20.821 14.805 43.349 25.301 66.475 31.701 23.936 6.613 48.683 8.875 73.173 6.955 38.016-2.987 75.307-16.128 107.648-38.784 19.285-13.525 45.909-8.832 59.435 10.453s8.832 45.909-10.453 59.435c-44.928 31.488-96.811 49.792-149.931 53.973-34.219 2.688-68.949-0.469-102.613-9.771-32.64-9.003-64.171-23.765-93.184-44.373-19.2-13.653-23.723-40.277-10.069-59.477s40.277-23.723 59.477-10.069zM554.667 106.667c0 23.552-19.115 42.667-42.667 42.667s-42.667-19.115-42.667-42.667 19.115-42.667 42.667-42.667 42.667 19.115 42.667 42.667z" />
<glyph unicode="&#xe97d;" glyph-name="wifi-off" data-tags="wifi-off" d="M694.656 449.749c33.664-16.427 63.915-36.565 88.064-57.472 17.835-15.403 44.757-13.483 60.203 4.352s13.483 44.757-4.352 60.203c-29.995 25.984-66.517 50.133-106.496 69.675-21.163 10.325-46.72 1.536-57.045-19.627s-1.536-46.72 19.627-57.045zM460.373 701.995c84.181 6.784 165.76-3.029 241.579-26.667 78.805-24.576 151.552-64.085 214.613-115.541 6.315-5.163 12.501-10.411 18.603-15.787 17.664-15.573 44.629-13.867 60.203 3.797s13.867 44.629-3.797 60.203c-6.912 6.101-13.952 12.032-21.077 17.877-71.381 58.24-153.771 103.040-243.157 130.901-86.101 26.837-178.603 37.931-273.835 30.251-23.467-1.877-40.96-22.443-39.083-45.909s22.485-41.003 45.952-39.083zM388.651 237.867c20.821 14.805 43.349 25.301 66.475 31.701 23.936 6.613 48.683 8.875 73.173 6.955 38.016-2.987 75.307-16.128 107.648-38.784 9.941-6.955 21.845-9.088 32.853-6.912l282.325-282.325c16.683-16.683 43.691-16.683 60.331 0s16.683 43.691 0 60.331l-544 544c-2.133 2.688-4.523 5.12-7.211 7.211l-387.413 387.456c-16.683 16.683-43.691 16.683-60.331 0-16.64-16.64-16.683-43.648 0-60.331l174.421-174.421c-53.632-26.837-106.24-61.995-154.581-104.747-17.664-15.616-19.328-42.581-3.712-60.245s42.581-19.328 60.203-3.712c50.816 44.928 106.624 80.085 162.219 104.576l99.115-99.115c-57.941-19.499-113.963-50.219-164.224-92.203-18.091-15.104-20.48-42.027-5.376-60.117s42.027-20.48 60.117-5.376c54.187 45.312 116.224 74.667 178.688 88.491l118.997-118.997c-1.109 0.085-2.219 0.213-3.328 0.299-34.219 2.688-68.949-0.469-102.613-9.771-32.64-9.003-64.171-23.765-93.184-44.373-19.2-13.653-23.723-40.277-10.069-59.477s40.277-23.723 59.477-10.069zM554.667 106.667c0 23.552-19.115 42.667-42.667 42.667s-42.667-19.115-42.667-42.667 19.115-42.667 42.667-42.667 42.667 19.115 42.667 42.667z" />
<glyph unicode="&#xe97e;" glyph-name="phone1" data-tags="phone" d="M962.941 243.793c0.66 29.422-9.725 57.855-27.733 80.066-18.956 23.323-46.524 39.848-79.324 44.504-32.966 4.038-69.847 12.939-106.562 26.62-17.843 6.552-36.798 8.983-55.383 7.17-27.321-2.638-53.858-14.382-74.957-35.232l-29.669-29.669c-72.937 46.029-138.457 109.9-188.853 189.101l29.917 29.917c13.269 13.598 23.199 29.917 29.133 47.636 8.736 26.043 8.819 55.053-1.607 82.868-11.909 31.029-21.345 67.745-26.537 106.933-4.285 29.422-18.791 55.424-39.683 74.339-22.21 20.027-51.756 32.1-83.527 31.771h-123.457c-3.627 0-7.499-0.165-11.25-0.494-33.955-3.091-63.542-19.697-83.774-43.927s-31.235-56.33-28.144-90.615c12.362-126.754 56.248-257.258 132.523-375.070 61.893-99.434 150.325-190.502 259.525-259.854 105.821-69.929 234.223-117.936 374.41-133.141 3.791-0.371 7.87-0.536 11.868-0.536 34.12 0.124 65.025 14.134 87.277 36.551s35.974 53.446 35.85 87.401zM880.527 243.793v-123.622c0.042-11.538-4.492-21.84-11.95-29.34s-17.678-12.157-29.093-12.197c-129.762 13.846-245.637 57.319-340.497 119.996-100.052 63.583-179.623 145.751-234.964 234.635-69.929 107.964-109.406 225.858-120.49 339.467-0.989 11.044 2.638 21.675 9.437 29.834s16.607 13.598 27.939 14.629l127.249 0.206c11.168 0.124 20.892-3.874 28.309-10.549 7.005-6.346 11.868-15.082 13.31-25.054 5.852-44.175 16.813-87.236 31.194-124.653 3.338-8.901 3.296-18.42 0.412-27.115-2.019-5.975-5.398-11.579-9.972-16.277l-52.003-51.963c-13.351-13.351-15.618-33.543-6.676-49.49 65.273-114.763 158.195-204.266 262.945-262.821 16.36-9.148 36.345-5.934 49.243 6.841l52.334 52.334c6.841 6.758 15.535 10.59 24.642 11.497 6.263 0.618 12.775-0.206 18.914-2.472 42.114-15.7 85.299-26.208 125.024-31.071 9.931-1.401 19.038-6.841 25.343-14.629 6.057-7.459 9.519-16.978 9.313-28.104z" />
<glyph unicode="&#xe97f;" glyph-name="phone-call" data-tags="phone-call" d="M607.058 674.285c19.191-3.756 36.896-10.648 52.662-20.058 16.302-9.699 30.706-22.163 42.674-36.649 17.334-21.048 29.591-46.388 35.163-73.999 4.499-22.328 26.29-36.773 48.617-32.274s36.773 26.29 32.274 48.617c-8.254 40.941-26.454 78.704-52.373 110.152-17.911 21.709-39.496 40.405-64.135 55.055-23.854 14.197-50.434 24.557-79.075 30.128-22.369 4.375-44.036-10.235-48.411-32.605s10.235-44.036 32.605-48.411zM610.401 838.833c40.652-4.499 78.663-16.22 112.959-33.636 35.493-18.035 67.107-42.344 93.603-71.358 46.141-50.516 76.682-115.312 85.101-186.505 2.682-22.616 23.195-38.836 45.811-36.154s38.836 23.195 36.154 45.811c-10.442 88.609-48.535 169.459-106.108 232.522-33.1 36.236-72.637 66.612-117.127 89.269-43.045 21.915-90.631 36.483-141.271 42.138-22.658 2.518-43.045-13.826-45.563-36.483s13.826-43.045 36.443-45.563zM943.046 222.82c0.33 14.033-2.063 28.559-6.686 42.138-4.787 13.909-11.928 26.785-21.090 38.052-9.657 11.886-21.502 21.997-35.121 29.715-13.166 7.429-27.858 12.547-44.325 14.858-33.017 4.044-69.955 12.959-106.727 26.661-17.871 6.562-36.855 8.997-55.468 7.181-13.867-1.362-27.569-5.035-40.445-11.061-12.505-5.861-24.185-13.909-34.586-24.226l-29.715-29.715c-73.050 46.1-138.671 110.070-189.145 189.393l29.963 29.963c13.29 13.619 23.235 29.963 29.178 47.71 4.416 13.206 6.644 27.239 6.397 41.477-0.248 13.826-2.848 27.734-8.006 41.519-11.928 31.077-21.378 67.85-26.578 107.099-2.105 14.568-6.728 28.271-13.372 40.735-6.851 12.711-15.807 24.144-26.414 33.719-11.309 10.194-24.515 18.324-39.043 23.814-14.033 5.324-29.262 8.172-44.614 8.006h-123.648c-3.632 0-7.511-0.165-11.267-0.495-16.633-1.486-32.274-6.273-46.306-13.619-14.568-7.635-27.281-18.035-37.598-30.376s-18.242-26.785-23.153-42.468c-4.705-15.147-6.604-31.366-5.076-48.287 12.381-126.95 56.335-257.656 132.728-375.65 61.989-99.588 150.557-190.796 259.926-260.256 105.984-70.037 234.585-118.118 374.989-133.347 3.797-0.371 7.882-0.537 11.886-0.537 16.715 0.082 32.687 3.467 47.338 9.575 15.147 6.356 28.725 15.6 40.074 27.033s20.471 25.093 26.702 40.281c6.025 14.652 9.286 30.706 9.204 47.214zM860.504 222.82v-123.813c0.042-5.819-1.073-11.143-3.054-15.972-2.063-5.035-5.118-9.616-8.915-13.454s-8.378-6.934-13.372-9.038c-4.787-2.023-10.111-3.137-15.766-3.178-1.486 0-2.806 0.082-3.632 0.165-126.29 13.743-242.385 57.284-337.35 120.057-100.207 63.682-179.901 146.018-235.328 234.998-70.037 108.131-109.575 226.207-120.676 339.992-0.495 5.366 0.165 10.73 1.692 15.683 1.61 5.242 4.251 10.070 7.718 14.239s7.718 7.635 12.547 10.153c4.623 2.394 9.781 4.004 15.435 4.499 1.404 0.124 2.642 0.165 3.467 0.165h123.979c5.778 0.042 10.772-0.908 15.394-2.642 4.787-1.816 9.162-4.499 12.959-7.924 3.549-3.219 6.562-7.057 8.873-11.349 2.229-4.168 3.797-8.791 4.499-13.743 5.819-44.243 16.839-87.412 31.201-124.845 1.61-4.333 2.476-8.915 2.518-13.413 0.082-4.663-0.661-9.286-2.146-13.743-2.023-5.985-5.406-11.597-9.987-16.302l-52.043-52.043c-13.372-13.372-15.642-33.595-6.686-49.567 65.373-114.94 158.44-204.581 263.351-263.227 16.385-9.162 36.401-5.943 49.319 6.851l52.415 52.415c3.343 3.301 7.181 5.943 11.267 7.842 4.21 1.981 8.749 3.219 13.413 3.673 6.273 0.619 12.794-0.206 18.943-2.476 42.179-15.724 85.431-26.248 125.217-31.119 4.581-0.661 9.451-2.352 13.743-4.787 4.457-2.518 8.419-5.901 11.68-9.863 3.095-3.797 5.489-8.13 7.099-12.794 1.568-4.54 2.352-9.41 2.229-15.353z" />
</font>
</defs>
</svg>
