<svg width="22" height="22" viewBox="0 0 22 22" fill="none" xmlns="http://www.w3.org/2000/svg">
<path fill-rule="evenodd" clip-rule="evenodd" d="M1.25 11C1.25 10.5858 1.58579 10.25 2 10.25H20C20.4142 10.25 20.75 10.5858 20.75 11C20.75 11.4142 20.4142 11.75 20 11.75H2C1.58579 11.75 1.25 11.4142 1.25 11Z" fill="black"/>
<path fill-rule="evenodd" clip-rule="evenodd" d="M10.0285 2.96967C10.3214 3.26256 10.3214 3.73744 10.0285 4.03033L3.05882 11L10.0285 17.9697C10.3214 18.2626 10.3214 18.7374 10.0285 19.0303C9.7356 19.3232 9.26072 19.3232 8.96783 19.0303L0.9375 11L8.96783 2.96967C9.26072 2.67678 9.7356 2.67678 10.0285 2.96967Z" fill="black"/>
</svg>
