<svg width="22" height="22" viewBox="0 0 22 22" fill="none" xmlns="http://www.w3.org/2000/svg">
<path fill-rule="evenodd" clip-rule="evenodd" d="M9.96984 7C7.15182 7 4.78906 9.36279 4.78906 12.1808C4.78906 14.9988 7.15184 17.3617 9.96984 17.3617H12.7422V18.5414L14.5961 17.3617H14.7417C17.6753 17.3617 20.1498 15.1333 20.1498 12.1808C20.1498 9.36279 17.7871 7 14.969 7H9.96984ZM3.78906 12.1808C3.78906 8.81052 6.59952 6 9.96984 6H14.969C18.3393 6 21.1498 8.81051 21.1498 12.1808C21.1498 15.6932 18.2522 18.2859 14.8899 18.3601L11.7422 20.363V18.3617H9.96984C6.59952 18.3617 3.78906 15.5511 3.78906 12.1808Z" fill="white"/>
<path d="M6.96984 3C4.15182 3 1.78906 5.36279 1.78906 8.18081C1.78906 10.0717 2.85285 11.7576 4.40416 12.6623V13.7902C2.2856 12.8015 0.789062 10.6401 0.789062 8.18081C0.789062 4.81052 3.59952 2 6.96984 2H11.969C15.1674 2 17.8615 4.53098 18.1282 7.66951L17.077 7.32822C16.6592 4.90196 14.4974 3 11.969 3H6.96984Z" fill="white"/>
<path d="M10.793 11.8086C10.793 11.9778 10.7429 12.1432 10.6489 12.2839C10.5548 12.4245 10.4213 12.5342 10.2649 12.599C10.1087 12.6637 9.93656 12.6806 9.77062 12.6476C9.60466 12.6146 9.45224 12.5332 9.3326 12.4135C9.21296 12.2939 9.13148 12.1414 9.09847 11.9755C9.06546 11.8095 9.08239 11.6375 9.14717 11.4812C9.21196 11.3249 9.32159 11.1913 9.46224 11.0973C9.60296 11.0033 9.76831 10.9531 9.93746 10.9531C10.1644 10.9531 10.382 11.0432 10.5424 11.2036C10.7029 11.3641 10.793 11.5817 10.793 11.8086Z" fill="white"/>
<path d="M13.8945 11.8086C13.8945 11.9778 13.8443 12.1432 13.7503 12.2839C13.6563 12.4245 13.5227 12.5342 13.3664 12.599C13.21 12.6637 13.0381 12.6806 12.8721 12.6476C12.7062 12.6146 12.5537 12.5332 12.4341 12.4135C12.3145 12.2939 12.233 12.1414 12.2 11.9755C12.167 11.8095 12.1839 11.6375 12.2487 11.4812C12.3134 11.3249 12.423 11.1913 12.5637 11.0973C12.7044 11.0033 12.8698 10.9531 13.039 10.9531C13.2659 10.9531 13.4835 11.0432 13.6439 11.2036C13.8043 11.3641 13.8945 11.5817 13.8945 11.8086Z" fill="white"/>
<path d="M16.8519 12.2839C16.9459 12.1432 16.9961 11.9778 16.9961 11.8086C16.9961 11.5817 16.906 11.3641 16.7456 11.2036C16.5851 11.0432 16.3675 10.9531 16.1407 10.9531C15.9714 10.9531 15.8061 11.0033 15.6653 11.0973C15.5247 11.1913 15.415 11.3249 15.3503 11.4812C15.2856 11.6375 15.2686 11.8095 15.3016 11.9755C15.3346 12.1414 15.4161 12.2939 15.5357 12.4135C15.6553 12.5332 15.8078 12.6146 15.9737 12.6476C16.1397 12.6806 16.3117 12.6637 16.468 12.599C16.6243 12.5342 16.758 12.4245 16.8519 12.2839Z" fill="white"/>
</svg>
