<svg width="22" height="22" viewBox="0 0 22 22" fill="none" xmlns="http://www.w3.org/2000/svg">
<path d="M9.75026 17.8387L17.7046 4.06157C17.9 3.72311 17.784 3.29033 17.4456 3.09493C17.1071 2.89952 16.6743 3.01548 16.4789 3.35394L8.52461 17.1311C8.3292 17.4695 8.44516 17.9023 8.78362 18.0977C9.12207 18.2931 9.55485 18.1772 9.75026 17.8387Z" fill="black"/>
<path fill-rule="evenodd" clip-rule="evenodd" d="M12.3642 7.7111C11.9313 7.6995 11.477 7.69336 11.0003 7.69336C7.5679 7.69336 5.29386 8.01038 3.83507 8.42836C3.10648 8.63716 2.5568 8.87794 2.16232 9.13486C1.79447 9.37432 1.45504 9.69794 1.35043 10.1164L1.34634 10.1327L1.34304 10.1492L0.871287 12.508L0.702002 13.3544H0.70337L0.532492 14.2106C0.328618 15.2321 1.11002 16.1849 2.15169 16.1849H5.6407C6.66101 16.1849 7.43711 15.2688 7.26937 14.2623L7.11805 13.3544H9.10593L9.9231 11.9391H6.28272H5.44739L5.58472 12.7631L5.87337 14.495C5.89733 14.6388 5.78646 14.7696 5.6407 14.7696H2.15169C2.00288 14.7696 1.89126 14.6335 1.92038 14.4876L2.26013 12.7853L2.42899 11.9391L2.7167 10.4974C2.73719 10.4734 2.7957 10.4112 2.93461 10.3208C3.17401 10.1649 3.58155 9.97326 4.2249 9.7889C5.50999 9.42065 7.6393 9.10863 10.9997 9.10863C11.1886 9.10863 11.3743 9.10957 11.5556 9.11155L12.3642 7.7111ZM11.8123 11.9391H15.7173H16.5526L16.4153 12.7631L16.1267 14.495C16.1027 14.6388 16.2136 14.7696 16.3593 14.7696H19.8483C19.9971 14.7696 20.1088 14.6335 20.0796 14.4876L19.7398 12.7853L19.571 11.9391L19.2833 10.4974C19.2628 10.4734 19.2043 10.4112 19.0654 10.3208C18.826 10.1649 18.4185 9.97326 17.7751 9.7889C16.8293 9.51792 15.4262 9.27733 13.4115 9.1692L14.2013 7.80121C15.9284 7.92839 17.2182 8.1571 18.1649 8.42836C18.8935 8.63716 19.4432 8.87794 19.8377 9.13486C20.2056 9.37432 20.5449 9.69794 20.6496 10.1164L20.6536 10.1327L20.6569 10.1492L21.1287 12.508L21.298 13.3544H21.2966L21.4675 14.2106C21.6714 15.2321 20.89 16.1849 19.8483 16.1849H16.3593C15.339 16.1849 14.5629 15.2688 14.7307 14.2623L14.8819 13.3544H11.0003H10.9951L11.8123 11.9391Z" fill="black"/>
</svg>
