<svg width="22" height="22" viewBox="0 0 22 22" fill="none" xmlns="http://www.w3.org/2000/svg">
<path fill-rule="evenodd" clip-rule="evenodd" d="M4.81818 3.25C3.9521 3.25 3.25 3.9521 3.25 4.81818V17.1818C3.25 18.0479 3.9521 18.75 4.81818 18.75H17.1818C18.0479 18.75 18.75 18.0479 18.75 17.1818V4.81818C18.75 3.9521 18.0479 3.25 17.1818 3.25H4.81818ZM1.75 4.81818C1.75 3.12367 3.12367 1.75 4.81818 1.75H17.1818C18.8763 1.75 20.25 3.12367 20.25 4.81818V17.1818C20.25 18.8763 18.8763 20.25 17.1818 20.25H4.81818C3.12367 20.25 1.75 18.8763 1.75 17.1818V4.81818Z" fill="black"/>
<path fill-rule="evenodd" clip-rule="evenodd" d="M8.05089 13.4942L7.71644 15.2236L9.62907 14.0161L10.0816 14.0788C10.3792 14.1201 10.6869 14.1418 11.0022 14.1418C14.0366 14.1418 15.9342 12.2746 15.9342 10.5836C15.9342 8.89257 14.0366 7.02539 11.0022 7.02539C7.96787 7.02539 6.07031 8.89257 6.07031 10.5836C6.07031 11.4602 6.53029 12.3356 7.43391 13.0241L8.05089 13.4942ZM6.99902 17.1547C6.52706 17.4425 6.18179 17.2621 6.12807 16.8535L6.67635 14.0184C5.53099 13.1457 4.82031 11.9291 4.82031 10.5836C4.82031 7.92806 7.58807 5.77539 11.0022 5.77539C14.4165 5.77539 17.1842 7.92806 17.1842 10.5836C17.1842 13.2391 14.4165 15.3918 11.0022 15.3918C10.6296 15.3918 10.2645 15.3661 9.91001 15.317L6.99902 17.1547Z" fill="black"/>
</svg>
