<svg width="22" height="22" viewBox="0 0 22 22" fill="none" xmlns="http://www.w3.org/2000/svg">
<path fill-rule="evenodd" clip-rule="evenodd" d="M16.6195 15.1758C17.0337 15.1758 17.3695 15.5116 17.3695 15.9258C17.3695 17.2579 16.9639 18.1946 16.2898 18.7843C15.6362 19.3562 14.8461 19.4993 14.2665 19.4993H10.0312C9.61704 19.4993 9.28125 19.1635 9.28125 18.7493C9.28125 18.3351 9.61704 17.9993 10.0312 17.9993H14.2665C14.6282 17.9993 15.0145 17.9071 15.3021 17.6555C15.5692 17.4217 15.8695 16.9466 15.8695 15.9258C15.8695 15.5116 16.2053 15.1758 16.6195 15.1758Z" fill="black"/>
<path fill-rule="evenodd" clip-rule="evenodd" d="M7.04559 3.08641C8.36913 2.26274 9.92886 1.99073 10.9781 2.00024C13.2922 2.02122 14.9093 2.87086 15.9417 4.0236C16.9537 5.15352 17.3683 6.53544 17.3683 7.59288V15.75H15.8683V7.59288C15.8683 6.88504 15.5771 5.86482 14.8244 5.02433C14.092 4.20665 12.8857 3.5176 10.9645 3.50018C10.1313 3.49262 8.86754 3.71931 7.83814 4.35994C6.84709 4.97669 6.07422 5.96761 6.07422 7.59288V15.75H4.57422V7.59288C4.57422 5.3729 5.6837 3.93395 7.04559 3.08641Z" fill="black"/>
<path d="M18 7.75C19.1046 7.75 20 8.6981 20 9.86765V13.6324C20 14.8019 19.1046 15.75 18 15.75H16V14.3382H18C18.3682 14.3382 18.6667 14.0222 18.6667 13.6324V9.86765C18.6667 9.4778 18.3682 9.16176 18 9.16176H16V7.75H18Z" fill="black"/>
<path d="M4 7.75C2.89543 7.75 2 8.6981 2 9.86765V13.6324C2 14.8019 2.89543 15.75 4 15.75H6V14.3382H4C3.63181 14.3382 3.33333 14.0222 3.33333 13.6324V9.86765C3.33333 9.4778 3.63181 9.16176 4 9.16176H6V7.75H4Z" fill="black"/>
</svg>
