<svg width="147" height="118" viewBox="0 0 147 118" fill="none" xmlns="http://www.w3.org/2000/svg">
<path fill-rule="evenodd" clip-rule="evenodd" d="M126.572 73.3525C127.827 68.7036 128.496 63.8177 128.496 58.7756C128.496 27.9707 103.526 3 72.7209 3C41.916 3 16.9453 27.9707 16.9453 58.7756C16.9453 89.5804 41.916 114.551 72.7209 114.551C80.1028 114.551 87.15 113.118 93.5977 110.513" fill="white"/>
<path d="M126.572 73.3525C127.827 68.7036 128.496 63.8177 128.496 58.7756C128.496 27.9707 103.526 3 72.7209 3C41.916 3 16.9453 27.9707 16.9453 58.7756C16.9453 89.5804 41.916 114.551 72.7209 114.551C80.1028 114.551 87.15 113.118 93.5977 110.513" stroke="#0D2242" stroke-width="5" stroke-linecap="round"/>
<path fill-rule="evenodd" clip-rule="evenodd" d="M12.8695 70.0977L17.4208 70.1758C16.9969 64.5508 16.9969 58.9454 17.4208 53.3595C17.8447 47.7735 19.1052 42.1402 21.1996 36.465H13.0396C7.49551 36.465 3 40.9605 3 46.5046V60.0581C3 65.538 7.39232 70.0057 12.8695 70.0977Z" fill="#3C6AD0" stroke="#0D2242" stroke-width="5" stroke-linecap="round"/>
<path fill-rule="evenodd" clip-rule="evenodd" d="M134.022 70.081L127.739 70.1758C128.664 64.5257 128.915 58.9091 128.492 53.3204C128.07 47.7345 126.531 42.1151 123.879 36.465H133.863C139.41 36.465 143.902 40.9605 143.902 46.5046V60.0414C143.902 65.5269 139.502 69.9973 134.016 70.081H134.022Z" fill="#3C6AD0" stroke="#0D2242" stroke-width="5" stroke-linecap="round"/>
<path d="M104.785 90.4458C125.235 90.7777 135.462 81.4827 135.462 62.5664" stroke="#0D2242" stroke-width="5" stroke-linecap="round"/>
<path d="M53.432 58.32C53.4314 71.1624 93.6141 71.1624 93.6141 58.4338" stroke="#0D2242" stroke-width="4" stroke-linecap="round"/>
<path d="M56 42L56 45" stroke="#0D2242" stroke-width="6" stroke-linecap="round" stroke-linejoin="round"/>
<path d="M91.0859 42L91.0859 45" stroke="#0D2242" stroke-width="6" stroke-linecap="round" stroke-linejoin="round"/>
<path d="M97.2208 83.875H86.0657C82.2152 83.875 79.0938 86.9964 79.0938 90.8469C79.0938 94.6974 82.2152 97.8189 86.0657 97.8189H97.2208C101.071 97.8189 104.193 94.6974 104.193 90.8469C104.193 86.9964 101.071 83.875 97.2208 83.875Z" fill="#FAE100" stroke="#0D2242" stroke-width="5"/>
</svg>
