<svg width="22" height="22" viewBox="0 0 22 22" fill="none" xmlns="http://www.w3.org/2000/svg">
<path d="M0.5 5.1663C0.5 3.4176 1.9176 2 3.66629 2H14.6647C16.4133 2 17.831 3.41759 17.831 5.1663V6H16.831V5.1663C16.831 3.96989 15.8611 3 14.6647 3H3.66629C2.46988 3 1.5 3.96988 1.5 5.1663V11.832C1.5 13.0284 2.46989 13.9983 3.66629 13.9983H5V14.9983H3.66629C1.91759 14.9983 0.5 13.5806 0.5 11.832V5.1663Z" fill="white"/>
<path fill-rule="evenodd" clip-rule="evenodd" d="M7.33818 6.33008C6.14115 6.33008 5.17188 7.29937 5.17188 8.49629V15.1621C5.17188 16.3591 6.14116 17.3284 7.33818 17.3284H11.8376V19.2015L14.5127 17.3284H18.3366C19.5336 17.3284 20.5029 16.3591 20.5029 15.1621V8.49629C20.5029 7.29938 19.5336 6.33008 18.3366 6.33008H7.33818ZM4.17188 8.49629C4.17188 6.74706 5.58888 5.33008 7.33818 5.33008H18.3366C20.0858 5.33008 21.5029 6.74706 21.5029 8.49629V15.1621C21.5029 16.9113 20.0858 18.3284 18.3366 18.3284H14.828L12.149 20.2043C11.5925 20.5935 10.8376 20.1778 10.8376 19.5214V18.3284H7.33818C5.58887 18.3284 4.17188 16.9113 4.17188 15.1621V8.49629Z" fill="white"/>
<path d="M9.49728 12.8325C9.95747 12.8325 10.3305 12.4594 10.3305 11.9992C10.3305 11.539 9.95747 11.166 9.49728 11.166C9.03718 11.166 8.66406 11.539 8.66406 11.9992C8.66406 12.4594 9.03718 12.8325 9.49728 12.8325Z" fill="white"/>
<path d="M12.8332 12.8325C13.2933 12.8325 13.6664 12.4594 13.6664 11.9992C13.6664 11.539 13.2933 11.166 12.8332 11.166C12.373 11.166 12 11.539 12 11.9992C12 12.4594 12.373 12.8325 12.8332 12.8325Z" fill="white"/>
<path d="M16.1613 12.8325C16.6214 12.8325 16.9946 12.4594 16.9946 11.9992C16.9946 11.539 16.6214 11.166 16.1613 11.166C15.7012 11.166 15.3281 11.539 15.3281 11.9992C15.3281 12.4594 15.7012 12.8325 16.1613 12.8325Z" fill="white"/>
</svg>
