<svg width="152" height="152" viewBox="0 0 152 152" fill="none" xmlns="http://www.w3.org/2000/svg">
<path fill-rule="evenodd" clip-rule="evenodd" d="M129.068 90.6356C130.328 85.968 131 81.0624 131 76C131 45.0712 105.929 20 75 20C44.0712 20 19 45.0712 19 76C19 106.929 44.0712 132 75 132C82.4116 132 89.4872 130.561 95.9608 127.946" fill="white"/>
<path d="M129.068 90.6356C130.328 85.968 131 81.0624 131 76C131 45.0712 105.929 20 75 20C44.0712 20 19 45.0712 19 76C19 106.929 44.0712 132 75 132C82.4116 132 89.4872 130.561 95.9608 127.946" stroke="#0D2242" stroke-width="5" stroke-linecap="round"/>
<path fill-rule="evenodd" clip-rule="evenodd" d="M14.9092 87.3669L19.4788 87.4453C19.0532 81.7977 19.0532 76.1697 19.4788 70.5613C19.9044 64.9529 21.17 59.2969 23.2728 53.5989H15.08C9.5136 53.5989 5 58.1125 5 63.6789V77.2869C5 82.7889 9.41 87.2745 14.9092 87.3669Z" fill="#3C6AD0" stroke="#0D2242" stroke-width="5" stroke-linecap="round"/>
<path fill-rule="evenodd" clip-rule="evenodd" d="M136.548 87.3501L130.24 87.4453C131.17 81.7725 131.422 76.1333 130.996 70.5221C130.573 64.9137 129.028 59.2717 126.365 53.5989H136.389C141.958 53.5989 146.469 58.1125 146.469 63.6789V77.2701C146.469 82.7777 142.05 87.2661 136.543 87.3501H136.548Z" fill="#3C6AD0" stroke="#0D2242" stroke-width="5" stroke-linecap="round"/>
<path d="M107.195 107.798C127.728 108.131 137.995 98.799 137.995 79.8066" stroke="#0D2242" stroke-width="5" stroke-linecap="round"/>
<path d="M55.6351 75.5427C55.6346 88.4368 95.979 88.4368 95.9789 75.657" stroke="#0D2242" stroke-width="4" stroke-linecap="round"/>
<path d="M58.2148 59.1562L58.2148 62.1683" stroke="#0D2242" stroke-width="6" stroke-linecap="round" stroke-linejoin="round"/>
<path d="M93.4414 59.1562L93.4414 62.1683" stroke="#0D2242" stroke-width="6" stroke-linecap="round" stroke-linejoin="round"/>
<path d="M100.221 100.875H89.0657C85.2152 100.875 82.0938 103.996 82.0938 107.847C82.0938 111.697 85.2152 114.819 89.0657 114.819H100.221C104.071 114.819 107.193 111.697 107.193 107.847C107.193 103.996 104.071 100.875 100.221 100.875Z" fill="#FAE100" stroke="#0D2242" stroke-width="5"/>
</svg>
