<svg width="22" height="22" viewBox="0 0 22 22" fill="none" xmlns="http://www.w3.org/2000/svg">
<path d="M10.7679 10.9269C10.4751 10.6339 10.0002 10.6337 9.70721 10.9265C9.41423 11.2194 9.41409 11.6942 9.7069 11.9872L10.7679 10.9269ZM12.7872 13.4006L12.4165 14.0526C12.71 14.2194 13.0787 14.1696 13.3174 13.931L12.7872 13.4006ZM15.3145 12.1148L15.0507 12.8169L15.0524 12.8175L15.3145 12.1148ZM17.4157 12.6381L17.5206 11.8955L17.5137 11.8945L17.4157 12.6381ZM18.7018 14.1331L17.9518 14.1258V14.1331H18.7018ZM18.7018 16.3757L17.9518 16.3757L17.9518 16.3787L18.7018 16.3757ZM17.0717 17.8707L16.9907 18.6164L17.0042 18.6177L17.0717 17.8707ZM8.65931 13.0499C8.36654 12.7568 7.89166 12.7567 7.59865 13.0494C7.30564 13.3422 7.30544 13.8171 7.59822 14.1101L8.65931 13.0499ZM5.50431 11.4889C5.72973 11.8364 6.19418 11.9353 6.54168 11.7099C6.88918 11.4845 6.98815 11.0201 6.76273 10.6726L5.50431 11.4889ZM3.83796 4.62966L3.09089 4.69719L3.09235 4.7107L3.83796 4.62966ZM5.32596 3.00007L5.32596 2.25007L5.32525 2.25007L5.32596 3.00007ZM7.56917 3.00007L7.56917 3.75011L7.57655 3.75004L7.56917 3.00007ZM9.06465 4.2858L9.80824 4.1877L9.80726 4.18081L9.06465 4.2858ZM9.58806 6.38632L8.88541 6.64859L8.88605 6.65028L9.58806 6.38632ZM7.7717 8.38251C7.47877 8.67536 7.4787 9.15024 7.77155 9.44317C8.0644 9.73611 8.53927 9.73618 8.83221 9.44333L7.7717 8.38251ZM9.7069 11.9872C10.5133 12.7941 11.4247 13.4888 12.4165 14.0526L13.1578 12.7486C12.283 12.2513 11.4791 11.6385 10.7679 10.9269L9.7069 11.9872ZM15.0524 12.8175C15.7838 13.0904 16.5437 13.2796 17.3176 13.3817L17.5137 11.8945C16.8519 11.8073 16.2021 11.6455 15.5767 11.4121L15.0524 12.8175ZM17.3107 13.3807C17.6814 13.4331 17.9555 13.752 17.9518 14.1258L19.4517 14.1405C19.4628 13.0135 18.6365 12.0532 17.5206 11.8955L17.3107 13.3807ZM17.9518 14.1331V16.3757H19.4518V14.1331H17.9518ZM17.9518 16.3787C17.9535 16.8049 17.5642 17.1622 17.1392 17.1238L17.0042 18.6177C18.309 18.7356 19.4571 17.6837 19.4518 16.3726L17.9518 16.3787ZM13.3174 13.931C13.7302 13.5183 13.9875 13.1964 14.3257 12.958C14.602 12.7632 14.8018 12.7234 15.0507 12.8169L15.5783 11.4128C14.7223 11.0911 14.0011 11.3515 13.4613 11.7321C12.9834 12.069 12.5295 12.5976 12.2569 12.8702L13.3174 13.931ZM17.1527 17.1251C13.9706 16.7794 10.9224 15.3148 8.65931 13.0499L7.59822 14.1101C10.1023 16.6162 13.4674 18.2336 16.9907 18.6163L17.1527 17.1251ZM6.76273 10.6726C5.56728 8.82968 4.82091 6.73219 4.58357 4.54862L3.09235 4.7107C3.35505 7.12758 4.18116 9.44915 5.50431 11.4889L6.76273 10.6726ZM5.32596 3.75007H7.56917V2.25007H5.32596V3.75007ZM7.57655 3.75004C7.95091 3.74635 8.2697 4.02066 8.32203 4.39079L9.80726 4.18081C9.64948 3.06484 8.68869 2.23902 7.56179 2.25011L7.57655 3.75004ZM8.32109 4.3839C8.42317 5.15766 8.61248 5.91738 8.88542 6.64859L10.2907 6.12405C10.0573 5.49885 9.89548 4.84927 9.8082 4.1877L8.32109 4.3839ZM8.88605 6.65028C8.97954 6.89892 8.93977 7.09849 8.74492 7.37467C8.50642 7.71272 8.18448 7.96986 7.7717 8.38251L8.83221 9.44333C9.10466 9.17096 9.63348 8.7172 9.97058 8.2394C10.3513 7.69973 10.612 6.97851 10.2901 6.12235L8.88605 6.65028ZM4.58492 4.56214C4.54668 4.13913 4.90134 3.75047 5.32667 3.75007L5.32525 2.25007C4.01951 2.2513 2.97337 3.39581 3.09101 4.69718L4.58492 4.56214Z" fill="black"/>
<path fill-rule="evenodd" clip-rule="evenodd" d="M18.5291 2.46967C18.822 2.76256 18.822 3.23744 18.5291 3.53033L3.53033 18.5291C3.23744 18.822 2.76256 18.822 2.46967 18.5291C2.17678 18.2362 2.17678 17.7613 2.46967 17.4684L17.4684 2.46967C17.7613 2.17678 18.2362 2.17678 18.5291 2.46967Z" fill="black"/>
</svg>
