<svg width="13" height="13" viewBox="0 0 13 13" fill="none" xmlns="http://www.w3.org/2000/svg">
<circle cx="6.5" cy="6.5" r="6" stroke="#CA1447"/>
<path fill-rule="evenodd" clip-rule="evenodd" d="M5.98542 7.76405L5.97321 7.67811C5.87115 6.95941 6.1959 6.46484 6.52632 6.05434C6.57787 5.9903 6.62884 5.9291 6.67834 5.86967C6.79028 5.73524 6.89473 5.60982 6.9815 5.48085C7.10457 5.29793 7.18022 5.1237 7.18022 4.93605C7.18022 4.73278 7.11697 4.5654 7.00522 4.44944C6.89409 4.33414 6.72575 4.26005 6.49622 4.26005C6.15626 4.26005 5.8535 4.42553 5.59474 4.71473L5.52702 4.79042L4.86084 4.17548L4.92496 4.1022C5.33139 3.63771 5.89311 3.30005 6.60022 3.30005C7.08639 3.30005 7.50649 3.43729 7.80622 3.70781C8.10733 3.97958 8.27622 4.37622 8.27622 4.87205C8.27622 5.46636 7.92558 5.88168 7.60399 6.26258L7.55775 6.31742C7.21712 6.72236 6.92492 7.09987 6.98758 7.65279L7.00019 7.76405H5.98542ZM6.88822 7.66405C6.88437 7.63011 6.88178 7.59679 6.88036 7.56405C6.8557 6.99477 7.18781 6.60095 7.52194 6.20473C7.84812 5.81793 8.17622 5.42886 8.17622 4.87205C8.17622 4.01467 7.64828 3.50044 6.85013 3.4133C7.64816 3.50051 8.176 4.01472 8.176 4.87202C8.176 5.42884 7.8479 5.81791 7.52172 6.2047C7.16837 6.62371 6.81728 7.04004 6.888 7.66402H6.07222L6.07222 7.66405H6.88822ZM5.52022 4.64805L5.52009 4.64793C5.79207 4.34398 6.12004 4.16002 6.496 4.16002C6.5364 4.16002 6.57536 4.16213 6.61285 4.16624C6.57543 4.16215 6.53654 4.16005 6.49622 4.16005C6.13954 4.16005 5.82606 4.32562 5.5626 4.60214C5.54833 4.61712 5.5342 4.63243 5.52022 4.64805ZM7 8.53601H6V9.53601H7V8.53601Z" fill="#CA1447"/>
</svg>
