<svg width="22" height="22" viewBox="0 0 22 22" fill="none" xmlns="http://www.w3.org/2000/svg">
<path fill-rule="evenodd" clip-rule="evenodd" d="M10.72 2.5L20.2024 11.0342C20.4969 11.2992 20.5208 11.7528 20.2557 12.0473C19.9907 12.3418 19.5371 12.3657 19.2426 12.1006L10.72 4.4303L2.1973 12.1007C1.90281 12.3657 1.44921 12.3418 1.18416 12.0473C0.919117 11.7528 0.942993 11.2992 1.23749 11.0342L10.72 2.5Z" fill="black"/>
<path fill-rule="evenodd" clip-rule="evenodd" d="M4.42052 8.85742C4.81672 8.85742 5.13791 9.17861 5.13791 9.57481V18.0514H7.90432V14.2372H13.5403V18.0514H16.3067V9.57481C16.3067 9.17861 16.6279 8.85742 17.0241 8.85742C17.4203 8.85742 17.7415 9.17861 17.7415 9.57481V19.4862H12.1055V15.6719H9.3391V19.4862H3.70312V9.57481C3.70312 9.17861 4.02431 8.85742 4.42052 8.85742Z" fill="black"/>
</svg>
