<svg width="22" height="22" viewBox="0 0 22 22" fill="none" xmlns="http://www.w3.org/2000/svg">
<path fill-rule="evenodd" clip-rule="evenodd" d="M16.7786 15.8411C16.1983 15.8411 15.7278 16.3116 15.7278 16.8919C15.7278 17.4722 16.1983 17.9427 16.7786 17.9427C17.3589 17.9427 17.8294 17.4722 17.8294 16.8919C17.8294 16.3116 17.3589 15.8411 16.7786 15.8411ZM16.7786 14.7135C15.5755 14.7135 14.6002 15.6888 14.6002 16.8919C14.6002 18.095 15.5755 19.0703 16.7786 19.0703C17.9817 19.0703 18.957 18.095 18.957 16.8919C18.957 15.6888 17.9817 14.7135 16.7786 14.7135Z" fill="black"/>
<path fill-rule="evenodd" clip-rule="evenodd" d="M11.013 15.8411C10.4327 15.8411 9.96221 16.3116 9.96221 16.8919C9.96221 17.4722 10.4327 17.9427 11.013 17.9427C11.5933 17.9427 12.0638 17.4722 12.0638 16.8919C12.0638 16.3116 11.5933 15.8411 11.013 15.8411ZM11.013 14.7135C9.80987 14.7135 8.83456 15.6888 8.83456 16.8919C8.83456 18.095 9.80987 19.0703 11.013 19.0703C12.2161 19.0703 13.1914 18.095 13.1914 16.8919C13.1914 15.6888 12.2161 14.7135 11.013 14.7135Z" fill="black"/>
<path fill-rule="evenodd" clip-rule="evenodd" d="M5.24736 15.8411C4.66703 15.8411 4.19659 16.3116 4.19659 16.8919C4.19659 17.4722 4.66703 17.9427 5.24736 17.9427C5.82768 17.9427 6.29813 17.4722 6.29813 16.8919C6.29813 16.3116 5.82768 15.8411 5.24736 15.8411ZM5.24736 14.7135C4.04425 14.7135 3.06893 15.6888 3.06893 16.8919C3.06893 18.095 4.04424 19.0703 5.24736 19.0703C6.45047 19.0703 7.42578 18.095 7.42578 16.8919C7.42578 15.6888 6.45047 14.7135 5.24736 14.7135Z" fill="black"/>
<path fill-rule="evenodd" clip-rule="evenodd" d="M16.7786 10.0228C16.1983 10.0228 15.7278 10.4932 15.7278 11.0735C15.7278 11.6539 16.1983 12.1243 16.7786 12.1243C17.3589 12.1243 17.8294 11.6539 17.8294 11.0735C17.8294 10.4932 17.3589 10.0228 16.7786 10.0228ZM16.7786 8.8951C15.5755 8.8951 14.6002 9.87042 14.6002 11.0735C14.6002 12.2766 15.5755 13.252 16.7786 13.252C17.9817 13.252 18.957 12.2766 18.957 11.0735C18.957 9.87042 17.9817 8.8951 16.7786 8.8951Z" fill="black"/>
<path fill-rule="evenodd" clip-rule="evenodd" d="M11.013 10.0228C10.4327 10.0228 9.96221 10.4932 9.96221 11.0735C9.96221 11.6539 10.4327 12.1243 11.013 12.1243C11.5933 12.1243 12.0638 11.6539 12.0638 11.0735C12.0638 10.4932 11.5933 10.0228 11.013 10.0228ZM11.013 8.8951C9.80987 8.8951 8.83456 9.87042 8.83456 11.0735C8.83456 12.2766 9.80987 13.252 11.013 13.252C12.2161 13.252 13.1914 12.2766 13.1914 11.0735C13.1914 9.87042 12.2161 8.8951 11.013 8.8951Z" fill="black"/>
<path fill-rule="evenodd" clip-rule="evenodd" d="M5.24736 10.0228C4.66703 10.0228 4.19659 10.4932 4.19659 11.0735C4.19659 11.6539 4.66703 12.1243 5.24736 12.1243C5.82768 12.1243 6.29813 11.6539 6.29813 11.0735C6.29813 10.4932 5.82768 10.0228 5.24736 10.0228ZM5.24736 8.8951C4.04425 8.8951 3.06893 9.87042 3.06893 11.0735C3.06893 12.2766 4.04424 13.252 5.24736 13.252C6.45047 13.252 7.42578 12.2766 7.42578 11.0735C7.42578 9.87042 6.45047 8.8951 5.24736 8.8951Z" fill="black"/>
<path fill-rule="evenodd" clip-rule="evenodd" d="M16.7669 4.21612C16.1866 4.21612 15.7161 4.68656 15.7161 5.26689C15.7161 5.84721 16.1866 6.31766 16.7669 6.31766C17.3472 6.31766 17.8177 5.84721 17.8177 5.26689C17.8177 4.68656 17.3472 4.21612 16.7669 4.21612ZM16.7669 3.08846C15.5638 3.08846 14.5885 4.06378 14.5885 5.26689C14.5885 6.47 15.5638 7.44531 16.7669 7.44531C17.97 7.44531 18.9453 6.47 18.9453 5.26689C18.9453 4.06378 17.97 3.08846 16.7669 3.08846Z" fill="black"/>
<path fill-rule="evenodd" clip-rule="evenodd" d="M11.013 4.21612C10.4327 4.21612 9.96221 4.68656 9.96221 5.26689C9.96221 5.84721 10.4327 6.31766 11.013 6.31766C11.5933 6.31766 12.0638 5.84721 12.0638 5.26689C12.0638 4.68656 11.5933 4.21612 11.013 4.21612ZM11.013 3.08846C9.80987 3.08846 8.83456 4.06378 8.83456 5.26689C8.83456 6.47 9.80987 7.44531 11.013 7.44531C12.2161 7.44531 13.1914 6.47 13.1914 5.26689C13.1914 4.06378 12.2161 3.08846 11.013 3.08846Z" fill="black"/>
<path fill-rule="evenodd" clip-rule="evenodd" d="M4.85962 3.39758C4.12983 3.39758 3.53821 3.9892 3.53821 4.719C3.53821 5.4488 4.12983 6.04041 4.85962 6.04041C5.58942 6.04041 6.18104 5.4488 6.18104 4.719C6.18104 3.9892 5.58942 3.39758 4.85962 3.39758ZM4.85962 1.85987C3.28057 1.85987 2.0005 3.13995 2.0005 4.719C2.0005 6.29805 3.28057 7.57812 4.85962 7.57812C6.43868 7.57812 7.71875 6.29805 7.71875 4.719C7.71875 3.13995 6.43868 1.85987 4.85962 1.85987Z" fill="#3C6AD0"/>
</svg>
