<svg width="22" height="22" viewBox="0 0 22 22" fill="none" xmlns="http://www.w3.org/2000/svg">
<path d="M5.07211 19.4097L6.14352 15.8887L9.715 17.2971C8.76261 17.8839 6.64352 19.1984 5.78643 19.7618C4.92925 20.3252 4.95306 19.7618 5.07211 19.4097Z" fill="#3C1D1E"/>
<path fill-rule="evenodd" clip-rule="evenodd" d="M11 17.7884C16.2467 17.7884 20.5 14.4779 20.5 10.3942C20.5 6.31053 16.2467 3 11 3C5.75332 3 1.5 6.31053 1.5 10.3942C1.5 14.4779 5.75332 17.7884 11 17.7884ZM14.2348 10.8377V13.9894H15.3955V10.5913C15.3955 10.2901 15.3713 10.0232 15.3229 9.79049C15.2746 9.55778 15.1848 9.36272 15.0535 9.2053C14.9291 9.04104 14.7564 8.91784 14.5353 8.83571C14.3142 8.74674 14.0309 8.70225 13.6855 8.70225C13.34 8.70225 12.9669 8.77069 12.5662 8.90758C12.3797 8.95549 12.2069 9.0342 12.048 9.1437V6.16646L10.8769 6.31019V13.9894H12.048V10.0574L12.2553 9.92395C12.3935 9.82813 12.5524 9.75284 12.732 9.69809C12.9186 9.64333 13.1224 9.61596 13.3435 9.61596C13.5369 9.61596 13.6924 9.64676 13.8098 9.70835C13.9273 9.76995 14.0171 9.85551 14.0793 9.96501C14.1415 10.0745 14.1829 10.2046 14.2037 10.3551C14.2244 10.5057 14.2348 10.6665 14.2348 10.8377ZM9.15441 13.9792C9.47223 13.8902 9.721 13.7875 9.9006 13.6712L9.6726 12.9115C9.44459 13.0278 9.21659 13.1202 8.98859 13.1886C8.7675 13.2502 8.50495 13.281 8.20095 13.281C7.65514 13.281 7.27168 13.1236 7.05059 12.8088C6.83641 12.494 6.72932 12.0559 6.72932 11.4947C6.72932 10.7966 6.85714 10.2935 7.11277 9.98555C7.37532 9.67756 7.75532 9.52356 8.25277 9.52356C8.70186 9.52356 9.06459 9.68098 9.34096 9.99581L10.0146 9.34903C9.835 9.1437 9.5931 8.98287 9.28914 8.86651C8.98514 8.75016 8.65004 8.69198 8.28386 8.69198C7.37877 8.69198 6.69477 8.92127 6.23186 9.37983C5.77586 9.83155 5.54786 10.5331 5.54786 11.4844C5.54786 11.9088 5.59277 12.2852 5.68259 12.6137C5.77241 12.9354 5.9175 13.2092 6.11786 13.435C6.32514 13.6541 6.58768 13.8217 6.9055 13.9381C7.23023 14.0544 7.62405 14.1126 8.08695 14.1126C8.48077 14.1126 8.83659 14.0681 9.15441 13.9792Z" fill="#3C1D1E"/>
</svg>
