<svg width="22" height="22" viewBox="0 0 22 22" fill="none" xmlns="http://www.w3.org/2000/svg">
<path fill-rule="evenodd" clip-rule="evenodd" d="M9.49768 3.75C6.12371 3.75 2.75 6.33218 2.75 10.4995C2.75 13.9477 5.54034 17.25 9.49768 17.25H10C10.4142 17.25 10.75 17.5858 10.75 18C10.75 18.4142 10.4142 18.75 10 18.75H9.49768C4.6361 18.75 1.25 14.6983 1.25 10.4995C1.25 5.38754 5.41647 2.25 9.49768 2.25C14.6366 2.25 17.7499 6.63071 17.7499 10.4995V11.5C17.7499 11.9142 17.4141 12.25 16.9999 12.25C16.5857 12.25 16.2499 11.9142 16.2499 11.5V10.4995C16.2499 7.31047 13.667 3.75 9.49768 3.75Z" fill="black"/>
<path fill-rule="evenodd" clip-rule="evenodd" d="M13.4697 9.46967C13.7626 9.17678 14.2374 9.17678 14.5303 9.46967L17 11.9393L19.4697 9.46967C19.7626 9.17678 20.2374 9.17678 20.5303 9.46967C20.8232 9.76256 20.8232 10.2374 20.5303 10.5303L17 14.0607L13.4697 10.5303C13.1768 10.2374 13.1768 9.76256 13.4697 9.46967Z" fill="black"/>
</svg>
