<svg width="320" height="320" viewBox="0 0 320 320" fill="none" xmlns="http://www.w3.org/2000/svg">
<path d="M238.5 282.5C238.5 296.583 203.354 308 160 308C116.646 308 81.5 296.583 81.5 282.5C81.5 268.417 116.646 257 160 257C203.354 257 238.5 268.417 238.5 282.5Z" fill="#C3C3C3"/>
<path fill-rule="evenodd" clip-rule="evenodd" d="M174.95 230.655C122.559 240.068 70.8156 207.898 56.7882 155.547C41.9933 100.332 74.7585 43.5811 129.974 28.7862C139.258 26.2984 155.568 23.2024 174.95 26.6382" fill="white"/>
<path fill-rule="evenodd" clip-rule="evenodd" d="M174.95 230.655C122.559 240.068 70.8156 207.898 56.7882 155.547C41.9933 100.332 74.7585 43.5811 129.974 28.7862C139.258 26.2984 155.568 23.2024 174.95 26.6382" fill="white"/>
<path d="M174.95 26.6382C155.568 23.2024 139.258 26.2984 129.974 28.7862C74.7585 43.5811 41.9933 100.332 56.7882 155.547C70.8156 207.898 122.559 240.068 174.95 230.655" stroke="#0D2242" stroke-width="8" stroke-linecap="round"/>
<path d="M218.753 45.8463C208.507 38.1811 196.659 32.3001 183.545 28.786C174.26 26.2983 157.95 23.2023 138.568 26.638C133.074 27.6119 127.333 29.1105 121.436 31.2967C118.488 32.3894 103.948 37.9988 94.5983 45.8463C88.9601 49.743 75.5936 61.3827 67.2336 76.7677C62.7514 84.4977 59.2051 92.934 56.7835 101.972C41.9886 157.187 74.7538 213.938 129.969 228.733C161.087 237.071 192.693 230.303 217.001 212.924" stroke="#0D2242" stroke-width="8" stroke-linecap="round"/>
<path d="M155.07 30.7832V43.0718" stroke="#0D2242" stroke-width="8" stroke-linecap="round" stroke-linejoin="round"/>
<path d="M155.992 130.01V131.849" stroke="#0D2242" stroke-width="8" stroke-linecap="round" stroke-linejoin="round"/>
<path d="M155.07 216.104V228.392" stroke="#0D2242" stroke-width="8" stroke-linecap="round" stroke-linejoin="round"/>
<path d="M67.6328 130.504L55.3443 130.504" stroke="#0D2242" stroke-width="8" stroke-linecap="round" stroke-linejoin="round"/>
<path d="M222.568 77V100.325C222.568 108.607 215.854 115.32 207.573 115.32V115.32C199.292 115.32 192.578 108.607 192.578 100.325L192.578 77" stroke="#0D2242" stroke-width="8" stroke-linecap="round" stroke-linejoin="round"/>
<path d="M207.574 77V185.296" stroke="#0D2242" stroke-width="8" stroke-linecap="round" stroke-linejoin="round"/>
<path d="M263.421 148.075C263.421 90.2673 249.399 80.9807 242.189 77L242.168 148.075H263.421Z" fill="#3C6AD0"/>
<path d="M242.189 185.034L242.168 148.075M242.168 148.075L242.189 77C249.399 80.9807 263.421 90.2673 263.421 148.075H242.168Z" stroke="#0D2242" stroke-width="8" stroke-linecap="round" stroke-linejoin="round"/>
</svg>
