<svg width="320" height="320" viewBox="0 0 320 320" fill="none" xmlns="http://www.w3.org/2000/svg">
<ellipse cx="159.5" cy="282.5" rx="78.5" ry="25.5" fill="#C3C3C3"/>
<rect x="52" y="7" width="216" height="216" rx="36" fill="#FAE100" stroke="#FAE100" stroke-width="8"/>
<path d="M160.002 42.7812C120.471 42.7812 88.4258 72.4176 88.4258 108.987C88.4258 135.989 99.7369 148.881 115.229 160.634L115.302 160.667V192.354C115.302 193.854 117.007 194.709 118.209 193.816L145.348 173.656L145.935 173.909C150.483 174.745 155.189 175.192 160.004 175.192C199.533 175.192 231.578 145.549 231.578 108.987C231.576 72.4176 199.531 42.7812 160.002 42.7812Z" fill="#FDDB00"/>
<path d="M160.002 39C118.496 39 84.8516 70.1172 84.8516 108.508C84.8516 136.861 96.7272 150.4 112.992 162.738L113.068 162.772V196.044C113.068 197.618 114.86 198.515 116.119 197.578L144.616 176.411L145.231 176.676C150.006 177.556 154.943 178.022 160.001 178.022C201.506 178.022 235.15 146.898 235.15 108.508C235.15 70.1172 201.507 39 160.002 39ZM134.812 126.122C142.178 126.122 148.48 121.714 150.376 114.902H161.268C158.606 128.013 148.4 136.603 134.812 136.603C119.017 136.603 106.495 124.823 106.495 108.427C106.495 92.0344 119.015 80.254 134.812 80.254C148.539 80.254 158.813 89.0192 161.348 102.358H150.484C148.833 95.1086 142.314 90.5882 134.812 90.5882C124.192 90.5882 117.127 98.1636 117.127 108.427C117.127 118.702 125.158 126.122 134.812 126.122ZM206.604 135.526H196.618V113.001C196.618 107.817 193.598 105.027 188.955 105.027C183.769 105.027 180.444 108.198 180.444 114.624V135.524H170.453V80.4306H180.444V101.153C182.838 97.5176 186.712 95.7372 191.973 95.7372C196.232 95.7372 199.715 97.1314 202.42 99.9942C205.209 102.859 206.603 106.73 206.603 111.761L206.604 135.526Z" fill="#020303"/>
</svg>
