<svg width="320" height="320" viewBox="0 0 320 320" fill="none" xmlns="http://www.w3.org/2000/svg">
<path fill-rule="evenodd" clip-rule="evenodd" d="M68.2365 74.7688C63.7543 82.4988 60.2081 90.935 57.7864 99.9726C42.9916 155.188 75.7567 211.939 130.972 226.734C186.187 241.529 242.938 208.763 257.733 153.548C272.528 98.3329 239.763 41.582 184.548 26.7871C175.263 24.2993 158.953 21.2033 139.571 24.6391C134.077 25.6129 128.336 27.1116 122.439 29.2977C119.491 30.3904 104.951 35.9999 95.6012 43.8474" fill="white"/>
<path fill-rule="evenodd" clip-rule="evenodd" d="M68.2365 74.7688C63.7543 82.4988 60.2081 90.935 57.7864 99.9726C42.9916 155.188 75.7567 211.939 130.972 226.734C186.187 241.529 242.938 208.763 257.733 153.548C272.528 98.3329 239.763 41.582 184.548 26.7871C175.263 24.2993 158.953 21.2033 139.571 24.6391C134.077 25.6129 128.336 27.1116 122.439 29.2977C119.491 30.3904 104.951 35.9999 95.6012 43.8474" fill="white"/>
<path d="M68.2365 74.7688C63.7543 82.4988 60.2081 90.935 57.7864 99.9726C42.9916 155.188 75.7567 211.939 130.972 226.734C186.187 241.529 242.938 208.763 257.733 153.548C272.528 98.3329 239.763 41.582 184.548 26.7871C175.263 24.2993 158.953 21.2033 139.571 24.6391C134.077 25.6129 128.336 27.1116 122.439 29.2977C119.491 30.3904 104.951 35.9999 95.6012 43.8474C90.6653 41.6621 81.2617 32.7598 85.5816 19.4218" stroke="#0D2242" stroke-width="8" stroke-linecap="round"/>
<path d="M238.5 282.5C238.5 296.583 203.354 308 160 308C116.646 308 81.5 296.583 81.5 282.5C81.5 268.417 116.646 257 160 257C203.354 257 238.5 268.417 238.5 282.5Z" fill="#C3C3C3"/>
<path d="M288.762 124.762C288.76 90.7617 262.762 80.2617 249.262 78.2617C265.762 103.762 261.262 150.262 247.262 170.262C277.262 163.062 288.762 141.262 288.762 124.762Z" fill="#3C6AD0" stroke="#0D2242" stroke-width="8" stroke-linecap="round" stroke-linejoin="round"/>
<path d="M239.26 192.762C263.262 195.262 269.763 180.762 267.762 163.262" stroke="#0D2242" stroke-width="8" stroke-linecap="round"/>
<path d="M184.844 178.262L226.679 178.263C234.181 178.263 240.262 185.426 240.262 194.262C240.262 203.098 234.181 210.262 226.679 210.262L184.844 210.261C177.343 210.261 171.262 203.098 171.262 194.261C171.262 185.425 177.343 178.262 184.844 178.262Z" fill="#3C6AD0" stroke="#0D2242" stroke-width="8"/>
<path d="M194.262 131.262C194.088 139.095 186.545 154.862 157.762 155.262C128.979 154.862 121.436 139.095 121.262 131.262" stroke="#0D2242" stroke-width="8" stroke-linecap="round"/>
<path d="M129.262 101.262L129.262 110.262" stroke="#0D2242" stroke-width="12" stroke-linecap="round"/>
<path d="M187.262 101.262L187.262 110.262" stroke="#0D2242" stroke-width="12" stroke-linecap="round"/>
</svg>
