<svg width="320" height="320" viewBox="0 0 320 320" fill="none" xmlns="http://www.w3.org/2000/svg">
<path d="M238.5 282.5C238.5 296.583 203.354 308 160 308C116.646 308 81.5 296.583 81.5 282.5C81.5 268.417 116.646 257 160 257C203.354 257 238.5 268.417 238.5 282.5Z" fill="#C3C3C3"/>
<path d="M259.377 138.018C257.587 157.386 250.318 175.844 238.421 191.232C226.523 206.62 210.49 218.302 192.196 224.91C173.901 231.518 154.104 232.779 135.119 228.546C116.134 224.312 98.7479 214.76 84.994 201.006C71.2401 187.252 61.6877 169.866 57.4546 150.881C53.2214 131.896 54.4826 112.099 61.0906 93.8046C67.6985 75.5105 79.3799 59.4767 94.7679 47.5793C110.156 35.6819 128.614 28.4129 147.982 26.623C136.643 41.9642 131.186 60.8658 132.605 79.8901C134.023 98.9145 142.223 116.798 155.713 130.287C169.202 143.777 187.086 151.977 206.11 153.395C225.134 154.814 244.036 149.357 259.377 138.018Z" fill="white" stroke="#0D2242" stroke-width="8" stroke-linecap="round" stroke-linejoin="round"/>
<path d="M211.67 31.6635L212.314 32.9911L213.772 32.7684L223.361 31.3044L216.434 38.4923L215.466 39.4968L216.074 40.7523L220.472 49.8272L212.017 45.1993L210.677 44.4657L209.617 45.5658L202.929 52.5055L204.418 42.5319L204.624 41.1521L203.4 40.4822L194.644 35.6888L204.233 34.2248L205.691 34.0021L205.909 32.543L207.367 22.7819L211.67 31.6635Z" fill="#0D2242" stroke="#0D2242" stroke-width="4"/>
<path d="M188.61 82.3L187.859 83.5696L188.85 84.6624L193.619 89.9199L186.406 88.5945L185.034 88.3424L184.323 89.543L180.575 95.8774L179.986 88.9135L179.857 87.3911L178.354 87.115L171.481 85.8519L178.15 82.7367L179.414 82.1463L179.296 80.7562L178.678 73.4488L183.447 78.7064L184.438 79.7991L185.775 79.1747L192.249 76.1505L188.61 82.3Z" fill="#3C6AD0" stroke="#3C6AD0" stroke-width="4"/>
<path d="M255.552 88.0162L255.502 90.2286L257.602 90.9291L271.404 95.5351L257.239 100.391L255.26 101.07L255.213 103.162L254.874 118.284L246.755 106.323L245.468 104.427L243.3 105.17L229.624 109.858L238.435 97.5631L239.654 95.8621L238.479 94.1307L230.069 81.7414L243.872 86.3474L245.971 87.0479L247.26 85.2491L255.883 73.2159L255.552 88.0162Z" stroke="#0D2242" stroke-width="6"/>
</svg>
