<svg width="320" height="320" viewBox="0 0 320 320" fill="none" xmlns="http://www.w3.org/2000/svg">
<ellipse cx="159.5" cy="282.5" rx="78.5" ry="25.5" fill="#C3C3C3"/>
<path d="M68.5973 64.5162L71.5125 86.2009L60.1977 80.939L48.8829 75.677L68.5973 64.5162Z" fill="#0D2242"/>
<path d="M249.965 175.474L247.05 153.789L258.365 159.051L269.68 164.313L249.965 175.474Z" fill="#0D2242"/>
<path d="M56.8369 91.0703C40.6635 147.927 73.6439 207.13 130.501 223.303C157.461 230.972 184.949 227.589 208.127 215.849M262.734 149.639C278.907 92.7826 245.927 33.5798 189.07 17.4064C167.869 11.3758 146.343 12.1792 126.843 18.5063" stroke="#0D2242" stroke-width="6" stroke-linecap="round" stroke-dasharray="8 16"/>
<path d="M103.805 53.1984V14.0762H216.199V53.1984C216.199 56.5023 215.2 59.729 213.334 62.4553L173.671 120.395L213.385 179.105C215.219 181.816 216.199 185.014 216.199 188.287V226.708H103.805V188.287C103.805 185.014 104.785 181.816 106.618 179.105L146.332 120.395L106.67 62.4553C104.803 59.729 103.805 56.5023 103.805 53.1984Z" fill="white" stroke="#0D2242" stroke-width="8" stroke-linecap="round" stroke-linejoin="round"/>
<path d="M186.532 73.3105H133.472C131.853 73.3105 130.905 75.1341 131.835 76.4594L158.365 114.265C159.161 115.4 160.843 115.4 161.639 114.265L188.169 76.4594C189.099 75.1341 188.151 73.3105 186.532 73.3105Z" fill="#3C6AD0"/>
<path d="M190.112 167.473H129.895C129.25 167.473 128.644 167.784 128.269 168.308L118.761 181.587C116.938 184.133 115.957 187.187 115.957 190.319L115.957 214.076C115.957 215.18 116.852 216.076 117.957 216.076H202.05C203.154 216.076 204.05 215.18 204.05 214.076V190.319C204.05 187.187 203.069 184.133 201.246 181.587L191.738 168.308C191.363 167.784 190.757 167.473 190.112 167.473Z" fill="#3C6AD0"/>
<path d="M97.7305 14.0703H222.276" stroke="#0D2242" stroke-width="8" stroke-linecap="round"/>
<path d="M97.7305 226.709H222.276" stroke="#0D2242" stroke-width="8" stroke-linecap="round"/>
<path d="M160.004 127.381V130.419" stroke="#3C6AD0" stroke-width="6" stroke-linecap="round"/>
<path d="M201.438 29.2656V33.8222" stroke="#0D2242" stroke-width="6" stroke-linecap="round"/>
<path d="M201.437 46.7324V51.3607C201.437 52.7969 200.995 54.1983 200.172 55.3749L196.121 61.1614" stroke="#0D2242" stroke-width="6" stroke-linecap="round"/>
</svg>
