<svg width="320" height="320" viewBox="0 0 320 320" fill="none" xmlns="http://www.w3.org/2000/svg">
<ellipse cx="159.5" cy="282.5" rx="78.5" ry="25.5" fill="#C3C3C3"/>
<rect x="52" y="7" width="216" height="216" rx="36" fill="#FAE100" stroke="#FAE100" stroke-width="8"/>
<path d="M160.001 43.6836C114.712 43.6836 78 72.7033 78 108.509C78 131.811 93.5534 152.237 116.902 163.664C115.187 170.063 110.69 186.86 109.791 190.449C108.678 194.909 111.42 194.851 113.223 193.656C114.635 192.715 135.69 178.392 144.777 172.214C149.71 172.946 154.797 173.332 159.999 173.332C205.285 173.332 241.999 144.312 241.999 108.509C242 72.7033 205.287 43.6836 160.001 43.6836Z" fill="#371D1E"/>
<path d="M102.797 96.5746H111.236C111.236 96.5746 111.289 119.758 111.245 125.159C111.256 129.102 120.025 129.155 120.013 125.215L120.05 96.877C120.05 96.877 122.876 96.8969 128.448 96.9002C133.696 96.9002 133.699 88.65 128.455 88.645C122.542 88.645 102.785 88.4805 102.785 88.4805C97.8331 88.4888 97.8481 96.5746 102.797 96.5746Z" fill="#FAE100"/>
<path d="M143.195 98.0769L147.891 112.791H138.1L143.195 98.0769ZM137.932 91.1825C135.855 95.7572 128.353 117.356 125.863 123.085C124.06 127.226 131.825 130.603 133.627 126.463L135.318 120.558H150.762C150.762 120.558 150.23 120.799 152.281 126.213C153.942 130.591 161.96 127.557 160.298 123.173C157.926 116.912 149.725 94.3746 148.226 91.1825C147.538 89.7053 145.064 88.6484 142.67 88.6484C140.687 88.6484 138.755 89.3729 137.932 91.1825Z" fill="#FAE100"/>
<path d="M163.255 92.5349C163.27 99.8763 163.297 123.534 163.297 123.534C163.297 123.534 162.619 128.236 166.65 128.236C170.683 128.236 179.63 128.191 183.596 128.191C187.561 128.191 187.539 119.753 183.574 119.753C179.605 119.753 172.368 119.712 172.368 119.712C172.368 119.712 172.403 97.829 172.391 92.5133C172.383 89.9427 170.106 88.6582 167.827 88.6582C165.538 88.6582 163.25 89.951 163.255 92.5349Z" fill="#FAE100"/>
<path d="M188.619 91.3674C188.707 94.5861 188.516 123.696 188.516 125.851C188.517 129.256 197.183 129.249 197.181 125.846C197.18 121.894 197.181 114.393 197.181 114.393L199.729 112.353L210.852 127.536C213.102 130.502 220.179 125.141 217.933 122.175L206.118 106.612C206.118 106.612 214.137 97.9394 217.299 94.7972C219.144 92.966 213.434 87.2116 211.588 89.0477C209.8 90.8191 197.236 103.398 197.236 103.398C197.236 103.398 197.349 95.4984 197.233 91.1331C197.19 89.4764 195.154 88.6738 193.074 88.6738C190.849 88.6738 188.57 89.5944 188.619 91.3674Z" fill="#FAE100"/>
</svg>
