<svg width="320" height="320" viewBox="0 0 320 320" fill="none" xmlns="http://www.w3.org/2000/svg">
<ellipse cx="159.5" cy="282.5" rx="78.5" ry="25.5" fill="#C3C3C3"/>
<path fill-rule="evenodd" clip-rule="evenodd" d="M148.672 138.547C158.285 148.165 171.16 158.459 182.983 165.18L195.013 153.154C200.272 147.955 208.076 146.291 214.999 148.893C223.593 152.098 232.522 154.322 241.616 155.521C251.031 156.852 258.001 164.954 257.908 174.46V202.868C257.93 208.2 255.701 213.295 251.771 216.9C247.84 220.505 242.571 222.286 237.259 221.806C208.111 218.64 180.113 208.683 155.514 192.736C144.103 185.492 131.514 175 121.961 165.44" fill="#3C6AD0"/>
<path d="M151.502 135.719C149.94 134.157 147.407 134.156 145.845 135.718C144.282 137.279 144.281 139.812 145.843 141.374L151.502 135.719ZM182.983 165.18L181.007 168.657C182.572 169.547 184.538 169.281 185.811 168.009L182.983 165.18ZM195.013 153.154L192.201 150.309C192.195 150.314 192.19 150.32 192.185 150.325L195.013 153.154ZM214.999 148.893L213.592 152.637L213.601 152.64L214.999 148.893ZM241.616 155.521L242.175 151.56C242.163 151.559 242.151 151.557 242.139 151.555L241.616 155.521ZM257.908 174.46L253.908 174.42C253.908 174.434 253.908 174.447 253.908 174.46L257.908 174.46ZM257.908 202.868H253.908C253.908 202.873 253.908 202.879 253.908 202.884L257.908 202.868ZM237.259 221.806L236.827 225.783C236.851 225.786 236.875 225.788 236.899 225.79L237.259 221.806ZM155.514 192.736L157.69 189.379C157.679 189.372 157.669 189.365 157.658 189.359L155.514 192.736ZM124.791 162.612C123.229 161.05 120.696 161.049 119.134 162.61C117.571 164.172 117.57 166.704 119.131 168.267L124.791 162.612ZM145.843 141.374C155.659 151.196 168.815 161.727 181.007 168.657L184.96 161.702C173.506 155.191 160.911 145.135 151.502 135.719L145.843 141.374ZM185.811 168.009L197.841 155.983L192.185 150.325L180.155 162.351L185.811 168.009ZM197.825 155.998C201.973 151.897 208.13 150.585 213.592 152.637L216.406 145.148C208.022 141.998 198.57 144.013 192.201 150.309L197.825 155.998ZM213.601 152.64C222.477 155.952 231.7 158.248 241.093 159.487L242.139 151.555C233.344 150.396 224.708 148.245 216.397 145.145L213.601 152.64ZM241.056 159.482C248.485 160.531 253.982 166.923 253.908 174.42L261.908 174.499C262.021 162.985 253.578 153.172 242.175 151.56L241.056 159.482ZM253.908 174.46V202.868H261.908V174.46H253.908ZM253.908 202.884C253.925 207.09 252.168 211.108 249.067 213.952L254.474 219.848C259.235 215.482 261.934 209.311 261.908 202.852L253.908 202.884ZM249.067 213.952C245.966 216.796 241.81 218.201 237.619 217.823L236.899 225.79C243.333 226.372 249.714 224.214 254.474 219.848L249.067 213.952ZM237.691 217.83C209.165 214.731 181.764 204.987 157.69 189.379L153.338 196.092C178.462 212.38 207.058 222.549 236.827 225.783L237.691 217.83ZM157.658 189.359C146.54 182.301 134.177 172.007 124.791 162.612L119.131 168.267C128.85 177.994 141.666 188.683 153.37 196.113L157.658 189.359Z" fill="#0D2242"/>
<path fill-rule="evenodd" clip-rule="evenodd" d="M98.6955 135.786C82.743 111.194 72.7831 83.2046 69.616 54.0659C69.1374 48.7714 70.9068 43.5195 74.4919 39.5932C78.0771 35.6669 83.1479 33.4278 88.4656 33.4228H116.882C126.391 33.3292 134.495 40.2972 135.826 49.7101C137.026 58.8012 139.25 67.7276 142.457 76.3189C145.059 83.2398 143.395 91.0418 138.194 96.2992L126.165 108.325" fill="white"/>
<path d="M95.3397 137.963C96.5419 139.816 99.019 140.344 100.872 139.142C102.726 137.94 103.254 135.463 102.051 133.609L95.3397 137.963ZM69.616 54.0659L65.6323 54.4261C65.6344 54.4501 65.6368 54.4741 65.6394 54.4982L69.616 54.0659ZM88.4656 33.4228L88.4656 29.4228L88.4618 29.4228L88.4656 33.4228ZM116.882 33.4228V37.4228C116.895 37.4228 116.908 37.4227 116.921 37.4226L116.882 33.4228ZM135.826 49.7101L139.792 49.1869C139.79 49.1746 139.789 49.1623 139.787 49.1501L135.826 49.7101ZM142.457 76.3189L138.709 77.7177L138.713 77.7267L142.457 76.3189ZM138.194 96.2992L141.022 99.128C141.028 99.1227 141.033 99.1174 141.038 99.1121L138.194 96.2992ZM123.337 105.496C121.774 107.058 121.774 109.591 123.336 111.153C124.898 112.716 127.43 112.716 128.993 111.154L123.337 105.496ZM102.051 133.609C86.4393 109.543 76.6921 82.1503 73.5926 53.6337L65.6394 54.4982C68.8742 84.259 79.0467 112.846 95.3397 137.963L102.051 133.609ZM73.5998 53.7058C73.2223 49.5299 74.6178 45.3875 77.4458 42.2904L71.5381 36.896C67.1958 41.6515 65.0525 48.0128 65.6323 54.4261L73.5998 53.7058ZM77.4458 42.2904C80.2738 39.1933 84.274 37.4268 88.4693 37.4228L88.4618 29.4228C82.0217 29.4289 75.8804 32.1406 71.5381 36.896L77.4458 42.2904ZM88.4656 37.4228H116.882V29.4228H88.4656V37.4228ZM116.921 37.4226C124.423 37.3488 130.816 42.8461 131.866 50.27L139.787 49.1501C138.175 37.7484 128.358 29.3097 116.843 29.423L116.921 37.4226ZM131.861 50.2332C133.099 59.6236 135.397 68.8437 138.709 77.7177L146.204 74.9201C143.103 66.6115 140.952 57.9789 139.792 49.1869L131.861 50.2332ZM138.713 77.7267C140.765 83.1853 139.453 89.3392 135.351 93.4862L141.038 99.1121C147.337 92.7445 149.353 83.2942 146.201 74.9111L138.713 77.7267ZM135.366 93.4703L123.337 105.496L128.993 111.154L141.022 99.128L135.366 93.4703Z" fill="#0D2242"/>
<path d="M249 33.4219L59 223.422" stroke="#0D2242" stroke-width="8" stroke-linecap="round" stroke-linejoin="round"/>
</svg>
