<svg width="320" height="320" viewBox="0 0 320 320" fill="none" xmlns="http://www.w3.org/2000/svg">
<ellipse cx="159.5" cy="282.5" rx="78.5" ry="25.5" fill="#C3C3C3"/>
<path d="M53.3014 207.15C50.2205 201.743 50.2341 195.108 53.3351 189.714L144.508 37.4484C144.509 37.4455 144.511 37.4427 144.513 37.4399C147.693 32.2017 153.375 29.0039 159.5 29.0039C165.625 29.0039 171.306 32.2014 174.487 37.439C174.488 37.4421 174.49 37.4452 174.492 37.4484L265.665 189.714C268.766 195.108 268.78 201.743 265.699 207.15C262.616 212.559 256.9 215.928 250.679 216.004H68.3214C62.1002 215.928 56.3836 212.559 53.3014 207.15Z" fill="white" stroke="#0D2242" stroke-width="8" stroke-linecap="round" stroke-linejoin="round"/>
<path d="M159.543 98.127L159.543 154.377" stroke="#3C6AD0" stroke-width="8" stroke-linecap="round"/>
<path d="M159.543 179.566L159.543 176.754" stroke="#3C6AD0" stroke-width="8" stroke-linecap="round"/>
</svg>
