<svg width="320" height="320" viewBox="0 0 320 320" fill="none" xmlns="http://www.w3.org/2000/svg">
<path d="M238.5 282.5C238.5 296.583 203.354 308 160 308C116.646 308 81.5 296.583 81.5 282.5C81.5 268.417 116.646 257 160 257C203.354 257 238.5 268.417 238.5 282.5Z" fill="#C3C3C3"/>
<path fill-rule="evenodd" clip-rule="evenodd" d="M68.2326 74.7688C63.7504 82.4988 60.2042 90.935 57.7825 99.9726C42.9877 155.188 75.7528 211.939 130.968 226.734C186.183 241.529 242.934 208.763 257.729 153.548C272.524 98.3329 239.759 41.582 184.544 26.7871C175.259 24.2993 158.949 21.2033 139.567 24.6391C134.073 25.6129 128.332 27.1116 122.435 29.2977C119.487 30.3904 104.947 35.9999 95.5973 43.8474" fill="white"/>
<path fill-rule="evenodd" clip-rule="evenodd" d="M68.2326 74.7688C63.7504 82.4988 60.2042 90.935 57.7825 99.9726C42.9877 155.188 75.7528 211.939 130.968 226.734C186.183 241.529 242.934 208.763 257.729 153.548C272.524 98.3329 239.759 41.582 184.544 26.7871C175.259 24.2993 158.949 21.2033 139.567 24.6391C134.073 25.6129 128.332 27.1116 122.435 29.2977C119.487 30.3904 104.947 35.9999 95.5973 43.8474" fill="white"/>
<path d="M68.2326 74.7688C63.7504 82.4988 60.2042 90.935 57.7825 99.9726C42.9877 155.188 75.7528 211.939 130.968 226.734C186.183 241.529 242.934 208.763 257.729 153.548C272.524 98.3329 239.759 41.582 184.544 26.7871C175.259 24.2993 158.949 21.2033 139.567 24.6391C134.073 25.6129 128.332 27.1116 122.435 29.2977C119.487 30.3904 104.947 35.9999 95.5973 43.8474C89.9591 47.7441 76.5926 59.3838 68.2326 74.7688Z" stroke="#0D2242" stroke-width="8" stroke-linecap="round"/>
<path d="M156 26.8164V39.2146" stroke="#0D2242" stroke-width="8" stroke-linecap="round" stroke-linejoin="round"/>
<path d="M156 213.791V226.189" stroke="#0D2242" stroke-width="8" stroke-linecap="round" stroke-linejoin="round"/>
<path d="M256.613 127.428L244.215 127.428" stroke="#0D2242" stroke-width="8" stroke-linecap="round" stroke-linejoin="round"/>
<path d="M67.7773 127.428L55.3792 127.428" stroke="#0D2242" stroke-width="8" stroke-linecap="round" stroke-linejoin="round"/>
<path d="M154.447 78.4199C151.089 78.4199 148.367 80.8735 148.367 83.8997L148.368 127.21C148.368 128.235 148.7 129.254 149.292 130.115L181.971 176.234C183.751 178.8 188.267 179.19 190.547 177.67C192.746 176.204 193.372 172.375 192.067 169.31L160.527 124.471L160.527 83.8997C160.527 80.8735 157.804 78.4199 154.447 78.4199Z" fill="#3C6AD0"/>
</svg>
