<svg width="320" height="320" viewBox="0 0 320 320" fill="none" xmlns="http://www.w3.org/2000/svg">
<ellipse cx="159.5" cy="282.5" rx="78.5" ry="25.5" fill="#C3C3C3"/>
<path d="M227.474 171.953C238.809 171.953 247.999 181.142 247.999 192.477C247.999 203.813 238.809 213.002 227.474 213.002C216.138 213.002 206.949 203.813 206.949 192.477C206.949 181.142 216.138 171.953 227.474 171.953Z" fill="white" stroke="#0D2242" stroke-width="8"/>
<path d="M227.474 104.265C238.809 104.265 247.999 113.454 247.999 124.79C247.999 136.125 238.809 145.314 227.474 145.314C216.138 145.314 206.949 136.125 206.949 124.79C206.949 113.454 216.138 104.265 227.474 104.265Z" fill="white" stroke="#0D2242" stroke-width="8"/>
<path d="M160.009 171.953C171.345 171.953 180.534 181.142 180.534 192.477C180.534 203.813 171.345 213.002 160.009 213.002C148.674 213.002 139.484 203.813 139.484 192.477C139.484 181.142 148.674 171.953 160.009 171.953Z" fill="white" stroke="#0D2242" stroke-width="8"/>
<path d="M160.009 104.265C171.345 104.265 180.534 113.454 180.534 124.79C180.534 136.125 171.345 145.314 160.009 145.314C148.674 145.314 139.484 136.125 139.484 124.79C139.484 113.454 148.674 104.265 160.009 104.265Z" fill="white" stroke="#0D2242" stroke-width="8"/>
<path d="M92.0989 171.953C103.434 171.953 112.624 181.142 112.624 192.477C112.624 203.813 103.434 213.002 92.0989 213.002C80.7634 213.002 71.5742 203.813 71.5742 192.477C71.5742 181.142 80.7634 171.953 92.0989 171.953Z" fill="white" stroke="#0D2242" stroke-width="8"/>
<path d="M92.0989 104.265C103.434 104.265 112.624 113.454 112.624 124.79C112.624 136.125 103.434 145.314 92.0989 145.314C80.7634 145.314 71.5742 136.125 71.5742 124.79C71.5742 113.454 80.7634 104.265 92.0989 104.265Z" fill="white" stroke="#0D2242" stroke-width="8"/>
<path d="M227.474 36.5756C238.809 36.5756 247.999 45.7648 247.999 57.1003C247.999 68.4358 238.809 77.625 227.474 77.625C216.138 77.625 206.949 68.4358 206.949 57.1003C206.949 45.7648 216.138 36.5756 227.474 36.5756Z" fill="white" stroke="#0D2242" stroke-width="8"/>
<path d="M160.009 36.5756C171.345 36.5757 180.534 45.7649 180.534 57.1003C180.534 68.4358 171.345 77.625 160.009 77.625C148.674 77.625 139.484 68.4358 139.484 57.1003C139.484 45.7649 148.674 36.5756 160.009 36.5756Z" fill="white" stroke="#0D2242" stroke-width="8"/>
<path d="M115.646 54.3249C115.646 68.8626 103.861 80.6478 89.3229 80.6478C74.7852 80.6478 63 68.8626 63 54.3249C63 39.7871 74.7852 28.002 89.3229 28.002C103.861 28.002 115.646 39.7871 115.646 54.3249Z" fill="white" stroke="#3C6AD0" stroke-width="10"/>
</svg>
