<svg width="22" height="22" viewBox="0 0 22 22" fill="none" xmlns="http://www.w3.org/2000/svg">
<path fill-rule="evenodd" clip-rule="evenodd" d="M11 2.24609C9.61929 2.24609 8.5 3.36538 8.5 4.74609V10.7461C8.5 12.1268 9.61929 13.2461 11 13.2461C12.3807 13.2461 13.5 12.1268 13.5 10.7461V4.74609C13.5 3.36538 12.3807 2.24609 11 2.24609ZM7 4.74609C7 2.53695 8.79086 0.746094 11 0.746094C13.2091 0.746094 15 2.53695 15 4.74609V10.7461C15 12.9552 13.2091 14.7461 11 14.7461C8.79086 14.7461 7 12.9552 7 10.7461V4.74609Z" fill="black"/>
<path fill-rule="evenodd" clip-rule="evenodd" d="M5 8.99609C5.41421 8.99609 5.75 9.33188 5.75 9.74609V10.7461C5.75 13.6456 8.1005 15.9961 11 15.9961C13.8995 15.9961 16.25 13.6456 16.25 10.7461V9.74609C16.25 9.33188 16.5858 8.99609 17 8.99609C17.4142 8.99609 17.75 9.33188 17.75 9.74609V10.7461C17.75 14.474 14.7279 17.4961 11 17.4961C7.27208 17.4961 4.25 14.474 4.25 10.7461V9.74609C4.25 9.33188 4.58579 8.99609 5 8.99609Z" fill="black"/>
<path fill-rule="evenodd" clip-rule="evenodd" d="M11 16.2461C11.4142 16.2461 11.75 16.5819 11.75 16.9961V20.4961C11.75 20.9103 11.4142 21.2461 11 21.2461C10.5858 21.2461 10.25 20.9103 10.25 20.4961V16.9961C10.25 16.5819 10.5858 16.2461 11 16.2461Z" fill="black"/>
<path fill-rule="evenodd" clip-rule="evenodd" d="M7.25 20.4961C7.25 20.0819 7.58579 19.7461 8 19.7461H14C14.4142 19.7461 14.75 20.0819 14.75 20.4961C14.75 20.9103 14.4142 21.2461 14 21.2461H8C7.58579 21.2461 7.25 20.9103 7.25 20.4961Z" fill="black"/>
</svg>
