<svg width="22" height="22" viewBox="0 0 22 22" fill="none" xmlns="http://www.w3.org/2000/svg">
<path fill-rule="evenodd" clip-rule="evenodd" d="M2.5 11.375C2.5 11.2369 2.61193 11.125 2.75 11.125H8.25C8.38807 11.125 8.5 11.2369 8.5 11.375V13.2594C8.5 13.3975 8.38807 13.5094 8.25 13.5094H7.68898C7.49739 13.5094 7.2314 13.4038 7.15799 13.1349L7.15766 13.1337C7.13384 13.0447 7.11298 12.9198 7.09381 12.7664H6.31102V17.5745C6.64488 17.6455 6.95169 17.7749 6.95169 18.1791V18.7148C6.95169 18.8529 6.83976 18.9648 6.70169 18.9648H4.2983C4.16023 18.9648 4.0483 18.8529 4.0483 18.7148V18.1791C4.0483 17.785 4.36401 17.646 4.68898 17.5746V12.7567H3.89834C3.87888 12.9301 3.86103 13.0586 3.84404 13.1271L3.84333 13.1299L3.84185 13.1355C3.76531 13.4157 3.48799 13.5094 3.30212 13.5094H2.75C2.61193 13.5094 2.5 13.3975 2.5 13.2594V11.375Z" fill="#3C6AD0"/>
<path fill-rule="evenodd" clip-rule="evenodd" d="M5.44922 2.57422C5.44922 2.29808 5.67308 2.07422 5.94922 2.07422H19.2992C19.5754 2.07422 19.7992 2.29808 19.7992 2.57422V6.95495C19.7992 7.23109 19.5754 7.45495 19.2992 7.45495H17.8361C17.2298 7.45495 16.7551 7.09439 16.5491 6.53276C16.4587 6.28634 16.4133 6.00184 16.3848 5.75149L14.5107 5.73998V16.6014C15.003 16.6877 15.5323 16.8191 15.8521 17.2364C16.0269 17.4645 16.1128 17.7436 16.1128 18.0607V19.4242C16.1128 19.7004 15.889 19.9242 15.6128 19.9242H9.63566C9.35952 19.9242 9.13566 19.7004 9.13566 19.4242V18.0607C9.13566 17.7437 9.22398 17.4656 9.39902 17.2389C9.71908 16.8243 10.2463 16.6862 10.7377 16.5991V5.73428H8.84578C8.82262 5.97795 8.78862 6.25671 8.69462 6.52553C8.49303 7.10198 8.00505 7.45495 7.39117 7.45495H5.94922C5.67308 7.45495 5.44922 7.23109 5.44922 6.95495V2.57422ZM6.44922 3.07422V6.45495H7.39117C7.58694 6.45495 7.68699 6.37753 7.75067 6.19543C7.83172 5.96366 7.84924 5.57478 7.89145 5.18099C7.91868 4.92693 8.13309 4.73428 8.3886 4.73428H11.2377C11.5139 4.73428 11.7377 4.95814 11.7377 5.23428V17.0188C11.7377 17.2575 11.569 17.4629 11.3348 17.5093C11.0132 17.573 10.6828 17.5943 10.3874 17.7186C10.2249 17.7869 10.1357 17.8789 10.1357 18.0607V18.9242H15.1128V18.0607C15.1128 17.879 15.0322 17.7866 14.8682 17.7188C14.5656 17.5938 14.228 17.5758 13.9097 17.5101C13.6774 17.4622 13.5107 17.2576 13.5107 17.0204V5.2369C13.5107 5.10376 13.5638 4.97612 13.6583 4.88226C13.7527 4.78841 13.8807 4.73609 14.0138 4.73691L16.841 4.75428C17.0948 4.75584 17.3072 4.94737 17.3349 5.1997C17.3785 5.5963 17.3909 5.92369 17.4879 6.18841C17.5519 6.36267 17.6448 6.45495 17.8361 6.45495H18.7992V3.07422H6.44922Z" fill="black"/>
</svg>
