<svg width="22" height="22" viewBox="0 0 22 22" fill="none" xmlns="http://www.w3.org/2000/svg">
<path fill-rule="evenodd" clip-rule="evenodd" d="M2 11.25C2 11.1119 2.11193 11 2.25 11H7.99999C8.13806 11 8.24999 11.1119 8.24999 11.25V13.2947C8.24999 13.4328 8.13806 13.5447 7.99999 13.5447C7.67741 13.5447 7.37152 13.571 7.09479 13.4494C6.85864 13.3457 6.69036 13.1245 6.61778 12.8017H6.06101V17.3903C6.41612 17.4799 6.70169 17.7006 6.70169 18.0894V18.75C6.70169 18.8881 6.58976 19 6.45169 19H3.7983C3.66023 19 3.5483 18.8881 3.5483 18.75V18.0894C3.5483 17.7014 3.8355 17.4776 4.18898 17.3859V12.7919H3.62478C3.55649 13.1075 3.41462 13.3288 3.15856 13.4452C2.93371 13.5475 2 13.7427 2 13.2947V11.25ZM2.5 11.5V13.0451C2.71258 13.044 2.86839 13.0279 2.95158 12.9901C3.02758 12.9555 3.12436 12.8778 3.16255 12.5157C3.17596 12.3885 3.28325 12.2919 3.41117 12.2919H4.43898C4.57705 12.2919 4.68898 12.4038 4.68898 12.5419V17.5853C4.68898 17.7176 4.5916 17.8078 4.46956 17.8345C4.31927 17.8675 4.21176 17.8911 4.133 17.9359C4.06526 17.9745 4.0483 17.9747 4.0483 18.0894V18.5H6.20169V18.0894C6.20169 17.974 6.1879 17.9776 6.12297 17.9407C6.04641 17.8972 5.93973 17.8742 5.78158 17.8401C5.65905 17.8137 5.56101 17.7236 5.56101 17.5907V12.5517C5.56101 12.4136 5.67294 12.3017 5.81101 12.3017H6.82995C6.95733 12.3017 7.06434 12.3975 7.07842 12.5241C7.11643 12.8658 7.1891 12.9448 7.29586 12.9917C7.38207 13.0295 7.53961 13.0446 7.74999 13.0453V11.5H2.5Z" fill="black"/>
<path d="M6.23438 2C5.95823 2 5.73438 2.22386 5.73438 2.5V7C5.73438 7.27614 5.95823 7.5 6.23438 7.5H7.29201C8.4034 7.5 8.44591 6.11057 8.43305 5.31006H11.1548V17.4944C10.7426 17.5434 10.2921 17.6081 9.95255 17.8667C9.73638 18.0313 9.56826 18.2856 9.56826 18.6257V19.5642C9.56826 19.8403 9.79212 20.0642 10.0683 20.0642H15.4005C15.6766 20.0642 15.9005 19.8403 15.9005 19.5642V18.6257C15.9005 18.2932 15.7476 18.0347 15.5271 17.8624C15.1873 17.597 14.7298 17.5426 14.3141 17.5046V5.3324H17.0157C17.0107 6.11743 17.065 7.5 18.1548 7.5H19.2344C19.5105 7.5 19.7344 7.27614 19.7344 7L19.7344 2.5C19.7344 2.23478 19.4996 2 19.2344 2H6.23438Z" fill="#3C6AD0"/>
</svg>
