<svg width="16" height="16" viewBox="0 0 16 16" fill="none" xmlns="http://www.w3.org/2000/svg">
<path d="M8 14C11.3137 14 14 11.3137 14 8C14 4.68629 11.3137 2 8 2C4.68629 2 2 4.68629 2 8C2 11.3137 4.68629 14 8 14Z" stroke="#FF3723"/>
<path d="M8 11.9521C8.55228 11.9521 9 11.5044 9 10.9521C9 10.3999 8.55228 9.95215 8 9.95215C7.44772 9.95215 7 10.3999 7 10.9521C7 11.5044 7.44772 11.9521 8 11.9521Z" fill="#FF3723"/>
<path d="M8.5 4.89941C8.5 4.62327 8.27614 4.39941 8 4.39941C7.72386 4.39941 7.5 4.62327 7.5 4.89941V8.89941C7.5 9.17556 7.72386 9.39941 8 9.39941C8.27614 9.39941 8.5 9.17556 8.5 8.89941V4.89941Z" fill="#FF3723"/>
</svg>
