<svg width="265" height="265" viewBox="0 0 265 265" fill="none" xmlns="http://www.w3.org/2000/svg">
<mask id="mask0_418_4441" style="mask-type:alpha" maskUnits="userSpaceOnUse" x="0" y="0" width="265" height="265">
<rect width="265" height="265" fill="#BBBBBB"/>
</mask>
<g mask="url(#mask0_418_4441)">
<path d="M43.8824 18.8125H197.015C201.645 18.8125 205.398 22.5654 205.398 27.1949V248.474C205.398 253.532 200.951 257.438 195.935 256.786L42.8015 236.875C38.6251 236.332 35.5 232.774 35.5 228.563V27.1949C35.5 22.5654 39.2529 18.8125 43.8824 18.8125Z" fill="white" stroke="#4A4849" stroke-width="7"/>
<rect x="35.5" y="10.5" width="185" height="224" rx="8.38235" fill="white" stroke="#4A4849" stroke-width="7"/>
<path d="M113.916 208.68H147.03" stroke="#4A4849" stroke-width="5.94118" stroke-linecap="round"/>
<path d="M97.3613 192.125H163.59" stroke="#4A4849" stroke-width="5.94118" stroke-linecap="round"/>
<path d="M89.082 128.651C89.082 151.511 107.614 170.043 130.475 170.043C153.335 170.043 171.867 151.511 171.867 128.651C171.867 105.79 153.335 87.2578 130.475 87.2578C107.614 87.2578 89.082 105.79 89.082 128.651Z" fill="#3DBDFF" stroke="#4A4849" stroke-width="5.94118" stroke-linecap="round" stroke-linejoin="round"/>
<path d="M134.613 87.4531C134.613 87.4531 147.031 103.806 147.031 128.641C147.031 153.477 134.613 169.83 134.613 169.83" stroke="#4A4849" stroke-width="5.94118" stroke-linecap="round" stroke-linejoin="round"/>
<path d="M126.334 169.83C126.334 169.83 113.916 153.477 113.916 128.641C113.916 103.806 126.334 87.4531 126.334 87.4531" stroke="#4A4849" stroke-width="5.94118" stroke-linecap="round" stroke-linejoin="round"/>
<path d="M91.6895 143.141H169.263" stroke="#4A4849" stroke-width="5.94118" stroke-linecap="round" stroke-linejoin="round"/>
<path d="M91.6895 114.164H169.263" stroke="#4A4849" stroke-width="5.94118" stroke-linecap="round" stroke-linejoin="round"/>
<path d="M200.417 46.5352V69.8344H194.8V46.5352H200.417ZM207.426 46.5352V50.8718H187.951V46.5352H207.426Z" fill="#4A4849"/>
<path d="M169.539 46.5352H178.708C180.501 46.5352 182.058 46.8019 183.381 47.3353C184.704 47.8687 185.723 48.6581 186.437 49.7036C187.163 50.7491 187.526 52.0399 187.526 53.5761C187.526 54.9096 187.318 56.0245 186.901 56.9206C186.485 57.8167 185.904 58.5581 185.157 59.1449C184.421 59.721 183.562 60.1957 182.581 60.5691L180.741 61.6092H173.044L173.012 57.2726H178.708C179.423 57.2726 180.015 57.1446 180.485 56.8886C180.954 56.6326 181.306 56.2698 181.541 55.8004C181.786 55.3204 181.909 54.7496 181.909 54.0882C181.909 53.4161 181.786 52.84 181.541 52.36C181.295 51.8799 180.933 51.5118 180.453 51.2558C179.983 50.9998 179.402 50.8718 178.708 50.8718H175.156V69.8344H169.539V46.5352ZM182.293 69.8344L177.14 59.5289L183.093 59.4969L188.31 69.5943V69.8344H182.293Z" fill="#4A4849"/>
<path d="M167.609 57.7204V58.6646C167.609 60.4461 167.358 62.0464 166.857 63.4652C166.366 64.8734 165.667 66.0789 164.761 67.0817C163.854 68.0739 162.782 68.8366 161.544 69.37C160.307 69.8928 158.941 70.1541 157.448 70.1541C155.943 70.1541 154.567 69.8928 153.319 69.37C152.082 68.8366 151.004 68.0739 150.087 67.0817C149.18 66.0789 148.476 64.8734 147.974 63.4652C147.484 62.0464 147.238 60.4461 147.238 58.6646V57.7204C147.238 55.9389 147.484 54.3386 147.974 52.9198C148.476 51.5009 149.175 50.2954 150.071 49.3033C150.977 48.3005 152.05 47.5377 153.287 47.015C154.535 46.4815 155.911 46.2148 157.416 46.2148C158.909 46.2148 160.275 46.4815 161.512 47.015C162.76 47.5377 163.838 48.3005 164.745 49.3033C165.651 50.2954 166.356 51.5009 166.857 52.9198C167.358 54.3386 167.609 55.9389 167.609 57.7204ZM161.912 58.6646V57.6884C161.912 56.5363 161.811 55.5228 161.608 54.648C161.416 53.7626 161.128 53.0211 160.744 52.4237C160.36 51.8263 159.885 51.3782 159.32 51.0795C158.765 50.7701 158.13 50.6155 157.416 50.6155C156.669 50.6155 156.018 50.7701 155.463 51.0795C154.909 51.3782 154.445 51.8263 154.071 52.4237C153.698 53.0211 153.415 53.7626 153.223 54.648C153.042 55.5228 152.951 56.5363 152.951 57.6884V58.6646C152.951 59.8061 153.042 60.8195 153.223 61.705C153.415 62.5798 153.698 63.3212 154.071 63.9293C154.455 64.5374 154.925 64.9961 155.479 65.3055C156.045 65.6149 156.701 65.7695 157.448 65.7695C158.162 65.7695 158.797 65.6149 159.352 65.3055C159.907 64.9961 160.371 64.5374 160.744 63.9293C161.128 63.3212 161.416 62.5798 161.608 61.705C161.811 60.8195 161.912 59.8061 161.912 58.6646Z" fill="#4A4849"/>
<path d="M136.829 61.9293H131.036V57.5927H136.829C137.618 57.5927 138.258 57.4593 138.749 57.1926C139.24 56.9259 139.597 56.5579 139.821 56.0885C140.056 55.6084 140.173 55.0697 140.173 54.4723C140.173 53.8322 140.056 53.2401 139.821 52.696C139.597 52.1519 139.24 51.7145 138.749 51.3838C138.258 51.0424 137.618 50.8718 136.829 50.8718H133.148V69.8344H127.531V46.5352H136.829C138.695 46.5352 140.301 46.8765 141.645 47.5593C143 48.2421 144.04 49.1809 144.766 50.3757C145.491 51.5599 145.854 52.9147 145.854 54.4402C145.854 55.9445 145.491 57.2566 144.766 58.3768C144.04 59.4969 143 60.3717 141.645 61.0012C140.301 61.6199 138.695 61.9293 136.829 61.9293Z" fill="#4A4849"/>
<path d="M120.002 63.6412C120.002 63.2785 119.948 62.9532 119.842 62.6651C119.735 62.3664 119.538 62.089 119.25 61.833C118.962 61.577 118.546 61.3209 118.002 61.0649C117.468 60.7982 116.764 60.5208 115.889 60.2328C114.865 59.8914 113.878 59.5073 112.929 59.0806C111.979 58.6432 111.131 58.1365 110.384 57.5604C109.638 56.9737 109.046 56.2909 108.608 55.5121C108.171 54.7227 107.952 53.8052 107.952 52.7597C107.952 51.7569 108.176 50.8555 108.624 50.0554C109.072 49.2446 109.696 48.5565 110.496 47.9911C111.307 47.415 112.257 46.9776 113.345 46.6789C114.433 46.3695 115.623 46.2148 116.913 46.2148C118.62 46.2148 120.124 46.5136 121.426 47.111C122.738 47.6977 123.762 48.5352 124.498 49.6233C125.245 50.7008 125.619 51.9756 125.619 53.4478H120.034C120.034 52.8611 119.911 52.3437 119.666 51.8956C119.431 51.4476 119.074 51.0955 118.594 50.8395C118.114 50.5834 117.511 50.4554 116.785 50.4554C116.081 50.4554 115.489 50.5621 115.009 50.7755C114.529 50.9888 114.166 51.2769 113.921 51.6396C113.676 51.9916 113.553 52.381 113.553 52.8078C113.553 53.1598 113.649 53.4798 113.841 53.7679C114.044 54.0453 114.326 54.3066 114.689 54.552C115.062 54.7974 115.511 55.0321 116.033 55.2561C116.567 55.4801 117.164 55.6988 117.826 55.9122C119.063 56.3069 120.162 56.7496 121.122 57.2404C122.093 57.7204 122.909 58.2698 123.57 58.8886C124.242 59.4967 124.749 60.1901 125.091 60.9689C125.443 61.7477 125.619 62.6278 125.619 63.6092C125.619 64.6547 125.416 65.5828 125.01 66.3936C124.605 67.2044 124.024 67.8925 123.266 68.4579C122.509 69.0127 121.602 69.434 120.546 69.7221C119.49 70.0101 118.311 70.1541 117.009 70.1541C115.815 70.1541 114.636 70.0048 113.473 69.7061C112.321 69.3967 111.275 68.9273 110.336 68.2979C109.398 67.6578 108.646 66.8417 108.08 65.8496C107.525 64.8467 107.248 63.6572 107.248 62.2811H112.881C112.881 62.9638 112.971 63.5399 113.153 64.0093C113.334 64.4787 113.601 64.8574 113.953 65.1455C114.305 65.4228 114.737 65.6255 115.249 65.7535C115.761 65.8709 116.348 65.9296 117.009 65.9296C117.724 65.9296 118.3 65.8282 118.738 65.6255C119.175 65.4122 119.495 65.1348 119.698 64.7934C119.9 64.4414 120.002 64.0573 120.002 63.6412Z" fill="#4A4849"/>
<path d="M100.469 63.6412C100.469 63.2785 100.415 62.9532 100.309 62.6651C100.202 62.3664 100.005 62.089 99.7165 61.833C99.4285 61.577 99.0124 61.3209 98.4683 61.0649C97.9349 60.7982 97.2308 60.5208 96.356 60.2328C95.3319 59.8914 94.3451 59.5073 93.3956 59.0806C92.4462 58.6432 91.598 58.1365 90.8513 57.5604C90.1045 56.9737 89.5124 56.2909 89.075 55.5121C88.6376 54.7227 88.4189 53.8052 88.4189 52.7597C88.4189 51.7569 88.643 50.8555 89.091 50.0554C89.5391 49.2446 90.1632 48.5565 90.9633 47.9911C91.7741 47.415 92.7235 46.9776 93.8117 46.6789C94.8998 46.3695 96.0893 46.2148 97.3802 46.2148C99.0871 46.2148 100.591 46.5136 101.893 47.111C103.205 47.6977 104.229 48.5352 104.965 49.6233C105.712 50.7008 106.085 51.9756 106.085 53.4478H100.501C100.501 52.8611 100.378 52.3437 100.133 51.8956C99.8979 51.4476 99.5405 51.0955 99.0604 50.8395C98.5803 50.5834 97.9776 50.4554 97.2522 50.4554C96.5481 50.4554 95.956 50.5621 95.4759 50.7755C94.9958 50.9888 94.6331 51.2769 94.3878 51.6396C94.1424 51.9916 94.0197 52.381 94.0197 52.8078C94.0197 53.1598 94.1157 53.4798 94.3078 53.7679C94.5104 54.0453 94.7932 54.3066 95.1559 54.552C95.5293 54.7974 95.9773 55.0321 96.5001 55.2561C97.0335 55.4801 97.6309 55.6988 98.2923 55.9122C99.5298 56.3069 100.629 56.7496 101.589 57.2404C102.56 57.7204 103.376 58.2698 104.037 58.8886C104.709 59.4967 105.216 60.1901 105.557 60.9689C105.909 61.7477 106.085 62.6278 106.085 63.6092C106.085 64.6547 105.883 65.5828 105.477 66.3936C105.072 67.2044 104.49 67.8925 103.733 68.4579C102.976 69.0127 102.069 69.434 101.013 69.7221C99.9565 70.0101 98.7777 70.1541 97.4762 70.1541C96.2814 70.1541 95.1025 70.0048 93.9397 69.7061C92.7875 69.3967 91.7421 68.9273 90.8033 68.2979C89.8645 67.6578 89.1124 66.8417 88.547 65.8496C87.9922 64.8467 87.7148 63.6572 87.7148 62.2811H93.3476C93.3476 62.9638 93.4383 63.5399 93.6197 64.0093C93.801 64.4787 94.0677 64.8574 94.4198 65.1455C94.7718 65.4228 95.2039 65.6255 95.7159 65.7535C96.228 65.8709 96.8148 65.9296 97.4762 65.9296C98.191 65.9296 98.767 65.8282 99.2044 65.6255C99.6418 65.4122 99.9619 65.1348 100.165 64.7934C100.367 64.4414 100.469 64.0573 100.469 63.6412Z" fill="#4A4849"/>
<path d="M76.9871 51.4318L71.3063 69.8344H65.2734L73.8346 46.5352H77.6591L76.9871 51.4318ZM81.6917 69.8344L75.9949 51.4318L75.2588 46.5352H79.1313L87.7405 69.8344H81.6917ZM81.4677 61.1452V65.4818H69.514V61.1452H81.4677Z" fill="#4A4849"/>
<path d="M58.8949 61.9293H53.1021V57.5927H58.8949C59.6844 57.5927 60.3245 57.4593 60.8152 57.1926C61.3059 56.9259 61.6633 56.5579 61.8874 56.0885C62.1221 55.6084 62.2394 55.0697 62.2394 54.4723C62.2394 53.8322 62.1221 53.2401 61.8874 52.696C61.6633 52.1519 61.3059 51.7145 60.8152 51.3838C60.3245 51.0424 59.6844 50.8718 58.8949 50.8718H55.2144V69.8344H49.5977V46.5352H58.8949C60.7619 46.5352 62.3674 46.8765 63.7116 47.5593C65.0665 48.2421 66.1066 49.1809 66.832 50.3757C67.5575 51.5599 67.9202 52.9147 67.9202 54.4402C67.9202 55.9445 67.5575 57.2566 66.832 58.3768C66.1066 59.4969 65.0665 60.3717 63.7116 61.0012C62.3674 61.6199 60.7619 61.9293 58.8949 61.9293Z" fill="#4A4849"/>
</g>
</svg>
