<svg width="265" height="265" viewBox="0 0 265 265" fill="none" xmlns="http://www.w3.org/2000/svg">
<mask id="mask0_418_5365" style="mask-type:alpha" maskUnits="userSpaceOnUse" x="0" y="0" width="265" height="265">
<rect width="265" height="265" fill="#BBBBBB"/>
</mask>
<g mask="url(#mask0_418_5365)">
<path d="M176.602 48.5498L176.602 92.6483L176.602 253.25L136.451 239.867L96.3009 253.25L56.1504 239.867L16 253.25L16 55.6808C16 35.2533 16 25.0395 22.346 18.6935C28.692 12.3475 38.9058 12.3475 59.3333 12.3475L177.933 12.3475C189.562 12.3475 194.128 27.4299 184.453 33.8805C179.548 37.1503 176.602 42.6551 176.602 48.5498Z" fill="white"/>
<path d="M249 50.586L249 81.8149C249 86.9218 249 89.4753 247.413 91.0618C245.827 92.6483 243.274 92.6483 238.167 92.6483L176.602 92.6483L176.602 253.25L136.451 239.867L96.3009 253.25L56.1504 239.867L16 253.25L16 55.6808C16 35.2533 16 25.0395 22.346 18.6935C28.692 12.3475 38.9058 12.3475 59.3333 12.3475L210.761 12.3475C216.092 12.3475 218.757 12.3475 220.993 12.6595C235.375 14.6669 246.681 25.9723 248.688 40.3549C249 42.5904 249 45.2556 249 50.586Z" fill="white"/>
<path d="M210.761 12.3475V12.3475C216.092 12.3475 218.757 12.3475 220.993 12.6595C235.375 14.6669 246.681 25.9723 248.688 40.3549C249 42.5904 249 45.2556 249 50.586L249 81.8149C249 86.9218 249 89.4753 247.413 91.0618C245.827 92.6483 243.274 92.6483 238.167 92.6483L176.602 92.6483M210.761 12.3475V12.3475C209.22 12.3475 208.45 12.3475 207.799 12.3736C190.873 13.0529 177.307 26.6185 176.628 43.5443C176.602 44.1956 176.602 44.9662 176.602 46.5072L176.602 92.6483M210.761 12.3475L59.3333 12.3475C38.9058 12.3475 28.692 12.3475 22.346 18.6935C16 25.0395 16 35.2533 16 55.6808L16 253.25L56.1504 239.867L96.3009 253.25L136.451 239.867L176.602 253.25L176.602 92.6483" stroke="#4A4849" stroke-width="7"/>
<path d="M102.945 48.7109L108.038 59.0676L113.13 48.7109H121.69L113.002 64.1604L121.925 79.8666H113.28L108.038 69.3174L102.795 79.8666H94.1289L103.073 64.1604L94.3643 48.7109H102.945Z" fill="#4A4849"/>
<path d="M79.7455 55.2588L72.1491 79.8666H64.082L75.53 48.7109H80.6442L79.7455 55.2588ZM86.0365 79.8666L78.4188 55.2588L77.4345 48.7109H82.6128L94.125 79.8666H86.0365ZM85.737 68.2475V74.0464H69.7525V68.2475H85.737Z" fill="#4A4849"/>
<path d="M56.5949 48.7109V79.8666H49.0842V48.7109H56.5949ZM65.9673 48.7109V54.5098H39.9258V48.7109H65.9673Z" fill="#4A4849"/>
<path d="M49.1484 105.195H128.214" stroke="#4A4849" stroke-width="6" stroke-linecap="round"/>
<path d="M49.1484 121.664H128.214" stroke="#4A4849" stroke-width="6" stroke-linecap="round"/>
<path d="M49.1484 138.133H88.6728" stroke="#4A4849" stroke-width="6" stroke-linecap="round"/>
<path d="M49.1484 154.602H88.6728" stroke="#4A4849" stroke-width="6" stroke-linecap="round"/>
<path d="M49.1484 171.07H88.6728" stroke="#4A4849" stroke-width="6" stroke-linecap="round"/>
<path d="M243.545 148.938H124.25C123.145 148.938 122.25 149.833 122.25 150.938V220.914C122.25 222.019 123.145 222.914 124.25 222.914H243.545C244.649 222.914 245.545 222.019 245.545 220.914V150.938C245.545 149.833 244.649 148.938 243.545 148.938Z" fill="#3DBDFF" stroke="#4A4849" stroke-width="6" stroke-miterlimit="10"/>
<path d="M199.308 179.759V176.677C199.308 171.552 195.185 167.43 190.061 167.43H177.731C172.607 167.43 168.484 171.552 168.484 176.677C168.484 181.801 172.607 185.924 177.731 185.924H190.061C195.185 185.924 199.308 190.047 199.308 195.171C199.308 200.295 195.185 204.418 190.061 204.418H177.731C172.607 204.418 168.484 200.295 168.484 195.171V192.089" stroke="#4A4849" stroke-width="5" stroke-miterlimit="10"/>
<path d="M183.898 213.669V204.422" stroke="#4A4849" stroke-width="5" stroke-miterlimit="10"/>
<path d="M183.898 158.184V167.431" stroke="#4A4849" stroke-width="5" stroke-miterlimit="10"/>
<path d="M220.887 222.913V219.831C220.887 207.925 230.558 198.254 242.463 198.254H245.546" stroke="#4A4849" stroke-width="5" stroke-miterlimit="10"/>
<path d="M220.887 148.938V152.02C220.887 163.926 230.558 173.596 242.463 173.596H245.546" stroke="#4A4849" stroke-width="5" stroke-miterlimit="10"/>
<path d="M146.909 222.913V219.831C146.909 207.925 137.238 198.254 125.332 198.254H122.25" stroke="#4A4849" stroke-width="5" stroke-miterlimit="10"/>
<path d="M146.909 148.938V152.02C146.909 163.926 137.238 173.596 125.332 173.596H122.25" stroke="#4A4849" stroke-width="5" stroke-miterlimit="10"/>
</g>
</svg>
