<svg width="265" height="265" viewBox="0 0 265 265" fill="none" xmlns="http://www.w3.org/2000/svg">
<path d="M223 132V56.9824C223 55.0728 222.242 53.2415 220.892 51.8911L183.108 14.1089C181.758 12.7585 179.927 12 178.018 12H38.2C34.2236 12 31 15.2236 31 19.2V244.8C31 248.777 34.2236 252 38.2 252H115" fill="white"/>
<path d="M223 132V56.9824C223 55.0728 222.242 53.2415 220.892 51.8911L183.108 14.1089C181.758 12.7585 179.927 12 178.018 12H38.2C34.2236 12 31 15.2236 31 19.2V244.8C31 248.777 34.2236 252 38.2 252H115" stroke="#4A4849" stroke-width="6" stroke-linecap="round" stroke-linejoin="round"/>
<path d="M175 52.8V16.2426C175 13.8995 176.9 12 179.243 12C180.368 12 181.446 12.447 182.243 13.2426L221.757 52.7574C222.554 53.553 223 54.6322 223 55.7574C223 58.1005 221.1 60 218.757 60H182.2C178.223 60 175 56.7764 175 52.8Z" fill="#4A4849" stroke="#4A4849" stroke-width="5" stroke-linecap="round" stroke-linejoin="round"/>
<path d="M198.45 191.273L210.45 179.273C215.705 174.018 224.225 174.018 229.479 179.273C234.734 184.528 234.734 193.048 229.479 198.303L217.479 210.303L198.45 191.273ZM198.45 191.273L162.557 227.166C160.758 228.965 159.577 231.29 159.186 233.802L156.273 252.479L174.949 249.568C177.463 249.176 179.786 247.995 181.585 246.196L217.479 210.303L198.45 191.273ZM217.479 210.303L198.45 191.273Z" fill="white"/>
<path d="M198.45 191.273L210.45 179.273C215.705 174.018 224.225 174.018 229.479 179.273C234.734 184.528 234.734 193.048 229.479 198.303L217.479 210.303M198.45 191.273L217.479 210.303M198.45 191.273L162.557 227.166C160.758 228.965 159.577 231.29 159.186 233.802L156.273 252.479L174.949 249.568C177.463 249.176 179.786 247.995 181.585 246.196L217.479 210.303" stroke="#4A4849" stroke-width="7" stroke-linecap="round" stroke-linejoin="round"/>
<path d="M157.131 69.2031C145.232 69.2031 134.608 74.7508 126.881 82.3872C119.155 74.7508 108.531 69.2031 96.6313 69.2031C72.6018 69.2031 53.1016 88.7141 53.1016 112.751C53.1016 124.615 57.858 135.347 65.5412 143.214L65.5534 143.227L65.5657 143.239L124.759 202.46L126.882 204.583L129.004 202.459L188.197 143.196L188.206 143.187L188.215 143.178C195.905 135.349 200.661 124.613 200.661 112.751C200.661 88.7141 181.161 69.2031 157.131 69.2031Z" fill="#3DBDFF" stroke="#4A4849" stroke-width="6" stroke-miterlimit="10"/>
<mask id="mask0_418_4473" style="mask-type:alpha" maskUnits="userSpaceOnUse" x="56" y="72" width="142" height="129">
<path d="M197.661 112.751C197.661 90.3697 179.503 72.2031 157.131 72.2031C145.082 72.2031 134.296 78.3992 126.881 86.7448C119.466 78.3992 108.681 72.2031 96.6313 72.2031C74.2599 72.2031 56.1016 90.3697 56.1016 112.751C56.1016 123.795 60.5253 133.784 67.6875 141.118L126.881 200.339L186.075 141.076C193.237 133.784 197.661 123.795 197.661 112.751Z" fill="#00A8FF"/>
</mask>
<g mask="url(#mask0_418_4473)">
<path d="M99.715 117.34C92.0176 117.34 85.7812 123.576 85.7812 131.274V153.492C85.7812 155.985 87.8073 158.011 90.3003 158.011V180.419C90.3003 182.896 92.2059 185.051 94.6838 185.126C97.2446 185.201 99.3385 183.153 99.3385 180.607C99.3385 183.145 101.44 185.201 103.993 185.126C106.464 185.051 108.377 182.896 108.377 180.419V153.492L113.649 136.922V131.274C113.649 123.576 107.413 117.34 99.715 117.34Z" fill="white"/>
<path d="M99.3365 109.806C103.496 109.806 106.868 106.434 106.868 102.274C106.868 98.1143 103.496 94.7422 99.3365 94.7422C95.1768 94.7422 91.8047 98.1143 91.8047 102.274C91.8047 106.434 95.1768 109.806 99.3365 109.806Z" fill="white"/>
<path d="M99.3382 112.067C93.9379 112.067 89.5469 107.676 89.5469 102.276C89.5469 96.8754 93.9379 92.4844 99.3382 92.4844C104.738 92.4844 109.13 96.8754 109.13 102.276C109.13 107.676 104.738 112.067 99.3382 112.067ZM99.3382 97.0034C96.4309 97.0034 94.0659 99.3684 94.0659 102.276C94.0659 105.183 96.4309 107.548 99.3382 107.548C102.245 107.548 104.61 105.183 104.61 102.276C104.61 99.3684 102.245 97.0034 99.3382 97.0034Z" fill="#4A4849"/>
<path d="M152.812 165.541C152.812 169.864 156.458 173.344 160.849 173.057C164.856 172.801 167.876 169.299 167.876 165.285V162.528C167.876 158.37 164.502 154.996 160.344 154.996C156.187 154.996 152.812 158.37 152.812 162.528V165.541Z" fill="white"/>
<path d="M160.346 147.466C163.258 147.466 165.619 145.106 165.619 142.194C165.619 139.282 163.258 136.922 160.346 136.922C157.435 136.922 155.074 139.282 155.074 142.194C155.074 145.106 157.435 147.466 160.346 147.466Z" fill="white"/>
<path d="M160.344 149.724C156.194 149.724 152.812 146.342 152.812 142.192C152.812 138.042 156.194 134.66 160.344 134.66C164.494 134.66 167.876 138.042 167.876 142.192C167.876 146.342 164.494 149.724 160.344 149.724ZM160.344 139.179C158.68 139.179 157.332 140.527 157.332 142.192C157.332 143.856 158.68 145.205 160.344 145.205C162.009 145.205 163.357 143.856 163.357 142.192C163.357 140.527 162.009 139.179 160.344 139.179Z" fill="#4A4849"/>
<path d="M128.713 117.34C120.812 117.34 114.402 123.749 114.402 131.65V153.492C114.402 155.985 116.428 158.011 118.921 158.011V165.543H136.998V156.505H143.023V131.65C143.023 123.749 136.614 117.34 128.713 117.34Z" fill="white"/>
<path d="M128.711 109.806C132.871 109.806 136.243 106.434 136.243 102.274C136.243 98.1143 132.871 94.7422 128.711 94.7422C124.552 94.7422 121.18 98.1143 121.18 102.274C121.18 106.434 124.552 109.806 128.711 109.806Z" fill="white"/>
<path d="M128.709 112.067C123.309 112.067 118.918 107.676 118.918 102.276C118.918 96.8754 123.309 92.4844 128.709 92.4844C134.11 92.4844 138.501 96.8754 138.501 102.276C138.501 107.676 134.11 112.067 128.709 112.067ZM128.709 97.0034C125.802 97.0034 123.437 99.3684 123.437 102.276C123.437 105.183 125.802 107.548 128.709 107.548C131.617 107.548 133.982 105.183 133.982 102.276C133.982 99.3684 131.617 97.0034 128.709 97.0034Z" fill="#4A4849"/>
<path d="M175.37 172.666L174.045 165.383C172.855 158.853 167.628 153.92 161.037 153.121C152.971 152.142 146.75 145.815 145.914 137.741L145.093 129.886C144.211 121.442 137.154 115.078 128.666 115.078C125.156 115.078 121.804 116.163 118.972 118.219C117.963 118.949 117.737 120.365 118.468 121.375C119.198 122.384 120.614 122.61 121.624 121.879C123.68 120.388 126.113 119.597 128.666 119.597C134.834 119.597 139.963 124.222 140.604 130.353L141.425 138.208C142.102 144.701 145.537 150.282 150.561 153.807V165.541C150.561 168.29 151.705 170.783 153.543 172.561L154.334 185.267C154.409 186.464 155.404 187.383 156.586 187.383C156.631 187.383 156.684 187.383 156.729 187.376C157.972 187.3 158.921 186.223 158.846 184.981L158.228 175.091C158.913 175.242 159.621 175.332 160.36 175.332H162.476L161.873 184.981C161.798 186.223 162.74 187.3 163.99 187.376C164.035 187.376 164.088 187.383 164.133 187.383C165.315 187.383 166.31 186.464 166.385 185.267L167.138 173.216C167.176 172.591 166.957 171.981 166.528 171.529C166.099 171.077 165.489 170.813 164.864 170.813H160.344C157.437 170.813 155.072 168.448 155.072 165.541V156.247C156.782 156.917 158.597 157.384 160.495 157.61C165.112 158.167 168.773 161.617 169.601 166.189L170.927 173.472C171.122 174.564 172.079 175.325 173.148 175.325C173.284 175.325 173.42 175.31 173.555 175.287C174.783 175.076 175.596 173.894 175.37 172.666Z" fill="#4A4849"/>
<path d="M138.502 148.219C137.252 148.219 136.243 149.228 136.243 150.478V163.282H121.179C121.179 162.032 120.17 161.023 118.92 161.023C117.669 161.023 116.66 162.032 116.66 163.282C116.66 165.775 118.686 167.801 121.179 167.801H121.345L122.693 185.298C122.783 186.48 123.77 187.384 124.945 187.384C125.005 187.384 125.066 187.384 125.118 187.376C126.361 187.279 127.295 186.194 127.197 184.951L125.879 167.801H131.543L130.225 184.951C130.127 186.194 131.061 187.279 132.304 187.376C132.364 187.384 132.424 187.384 132.477 187.384C133.644 187.384 134.639 186.48 134.729 185.298L136.077 167.801H136.243C138.736 167.801 140.762 165.775 140.762 163.282V150.478C140.762 149.228 139.753 148.219 138.502 148.219Z" fill="#4A4849"/>
<path d="M116.471 129.886C115.59 121.442 108.533 115.078 100.044 115.078C90.9308 115.078 83.5195 122.489 83.5195 131.603V153.49C83.5195 156.435 85.41 158.951 88.0386 159.885V180.605C88.0386 184.34 91.0814 187.383 94.8172 187.383C96.557 187.383 98.1387 186.72 99.3363 185.643C100.534 186.72 102.115 187.383 103.855 187.383C107.591 187.383 110.634 184.34 110.634 180.605V161.022C110.634 159.772 109.625 158.762 108.374 158.762C107.124 158.762 106.115 159.772 106.115 161.022V180.605C106.115 181.847 105.098 182.864 103.855 182.864C102.613 182.864 101.596 181.847 101.596 180.605V153.49C101.596 152.24 100.587 151.231 99.3363 151.231C98.086 151.231 97.0767 152.24 97.0767 153.49V180.605C97.0767 181.847 96.0599 182.864 94.8172 182.864C93.5745 182.864 92.5577 181.847 92.5577 180.605V158.009C92.5577 156.759 91.5484 155.75 90.2981 155.75C89.0554 155.75 88.0386 154.733 88.0386 153.49V131.603C88.0386 124.982 93.4238 119.597 100.044 119.597C106.175 119.597 111.282 124.169 111.967 130.247V153.49C111.967 154.74 112.976 155.75 114.227 155.75C115.477 155.75 116.486 154.74 116.486 153.49V130.119C116.486 130.044 116.479 129.968 116.471 129.886Z" fill="#4A4849"/>
</g>
</svg>
