<svg width="265" height="265" viewBox="0 0 265 265" fill="none" xmlns="http://www.w3.org/2000/svg">
<mask id="mask0_418_4405" style="mask-type:alpha" maskUnits="userSpaceOnUse" x="0" y="0" width="265" height="265">
<rect width="265" height="265" fill="#AAAAAA"/>
</mask>
<g mask="url(#mask0_418_4405)">
<path d="M240.904 126.886C240.904 102.265 220.92 82.2812 196.3 82.2812C183.039 82.2812 171.169 89.0971 163.009 98.2777C154.848 89.0971 142.979 82.2812 129.718 82.2812C105.097 82.2812 85.1133 102.265 85.1133 126.886C85.1133 139.034 89.9818 150.023 97.864 158.09L163.009 223.235L228.154 158.044C236.036 150.023 240.904 139.034 240.904 126.886Z" fill="white" stroke="#4A4849" stroke-width="7" stroke-miterlimit="10"/>
<path d="M44.1946 214.499L45.895 84.0061L115.139 84.0061L113.439 214.499" fill="#3DBDFF"/>
<path d="M44.1946 214.499L45.895 84.0061L115.139 84.0061L113.439 214.499" stroke="#4A4849" stroke-width="7" stroke-miterlimit="10" stroke-linecap="round" stroke-linejoin="round"/>
<path d="M89.3276 175.285H115.137" stroke="#4A4849" stroke-width="6" stroke-miterlimit="10" stroke-linecap="round"/>
<path d="M82.0014 150.105H114.105" stroke="#4A4849" stroke-width="6" stroke-miterlimit="10" stroke-linecap="round"/>
<path d="M89.3276 124.926L115.137 124.926" stroke="#4A4849" stroke-width="6" stroke-miterlimit="10" stroke-linecap="round"/>
<path d="M102.545 216.999V256.001" stroke="#4A4849" stroke-width="7" stroke-miterlimit="10" stroke-linecap="round"/>
<path d="M58.483 256.001L58.4829 216.999" stroke="#4A4849" stroke-width="7" stroke-miterlimit="10" stroke-linecap="round"/>
<path d="M67.9254 84.0083V61.9761H93.105V84.0083" stroke="#4A4849" stroke-width="7" stroke-miterlimit="10" stroke-linecap="round" stroke-linejoin="round"/>
<path d="M29.5264 216.203L131.504 216.203" stroke="#4A4849" stroke-width="7" stroke-miterlimit="10" stroke-linecap="round"/>
<path d="M45.2626 257.117L115.766 257.117" stroke="#4A4849" stroke-width="7" stroke-miterlimit="10" stroke-linecap="round"/>
<path d="M80.5139 61.9744L80.5139 7.83815" stroke="#4A4849" stroke-width="7" stroke-miterlimit="10" stroke-linecap="round"/>
</g>
</svg>
