<svg width="265" height="265" viewBox="0 0 265 265" fill="none" xmlns="http://www.w3.org/2000/svg">
<mask id="mask0_418_4507" style="mask-type:alpha" maskUnits="userSpaceOnUse" x="0" y="0" width="265" height="265">
<rect width="265" height="265" fill="#BBBBBB"/>
</mask>
<g mask="url(#mask0_418_4507)">
<path d="M61.1599 250.264L15.8031 204.907C14.4684 203.572 13.7188 201.763 13.7188 199.876V137.591C13.7188 127.766 21.6838 119.801 31.5092 119.801C41.3346 119.801 49.2996 127.766 49.2996 137.591L50.4857 192.149L62.346 203.416L51.0787 192.149C51.0787 192.149 49.2996 187.404 52.2647 185.032L60.5669 180.881C68.8691 176.73 78.9504 179.695 83.1015 183.253L96.7408 196.3C103.857 206.381 102.671 217.055 102.671 217.055V250.264" fill="white"/>
<path d="M61.1599 250.264L15.8031 204.907C14.4684 203.572 13.7188 201.763 13.7188 199.876V137.591C13.7188 127.766 21.6838 119.801 31.5092 119.801C41.3346 119.801 49.2996 127.766 49.2996 137.591L50.4857 192.149L62.346 203.416L51.0787 192.149C51.0787 192.149 49.2996 187.404 52.2647 185.032L60.5669 180.881C68.8691 176.73 78.9504 179.695 83.1015 183.253L96.7408 196.3C103.857 206.381 102.671 217.055 102.671 217.055V250.264" stroke="#4A4849" stroke-width="7" stroke-linecap="round" stroke-linejoin="round"/>
<path d="M203.559 250.264L248.916 204.907C250.25 203.572 251 201.763 251 199.876V137.591C251 127.766 243.035 119.801 233.21 119.801C223.384 119.801 215.419 127.766 215.419 137.591L214.233 192.149L202.373 203.416L213.64 192.149C213.64 192.149 215.419 187.404 212.454 185.032L204.152 180.881C195.85 176.73 185.768 179.695 181.617 183.253L167.978 196.3C160.862 206.381 162.048 217.055 162.048 217.055V250.264" fill="white"/>
<path d="M203.559 250.264L248.916 204.907C250.25 203.572 251 201.763 251 199.876V137.591C251 127.766 243.035 119.801 233.21 119.801C223.384 119.801 215.419 127.766 215.419 137.591L214.233 192.149L202.373 203.416L213.64 192.149C213.64 192.149 215.419 187.404 212.454 185.032L204.152 180.881C195.85 176.73 185.768 179.695 181.617 183.253L167.978 196.3C160.862 206.381 162.048 217.055 162.048 217.055V250.264" stroke="#4A4849" stroke-width="7" stroke-linecap="round" stroke-linejoin="round"/>
<path d="M204.278 109.665C221.531 109.665 235.517 95.4149 235.517 77.8364C235.517 60.258 221.531 46.0078 204.278 46.0078C187.025 46.0078 173.039 60.258 173.039 77.8364C173.039 95.4149 187.025 109.665 204.278 109.665Z" fill="#3DBDFF" stroke="#4A4849" stroke-width="6" stroke-miterlimit="10" stroke-linecap="round" stroke-linejoin="round"/>
<path d="M211.253 93.1615H198.482V84.222H189.543V71.4512H198.482V62.5117H211.253V71.4512H220.193V84.222H211.253V93.1615Z" fill="#3DBDFF" stroke="#4A4849" stroke-width="4" stroke-linecap="round" stroke-linejoin="round"/>
<path d="M62.8173 109.665C80.0702 109.665 94.0565 95.4149 94.0565 77.8364C94.0565 60.258 80.0702 46.0078 62.8173 46.0078C45.5644 46.0078 31.5781 60.258 31.5781 77.8364C31.5781 95.4149 45.5644 109.665 62.8173 109.665Z" fill="#3DBDFF" stroke="#4A4849" stroke-width="6" stroke-miterlimit="10" stroke-linecap="round" stroke-linejoin="round"/>
<path d="M62.8166 62.5117L50.4389 74.4311V91.4587C50.4389 92.3991 51.2305 93.1615 52.2071 93.1615H57.5119C58.4885 93.1615 59.2801 92.3991 59.2801 91.4587V84.6477C59.2801 83.7072 60.0718 82.9449 61.0484 82.9449H64.5849C65.5615 82.9449 66.3532 83.7072 66.3532 84.6477V91.4587C66.3532 92.3991 67.1448 93.1615 68.1214 93.1615H73.4262C74.4028 93.1615 75.1944 92.3991 75.1944 91.4587V74.4311L62.8166 62.5117Z" fill="#3DBDFF"/>
<path d="M46.9023 77.8366L50.4389 74.4311M50.4389 74.4311L62.8166 62.5117L75.1944 74.4311M50.4389 74.4311V91.4587C50.4389 92.3991 51.2305 93.1615 52.2071 93.1615H57.5119M75.1944 74.4311L78.7309 77.8366M75.1944 74.4311V91.4587C75.1944 92.3991 74.4028 93.1615 73.4262 93.1615H68.1214M57.5119 93.1615C58.4885 93.1615 59.2801 92.3991 59.2801 91.4587V84.6477C59.2801 83.7072 60.0718 82.9449 61.0484 82.9449H64.5849C65.5615 82.9449 66.3532 83.7072 66.3532 84.6477V91.4587C66.3532 92.3991 67.1448 93.1615 68.1214 93.1615M57.5119 93.1615H68.1214" stroke="#4A4849" stroke-width="4" stroke-linecap="round" stroke-linejoin="round"/>
<path d="M133.548 76.6572C150.801 76.6572 164.787 62.407 164.787 44.8286C164.787 27.2501 150.801 13 133.548 13C116.295 13 102.309 27.2501 102.309 44.8286C102.309 62.407 116.295 76.6572 133.548 76.6572Z" fill="#3DBDFF" stroke="#4A4849" stroke-width="6" stroke-miterlimit="10" stroke-linecap="round" stroke-linejoin="round"/>
<path d="M132.832 64.4532V59.2109" stroke="#4A4849" stroke-width="4" stroke-miterlimit="10" stroke-linecap="round"/>
<path d="M132.832 26.0078V31.2501" stroke="#4A4849" stroke-width="4" stroke-miterlimit="10" stroke-linecap="round"/>
<path d="M143.317 39.6139V37.7417C143.317 36.2521 142.764 34.8234 141.781 33.7701C140.798 32.7168 139.465 32.125 138.074 32.125H127.59C126.2 32.125 124.866 32.7168 123.883 33.7701C122.9 34.8234 122.348 36.2521 122.348 37.7417V39.6139C122.348 41.1036 122.9 42.5322 123.883 43.5856C124.866 44.6389 126.2 45.2307 127.59 45.2307H138.074C139.465 45.2307 140.798 45.8224 141.781 46.8758C142.764 47.9291 143.317 49.3577 143.317 50.8474V52.7196C143.317 54.2092 142.764 55.6379 141.781 56.6912C140.798 57.7446 139.465 58.3363 138.074 58.3363H127.59C126.2 58.3363 124.866 57.7446 123.883 56.6912C122.9 55.6379 122.348 54.2092 122.348 52.7196V50.8474" stroke="#4A4849" stroke-width="4" stroke-miterlimit="10"/>
</g>
</svg>
