<svg width="265" height="265" viewBox="0 0 265 265" fill="none" xmlns="http://www.w3.org/2000/svg">
<mask id="mask0_418_4625" style="mask-type:alpha" maskUnits="userSpaceOnUse" x="0" y="0" width="265" height="265">
<rect width="265" height="265" fill="#BBBBBB"/>
</mask>
<g mask="url(#mask0_418_4625)">
<path d="M187 132V57.913C187 44.8061 180.231 33.5578 170.89 31.1424L162.596 28.9977C126.513 19.6674 89.4873 19.6674 53.4045 28.9977L45.1103 31.1424C35.7691 33.5578 29 44.8061 29 57.913V132" fill="white"/>
<path d="M187 132V57.913C187 44.8061 180.231 33.5578 170.89 31.1424L162.596 28.9977C126.513 19.6674 89.4873 19.6674 53.4045 28.9977L45.1103 31.1424C35.7691 33.5578 29 44.8061 29 57.913V132" stroke="#4A4849" stroke-width="7"/>
<path d="M49.25 133.967C49.25 131.857 50.6861 130.017 52.7333 129.505C89.3474 120.352 127.653 120.352 164.267 129.505C166.314 130.017 167.75 131.857 167.75 133.967V150.126C167.75 155.58 163.329 160.001 157.875 160.001H59.125C53.6712 160.001 49.25 155.58 49.25 150.126V133.967Z" fill="white" stroke="#4A4849" stroke-width="7"/>
<path d="M19.625 199.5H39.375V219.25H29.5L19.625 199.5Z" fill="white" stroke="#4A4849" stroke-width="7" stroke-linejoin="round"/>
<path d="M177.625 199.5H197.375L187.5 219.25H177.625V199.5Z" fill="white" stroke="#4A4849" stroke-width="7" stroke-linejoin="round"/>
<path d="M19.625 199.5H197.375Z" fill="white"/>
<path d="M19.625 199.5H197.375" stroke="#4A4849" stroke-width="5" stroke-linejoin="round"/>
<path d="M19.625 199.5H197.375C202.829 199.5 207.25 195.079 207.25 189.625V120.5C207.25 109.592 198.408 100.75 187.5 100.75C176.592 100.75 167.75 109.592 167.75 120.5V150.125C167.75 155.579 163.329 160 157.875 160H59.125C53.6712 160 49.25 155.579 49.25 150.125V120.5C49.25 109.592 40.4076 100.75 29.5 100.75C18.5924 100.75 9.75 109.592 9.75 120.5V189.625C9.75 195.079 14.1712 199.5 19.625 199.5Z" fill="white" stroke="#4A4849" stroke-width="7" stroke-linejoin="round"/>
<path d="M142.207 43.5673L157.664 54.0638L124.425 67.0289L132.456 56.1507L134.5 53.3823L131.235 52.2941L121.906 49.1844L127.824 43.2669L129.738 41.3524L127.677 39.5963L108.788 23.5H129.687L144.778 33.5759L141.375 40.3811L140.397 42.3381L142.207 43.5673Z" fill="#3DBDFF" stroke="#4A4849" stroke-width="5"/>
<path d="M82.5228 117.509L93.5604 125.452L67.5241 128.359L62.7276 121.046L72.847 113.257L66.7643 104.616L96.5783 90.0994L82.0945 104.125L89.2883 108.584L82.5228 117.509Z" fill="#4A4849"/>
<path d="M163.486 214.656L166.106 211.633L160.059 206.394L157.44 209.418L163.486 214.656ZM111.302 229.47L107.302 229.47L107.302 237.47L111.302 237.47L111.302 229.47ZM142.007 227.231L139.387 230.254L145.434 235.492L148.053 232.469L142.007 227.231ZM114.665 219.397C114.665 217.188 112.874 215.397 110.665 215.397C108.456 215.397 106.665 217.188 106.665 219.397L114.665 219.397ZM106.665 247.71C106.665 249.92 108.456 251.71 110.665 251.71C112.874 251.71 114.665 249.92 114.665 247.71L106.665 247.71ZM131.207 237.47L135.207 237.47L135.207 229.47L131.207 229.47L131.207 237.47ZM157.44 209.418L142.007 227.231L148.053 232.469L163.486 214.656L157.44 209.418ZM131.207 229.47L111.302 229.47L111.302 237.47L131.207 237.47L131.207 229.47ZM106.665 219.397L106.665 233.554L114.665 233.554L114.665 219.397L106.665 219.397ZM106.665 233.554L106.665 247.71L114.665 247.71L114.665 233.554L106.665 233.554Z" fill="#4A4849"/>
<rect x="147.594" y="164.199" width="81.1571" height="24.3471" rx="12.1736" transform="rotate(39.9492 147.594 164.199)" fill="white" stroke="#4A4849" stroke-width="7"/>
<rect x="139.606" y="138.987" width="12.1736" height="4.05786" rx="2.02893" transform="rotate(39.9492 139.606 138.987)" stroke="#4A4849" stroke-width="4.05786"/>
<rect x="226.708" y="211.94" width="12.1736" height="4.05786" rx="2.02893" transform="rotate(39.9492 226.708 211.94)" stroke="#4A4849" stroke-width="4.05786"/>
<path d="M201.873 109.594C207.166 104.671 215.296 104.46 220.837 109.101L251.211 134.542C256.752 139.183 257.97 147.224 254.052 153.298L229.843 190.829C227.507 194.451 222.524 195.206 219.22 192.438L169.45 150.751C166.145 147.983 166.014 142.946 169.171 140.01L201.873 109.594Z" fill="white" stroke="#4A4849" stroke-width="7" stroke-linejoin="round"/>
<path d="M181.308 187.15L191.73 174.707" stroke="#4A4849" stroke-width="7" stroke-linecap="round" stroke-linejoin="round"/>
<path d="M205.105 228.257L208.944 231.473C211.978 234.014 216.497 233.614 219.039 230.58L227.465 220.52" stroke="#4A4849" stroke-width="7" stroke-linecap="round" stroke-linejoin="round"/>
<path d="M136.668 170.929L132.829 167.714C129.795 165.173 129.395 160.653 131.937 157.619L140.363 147.559" stroke="#4A4849" stroke-width="7" stroke-linecap="round" stroke-linejoin="round"/>
</g>
</svg>
