<svg width="265" height="265" viewBox="0 0 265 265" fill="none" xmlns="http://www.w3.org/2000/svg">
<circle cx="132.838" cy="132.182" r="83.6702" fill="white" stroke="#4A4849" stroke-width="7"/>
<path d="M132.844 38.4688L132.844 45.1624" stroke="#4A4849" stroke-width="7" stroke-linecap="round"/>
<path d="M132.844 205.809V232.583" stroke="#4A4849" stroke-width="7" stroke-linecap="round"/>
<path d="M70.125 74.4146C71.4918 75.7814 73.7079 75.7814 75.0747 74.4146C76.4416 73.0477 76.4416 70.8317 75.0747 69.4648L70.125 74.4146ZM63.4314 67.721L70.125 74.4146L75.0747 69.4648L68.3811 62.7712L63.4314 67.721Z" fill="#4A4849"/>
<path d="M180.568 79.5052C179.202 80.8721 179.202 83.0882 180.568 84.455C181.935 85.8218 184.151 85.8218 185.518 84.455L180.568 79.5052ZM197.302 62.7712L180.568 79.5052L185.518 84.455L202.252 67.721L197.302 62.7712Z" fill="#4A4849"/>
<path d="M195.559 189.949C194.192 188.582 191.976 188.582 190.609 189.949C189.242 191.316 189.242 193.532 190.609 194.898L195.559 189.949ZM202.252 196.642L195.559 189.949L190.609 194.898L197.302 201.592L202.252 196.642Z" fill="#4A4849"/>
<path d="M32.4375 132.18L45.8247 132.18" stroke="#4A4849" stroke-width="7" stroke-linecap="round"/>
<path d="M206.473 132.18L233.247 132.18" stroke="#4A4849" stroke-width="7" stroke-linecap="round"/>
<path d="M85.1152 184.858C86.482 183.491 86.482 181.275 85.1152 179.908C83.7483 178.541 81.5322 178.541 80.1654 179.908L85.1152 184.858ZM68.3811 201.592L85.1152 184.858L80.1654 179.908L63.4314 196.642L68.3811 201.592Z" fill="#4A4849"/>
<circle cx="13.3872" cy="13.3872" r="13.3872" transform="matrix(1 0 0 -1 119.457 31.7734)" stroke="#4A4849" stroke-width="7"/>
<path d="M146.231 245.972C146.231 238.579 140.238 232.585 132.844 232.585C125.451 232.585 119.457 238.579 119.457 245.972C119.457 253.366 125.451 259.359 132.844 259.359C140.238 259.359 146.231 253.366 146.231 245.972Z" stroke="#4A4849" stroke-width="7"/>
<circle cx="13.3872" cy="13.3872" r="13.3872" transform="matrix(1 0 0 -1 39.1289 65.2461)" stroke="#4A4849" stroke-width="7"/>
<circle cx="13.3872" cy="13.3872" r="13.3872" transform="matrix(1 0 0 -1 199.777 65.2461)" stroke="#4A4849" stroke-width="7"/>
<circle cx="13.3872" cy="13.3872" r="13.3872" transform="matrix(1 0 0 -1 199.777 225.895)" stroke="#4A4849" stroke-width="7"/>
<circle cx="13.3872" cy="13.3872" r="13.3872" transform="matrix(1 0 0 -1 39.1289 225.895)" stroke="#4A4849" stroke-width="7"/>
<rect x="9.42188" y="96.4727" width="246.844" height="70.5268" rx="10" fill="#3DBDFF" stroke="#4A4849" stroke-width="7" stroke-linejoin="round"/>
<path d="M235.6 129.505C235.6 131.483 235.445 133.431 235.136 135.347C234.858 137.233 234.379 138.995 233.698 140.633C233.018 142.272 232.091 143.724 230.916 144.992C229.773 146.228 228.304 147.202 226.511 147.913C224.749 148.593 222.632 148.933 220.159 148.933C219.541 148.933 218.83 148.902 218.026 148.841C217.222 148.779 216.542 148.686 215.986 148.562V143.74C216.542 143.894 217.145 144.018 217.794 144.111C218.474 144.204 219.123 144.25 219.741 144.25C221.689 144.25 223.296 143.972 224.564 143.415C225.831 142.828 226.836 142.024 227.578 141.004C228.351 139.953 228.892 138.732 229.201 137.341C229.541 135.919 229.742 134.404 229.804 132.797H229.525C229.123 133.508 228.629 134.157 228.041 134.744C227.454 135.332 226.728 135.795 225.862 136.135C224.997 136.475 223.899 136.645 222.57 136.645C220.808 136.645 219.278 136.244 217.979 135.44C216.712 134.636 215.723 133.477 215.012 131.962C214.301 130.417 213.945 128.546 213.945 126.352C213.945 123.971 214.363 121.931 215.197 120.231C216.063 118.5 217.268 117.186 218.814 116.29C220.36 115.362 222.214 114.898 224.378 114.898C225.955 114.898 227.423 115.208 228.783 115.826C230.144 116.413 231.334 117.31 232.354 118.515C233.374 119.69 234.162 121.205 234.719 123.059C235.306 124.883 235.6 127.032 235.6 129.505ZM224.471 119.674C223.142 119.674 222.044 120.215 221.179 121.297C220.344 122.379 219.927 124.033 219.927 126.259C219.927 128.052 220.282 129.474 220.993 130.525C221.735 131.545 222.833 132.055 224.286 132.055C225.337 132.055 226.233 131.808 226.975 131.313C227.748 130.788 228.335 130.138 228.737 129.366C229.17 128.593 229.386 127.774 229.386 126.908C229.386 126.012 229.278 125.131 229.062 124.265C228.876 123.399 228.582 122.627 228.181 121.947C227.779 121.266 227.253 120.725 226.604 120.324C225.986 119.891 225.275 119.674 224.471 119.674Z" fill="#4A4849"/>
<path d="M203.931 148.467H197.764V127.833C197.764 127.153 197.764 126.457 197.764 125.746C197.795 125.035 197.81 124.324 197.81 123.613C197.841 122.871 197.872 122.191 197.903 121.573C197.594 121.882 197.238 122.253 196.836 122.686C196.465 123.118 196.048 123.536 195.584 123.938L192.153 126.905L189 123.288L198.645 115.359H203.931V148.467Z" fill="#4A4849"/>
<path d="M172.641 138.501V133.586H183.955V138.501H172.641Z" fill="#4A4849"/>
<path d="M167.849 131.589C167.849 135.298 167.184 138.405 165.855 140.909C164.557 143.413 162.671 145.298 160.198 146.566C157.725 147.833 154.758 148.467 151.295 148.467H142.207V115.359H152.223C155.438 115.359 158.22 115.978 160.569 117.214C162.918 118.451 164.711 120.274 165.948 122.686C167.215 125.066 167.849 128.034 167.849 131.589ZM161.357 131.774C161.357 129.146 161.002 126.983 160.291 125.282C159.611 123.582 158.575 122.33 157.184 121.526C155.824 120.692 154.139 120.274 152.13 120.274H148.42V143.505H151.434C154.773 143.505 157.261 142.532 158.9 140.584C160.538 138.606 161.357 135.669 161.357 131.774Z" fill="#4A4849"/>
<path d="M135.795 148.467H122.023V145.082L125.826 143.598V120.274L122.023 118.744V115.359H135.795V118.744L132.039 120.274V143.598L135.795 145.082V148.467Z" fill="#4A4849"/>
<path d="M119.548 115.359L108.883 148.467H101.974L91.3555 115.359H97.9862L103.782 135.623C103.937 136.179 104.122 136.905 104.339 137.802C104.586 138.667 104.802 139.564 104.988 140.491C105.204 141.388 105.359 142.192 105.452 142.903C105.544 142.192 105.683 141.388 105.869 140.491C106.085 139.595 106.302 138.698 106.518 137.802C106.734 136.905 106.935 136.179 107.121 135.623L112.871 115.359H119.548Z" fill="#4A4849"/>
<path d="M88.3222 131.869C88.3222 134.435 88.0285 136.769 87.4412 138.871C86.8538 140.942 85.9419 142.735 84.7054 144.249C83.4998 145.764 81.9696 146.923 80.1149 147.727C78.2601 148.531 76.0808 148.933 73.5768 148.933C71.042 148.933 68.8472 148.531 66.9925 147.727C65.1377 146.892 63.6075 145.733 62.4019 144.249C61.1963 142.735 60.2844 140.926 59.6662 138.824C59.0788 136.722 58.7852 134.388 58.7852 131.823C58.7852 128.391 59.3107 125.408 60.3617 122.873C61.4436 120.339 63.082 118.376 65.2768 116.985C67.4716 115.563 70.2537 114.852 73.6232 114.852C76.9618 114.852 79.713 115.563 81.8769 116.985C84.0408 118.376 85.6482 120.354 86.6993 122.92C87.7812 125.455 88.3222 128.438 88.3222 131.869ZM65.3695 131.869C65.3695 134.373 65.6478 136.521 66.2042 138.314C66.7606 140.107 67.6416 141.483 68.8472 142.441C70.0837 143.399 71.6603 143.879 73.5768 143.879C75.4934 143.879 77.0545 143.399 78.2601 142.441C79.4657 141.483 80.3467 140.107 80.9031 138.314C81.4596 136.521 81.7378 134.373 81.7378 131.869C81.7378 128.129 81.0886 125.192 79.7903 123.059C78.5229 120.926 76.4517 119.859 73.5768 119.859C71.6603 119.859 70.0837 120.339 68.8472 121.297C67.6416 122.255 66.7606 123.631 66.2042 125.424C65.6478 127.217 65.3695 129.365 65.3695 131.869Z" fill="#4A4849"/>
<path d="M45.7521 119.906C44.4538 119.906 43.2791 120.184 42.2281 120.741C41.1771 121.297 40.2806 122.101 39.5387 123.152C38.8277 124.203 38.2867 125.471 37.9158 126.954C37.5448 128.438 37.3593 130.107 37.3593 131.962C37.3593 134.466 37.6685 136.615 38.2867 138.407C38.905 140.17 39.8478 141.53 41.1152 142.488C42.3826 143.446 43.9746 143.925 45.8912 143.925C47.2205 143.925 48.5188 143.786 49.7862 143.508C51.0536 143.199 52.3365 142.797 53.6348 142.302V147.357C52.3674 147.913 51.0536 148.315 49.6935 148.562C48.3642 148.81 46.865 148.933 45.1957 148.933C41.9499 148.933 39.2759 148.238 37.1739 146.847C35.0718 145.425 33.4953 143.446 32.4442 140.911C31.4241 138.346 30.9141 135.347 30.9141 131.916C30.9141 129.412 31.2386 127.124 31.8878 125.053C32.537 122.982 33.4953 121.189 34.7627 119.674C36.0301 118.16 37.5912 116.985 39.4459 116.15C41.3007 115.316 43.4182 114.898 45.7985 114.898C47.375 114.898 48.967 115.099 50.5745 115.501C52.2129 115.872 53.6503 116.398 54.8868 117.078L52.8002 121.947C51.7183 121.421 50.5899 120.957 49.4153 120.555C48.2715 120.123 47.0505 119.906 45.7521 119.906Z" fill="#4A4849"/>
</svg>
